<?xml version="1.0" encoding="UTF-8"?>
<svg width="24px" height="24px" viewBox="0 0 24 24" version="1.1" xmlns="http://www.w3.org/2000/svg" xmlns:xlink="http://www.w3.org/1999/xlink">
    <!-- Generator: sketchtool 55.1 (78136) - https://sketchapp.com -->
    <title>27BDE989-A748-445D-86FD-B421AAE3FB4D_Color</title>
    <desc>Created with sketchtool.</desc>
    <g id="Typography" stroke="none" stroke-width="1" fill="none" fill-rule="evenodd">
        <g id="Final-Version-Consumer" transform="translate(-322.000000, -5743.000000)">
            <g id="Group-37" transform="translate(-1.000000, -6.000000)">
                <g id="Content" transform="translate(251.000000, 321.000000)">
                    <g id="Group-12">
                        <g id="glossary" transform="translate(0.000000, 4450.000000)">
                            <g id="Social-Links" transform="translate(0.000000, 978.000000)">
                                <g id="Facebook" transform="translate(72.000000, 0.000000)">
                                    <path d="M0,12 C0,5.37258267 5.37258267,0 12,0 C18.6274173,0 24,5.37258267 24,12 C24,18.6274173 18.6274173,24 12,24 C5.37258267,24 0,18.6274173 0,12 Z" id="back" fill="#3B5998"></path>
                                    <path d="M12.8507775,18.6557384 L12.8507775,12.1271048 L14.6529659,12.1271048 L14.8917948,9.87730153 L12.8507775,9.87730153 L12.8538395,8.75125333 C12.8538395,8.16446999 12.9095917,7.85005807 13.7523821,7.85005807 L14.8790369,7.85005807 L14.8790369,5.6 L13.0765933,5.6 C10.9115687,5.6 10.1495362,6.69139664 10.1495362,8.52678259 L10.1495362,9.87755632 L8.8,9.87755632 L8.8,12.1273596 L10.1495362,12.1273596 L10.1495362,18.6557384 L12.8507775,18.6557384 Z" id="Shape" fill="#FFFFFF"></path>
                                </g>
                            </g>
                        </g>
                    </g>
                </g>
            </g>
        </g>
    </g>
</svg>