<?xml version="1.0" encoding="UTF-8"?>
<svg width="24px" height="24px" viewBox="0 0 24 24" version="1.1" xmlns="http://www.w3.org/2000/svg" xmlns:xlink="http://www.w3.org/1999/xlink">
    <!-- Generator: sketchtool 55.1 (78136) - https://sketchapp.com -->
    <title>E0D72BCC-9FAF-43ED-922A-2D87E6CF8210</title>
    <desc>Created with sketchtool.</desc>
    <g id="Typography" stroke="none" stroke-width="1" fill="none" fill-rule="evenodd">
        <g id="Final-Version-Consumer" transform="translate(-634.000000, -5744.000000)">
            <g id="Group-37" transform="translate(-1.000000, -6.000000)">
                <g id="Content" transform="translate(251.000000, 321.000000)">
                    <g id="Group-12">
                        <g id="glossary" transform="translate(0.000000, 4450.000000)">
                            <g id="Social-Links" transform="translate(0.000000, 978.000000)">
                                <g id="About-Us" transform="translate(384.000000, 1.000000)">
                                    <g id="Favicon">
                                        <rect id="Rectangle-4" stroke="#231F20" fill="#FFFFFF" fill-rule="nonzero" x="0.5" y="0.5" width="23" height="23" rx="2"></rect>
                                        <g id="Group" transform="translate(1.500000, 1.500000)">
                                            <path d="M20.5264505,0 L0.234543031,0 C0.105465658,0 0,0.573333333 0,1.28 L0,19.88 C0,20.5866667 0.105465658,21.1644444 0.234543031,21.1644444 L20.5264505,21.1644444 C20.6563149,21.1644444 20.7617806,20.5866667 20.7617806,19.88 L20.7617806,1.28 C20.7617806,0.573333333 20.6563149,0 20.5264505,0 L20.5264505,0 Z" id="Fill-4" fill="#FEFEFE"></path>
                                            <polygon id="Fill-6" fill="#231F20" points="0.75 20.0611111 20.0625 20.0611111 20.0625 0.75 0.75 0.75"></polygon>
                                            <path d="M15.7576888,13.7366667 C14.8941097,15.43 13.4518435,17.07 10.3848022,17.07 C6.54766187,17.07 4.5,14.2344444 4.5,10.4077778 C4.5,6.25222222 6.93493705,3.75 10.4026079,3.75 C13.5809353,3.75 14.836241,5.11444444 15.7220773,7.54555556 L12.472527,8.82111111 C12.0095773,7.61666667 11.5688849,6.86111111 10.3848022,6.86111111 C8.88911871,6.86111111 8.24366007,8.35888889 8.24366007,10.4077778 C8.24366007,12.3855556 8.87131295,13.9588889 10.4248651,13.9588889 C11.5510791,13.9588889 12.0318345,13.3455556 12.7307104,12.1277778 L15.7576888,13.7366667 Z" id="Fill-7" fill="#FEFEFE"></path>
                                        </g>
                                    </g>
                                </g>
                            </g>
                        </g>
                    </g>
                </g>
            </g>
        </g>
    </g>
</svg>