<?xml version="1.0" encoding="UTF-8"?>
<svg width="32px" height="32px" viewBox="0 0 32 32" version="1.1" xmlns="http://www.w3.org/2000/svg" xmlns:xlink="http://www.w3.org/1999/xlink">
    <!-- Generator: Sketch 53 (72520) - https://sketchapp.com -->
    <title>ico_otherDamage</title>
    <desc>Created with Sketch.</desc>
    <defs>
        <rect id="path-1" x="0" y="0" width="32" height="32"></rect>
        <linearGradient x1="100.109579%" y1="49.9975278%" x2="0.0680018774%" y2="49.9975278%" id="linearGradient-3">
            <stop stop-color="#FFFFFF" offset="11%"></stop>
            <stop stop-color="#ADE0F9" offset="89%"></stop>
        </linearGradient>
        <linearGradient x1="5.31445194%" y1="-0.588676608%" x2="89.9470854%" y2="95.8146415%" id="linearGradient-4">
            <stop stop-color="#A1A3A6" offset="10%"></stop>
            <stop stop-color="#BCBEBF" offset="20%"></stop>
            <stop stop-color="#D2D2D3" offset="32%"></stop>
            <stop stop-color="#DFDFDF" offset="43%"></stop>
            <stop stop-color="#E3E3E3" offset="53%"></stop>
            <stop stop-color="#DCDCDC" offset="54%"></stop>
            <stop stop-color="#ADAEAF" offset="61%"></stop>
            <stop stop-color="#8B8D8E" offset="68%"></stop>
            <stop stop-color="#77787A" offset="73%"></stop>
            <stop stop-color="#6F7173" offset="77%"></stop>
        </linearGradient>
        <linearGradient x1="50.0861973%" y1="1.47612201%" x2="50.0861973%" y2="98.0272405%" id="linearGradient-5">
            <stop stop-color="#F69321" offset="0%"></stop>
            <stop stop-color="#F15B2A" offset="100%"></stop>
        </linearGradient>
        <linearGradient x1="21470.4152%" y1="3372.50966%" x2="20742.9906%" y2="4095.16743%" id="linearGradient-6">
            <stop stop-color="#A1A3A6" offset="10%"></stop>
            <stop stop-color="#BCBEBF" offset="20%"></stop>
            <stop stop-color="#D2D2D3" offset="32%"></stop>
            <stop stop-color="#DFDFDF" offset="43%"></stop>
            <stop stop-color="#E3E3E3" offset="53%"></stop>
            <stop stop-color="#DCDCDC" offset="54%"></stop>
            <stop stop-color="#ADAEAF" offset="61%"></stop>
            <stop stop-color="#8B8D8E" offset="68%"></stop>
            <stop stop-color="#77787A" offset="73%"></stop>
            <stop stop-color="#6F7173" offset="77%"></stop>
        </linearGradient>
        <linearGradient x1="2176.75192%" y1="342.242046%" x2="2120.09625%" y2="403.300876%" id="linearGradient-7">
            <stop stop-color="#A1A3A6" offset="10%"></stop>
            <stop stop-color="#BCBEBF" offset="20%"></stop>
            <stop stop-color="#D2D2D3" offset="32%"></stop>
            <stop stop-color="#DFDFDF" offset="43%"></stop>
            <stop stop-color="#E3E3E3" offset="53%"></stop>
            <stop stop-color="#DCDCDC" offset="54%"></stop>
            <stop stop-color="#ADAEAF" offset="61%"></stop>
            <stop stop-color="#8B8D8E" offset="68%"></stop>
            <stop stop-color="#77787A" offset="73%"></stop>
            <stop stop-color="#6F7173" offset="77%"></stop>
        </linearGradient>
        <linearGradient x1="21579.1368%" y1="3368.6405%" x2="21011.0551%" y2="4028.5041%" id="linearGradient-8">
            <stop stop-color="#A1A3A6" offset="10%"></stop>
            <stop stop-color="#BCBEBF" offset="20%"></stop>
            <stop stop-color="#D2D2D3" offset="32%"></stop>
            <stop stop-color="#DFDFDF" offset="43%"></stop>
            <stop stop-color="#E3E3E3" offset="53%"></stop>
            <stop stop-color="#DCDCDC" offset="54%"></stop>
            <stop stop-color="#ADAEAF" offset="61%"></stop>
            <stop stop-color="#8B8D8E" offset="68%"></stop>
            <stop stop-color="#77787A" offset="73%"></stop>
            <stop stop-color="#6F7173" offset="77%"></stop>
        </linearGradient>
        <linearGradient x1="9.04140048%" y1="9.8728756%" x2="87.9120455%" y2="86.5148003%" id="linearGradient-9">
            <stop stop-color="#6D6E71" offset="10%"></stop>
            <stop stop-color="#7E7F82" offset="15%"></stop>
            <stop stop-color="#AAAAAB" offset="27%"></stop>
            <stop stop-color="#C9C9CA" offset="37%"></stop>
            <stop stop-color="#DCDCDC" offset="46%"></stop>
            <stop stop-color="#E3E3E3" offset="53%"></stop>
            <stop stop-color="#CBCCCD" offset="61%"></stop>
            <stop stop-color="#B7B8BB" offset="70%"></stop>
            <stop stop-color="#AFB1B4" offset="76%"></stop>
        </linearGradient>
        <linearGradient x1="-4.69704401%" y1="62.3244297%" x2="69.137003%" y2="33.3260191%" id="linearGradient-10">
            <stop stop-color="#FFFFFF" offset="0%"></stop>
            <stop stop-color="#ADE0F9" offset="100%"></stop>
        </linearGradient>
    </defs>
    <g id="Page-1" stroke="none" stroke-width="1" fill="none" fill-rule="evenodd">
        <g id="VHR-Icons" transform="translate(-629.000000, -142.000000)">
            <g id="Icon/VHR-icon/color/ico_otherDamage" transform="translate(629.000000, 142.000000)">
                <mask id="mask-2" fill="white">
                    <use xlink:href="#path-1"></use>
                </mask>
                <g id="Rectangle-8"></g>
                <g id="ico_otherDamage" stroke-width="1" fill-rule="evenodd" mask="url(#mask-2)">
                    <g transform="translate(2.666667, 2.666667)" id="Shape">
                        <path d="M9.3164557,7.10075949 C10.1687215,2.82853562 14.3219727,0.0553237 18.5946034,0.905547927 C22.867234,1.75577215 25.6424303,5.90769765 24.7942479,10.1807341 C23.9460655,14.4537705 19.7954666,17.2309505 15.5220253,16.3848101 C13.4672302,15.9779612 11.6585272,14.7707834 10.4945013,13.0293034 C9.33047532,11.2878233 8.90666143,9.15496927 9.3164557,7.10075949 L9.3164557,7.10075949 Z" fill="url(#linearGradient-3)" fill-rule="evenodd"></path>
                        <path d="M0.648101266,22.5863291 L0.0972151899,23.1372152 C0.0411209876,23.1977838 0.0411209876,23.2913301 0.0972151899,23.3518987 C0.808409334,24.2192971 1.60348771,25.0143755 2.47088608,25.7255696 C2.49979415,25.7547593 2.53917134,25.7711818 2.58025316,25.7711818 C2.62133499,25.7711818 2.66071218,25.7547593 2.68962025,25.7255696 L3.24050633,25.1746835 C3.26945778,25.1464734 3.28578632,25.1077646 3.28578632,25.0673418 C3.28578632,25.026919 3.26945778,24.9882102 3.24050633,24.96 L0.86278481,22.5863291 C0.834574624,22.5573777 0.795865817,22.5410491 0.755443038,22.5410491 C0.715020259,22.5410491 0.676311452,22.5573777 0.648101266,22.5863291 L0.648101266,22.5863291 Z" fill="url(#linearGradient-4)" fill-rule="evenodd"></path>
                        <path d="M0.307848101,22.9022785 L0.186329114,23.0237975 C0.186329114,23.0237975 0.210632911,23.0926582 0.271392405,23.1534177 C0.984303797,23.8987342 1.78632911,24.7088608 2.66126582,25.5189873 C2.72202532,25.5797468 2.78278481,25.6202532 2.79493671,25.6081013 L2.91240506,25.5189873 C2.91240506,25.5189873 2.88810127,25.4460759 2.82734177,25.3853165 L0.441518987,22.9913924 C0.376708861,22.9306329 0.32,22.8941772 0.307848101,22.9022785 Z" fill="#000000" fill-rule="nonzero" opacity="0.28"></path>
                        <path d="M8.81417722,14.6916456 L11.2121519,17.3893671 C11.2121519,17.3893671 11.2364557,17.4298734 11.2121519,17.4501266 C11.1878481,17.4703797 11.155443,17.5149367 11.2121519,17.5635443 C11.3498734,17.676962 11.3134177,17.9686076 11.2121519,18.1427848 L3.49974684,25.8065823 C3.2975254,25.8724009 3.07556974,25.8261601 2.9164557,25.6850633 L0.0810126582,22.8496203 C-0.0324050633,22.7159494 -0.0202531646,22.5579747 0.113417722,22.3716456 L8.02025316,14.4931646 C8.1830658,14.4681834 8.34717209,14.5295315 8.45367089,14.6551899 C8.56303797,14.7605063 8.72506329,14.7078481 8.81417722,14.6916456 Z" fill="url(#linearGradient-5)" fill-rule="evenodd"></path>
                        <path d="M11.1675949,16.9194937 L11.2729114,17.6081013 C10.2318987,16.5913924 9.22329114,15.5827848 8.25518987,14.5174684 L8.9478481,14.643038 L11.1675949,16.9194937 Z" fill="url(#linearGradient-6)" fill-rule="evenodd"></path>
                        <path d="M10.6481181,13.2820787 L11.3407764,13.2820787 C11.4168379,13.2820787 11.4784979,13.3437387 11.4784979,13.4198002 L11.4784979,16.3686609 C11.4784979,16.4447224 11.4168379,16.5063825 11.3407764,16.5063825 L10.6481181,16.5063825 C10.5742937,16.5063825 10.5144472,16.446536 10.5144472,16.3727116 L10.5144472,13.4157495 C10.5144472,13.3419252 10.5742937,13.2820787 10.6481181,13.2820787 L10.6481181,13.2820787 Z" fill="url(#linearGradient-7)" fill-rule="nonzero" transform="translate(10.996473, 14.894231) rotate(-44.060000) translate(-10.996473, -14.894231) "></path>
                        <path d="M9.41772152,14.1772152 L8.91139241,14.6511392 C8.8604696,14.7043835 8.8604696,14.7882747 8.91139241,14.841519 C9.52436532,15.6137174 10.2122767,16.323338 10.9650633,16.96 C10.9895987,16.9865464 11.0241049,17.0016413 11.0602532,17.0016413 C11.0964014,17.0016413 11.1309076,16.9865464 11.155443,16.96 L11.6496203,16.4860759 C11.7010607,16.431473 11.7010607,16.3462485 11.6496203,16.2916456 L9.60405063,14.1772152 C9.57963011,14.1519699 9.54600994,14.1377158 9.51088608,14.1377158 C9.47576221,14.1377158 9.44214204,14.1519699 9.41772152,14.1772152 Z" fill="url(#linearGradient-8)" fill-rule="evenodd"></path>
                        <path d="M24.7088608,10.9367089 C25.9299993,6.73616535 23.5176765,2.34041357 19.3185433,1.11443405 C15.1194102,-0.111545459 10.7208807,2.29570894 9.49006185,6.49342618 C8.25924299,10.6911434 10.6614258,15.0924447 14.8577215,16.3281013 C16.8790403,16.9221809 19.05367,16.6876138 20.9018067,15.6761541 C22.7499435,14.6646944 24.1197013,12.9594672 24.7088608,10.9367089 Z M9.6364557,6.54582278 C10.5166048,3.53402671 13.1245369,1.349114 16.2439364,1.01010797 C19.3633358,0.671101946 22.3797392,2.24478045 23.8863236,4.99719422 C25.392908,7.74960799 25.0929044,11.138583 23.1262317,13.5835322 C21.1595591,16.0284814 17.9136151,17.0477956 14.9022785,16.1660759 C10.7938747,14.9608083 8.43761727,10.6561072 9.6364557,6.54582278 Z" fill="#1FA1CC" fill-rule="evenodd" opacity="0.4"></path>
                        <path d="M17.3610127,16.0648101 C16.886255,16.0687895 16.4124043,16.0226264 15.9473418,15.9270886 C14.5759909,15.6563067 13.3173773,14.9804368 12.3341772,13.9868354 L12.0951899,13.7194937 L12.1883544,13.7762025 C12.8121384,14.1123772 13.4824103,14.3540027 14.1772152,14.4931646 C17.0791681,15.0695042 20.0307809,13.7633802 21.5557864,11.2280585 C23.080792,8.69273672 22.8513745,5.47321111 20.9822785,3.17974684 L20.7716456,2.94481013 L21.2658228,3.24050633 C23.8036243,4.97010411 24.9224662,8.14860144 24.0276381,11.0864966 C23.1328101,14.0243917 20.4320864,16.0395206 17.3610127,16.0607595 L17.3610127,16.0648101 Z" fill="#E6E7E8" fill-rule="evenodd" style="mix-blend-mode: multiply;"></path>
                        <path d="M8.36455696,8.93164557 C8.4774276,13.6599364 12.3386328,17.4364843 17.0682638,17.4445227 C21.7978949,17.4525611 25.6719148,13.6891599 25.800857,8.96127999 C25.9297992,4.2334001 22.2666618,0.264440089 17.5436232,0.0146784042 C12.8205846,-0.235083281 8.75927871,3.32539606 8.38886076,8.04050633 C8.36860759,8.33620253 8.36050633,8.63189873 8.36455696,8.93164557 Z M16.8708861,0.534683544 C20.2442457,0.458365154 23.317161,2.46466159 24.6042399,5.58376522 C25.8913188,8.70286884 25.1274786,12.2923788 22.681946,14.6171905 C20.2364133,16.9420023 16.6128624,17.5233048 13.5628527,16.0801069 C10.5128429,14.636909 8.6645448,11.4664472 8.91139241,8.10126582 C9.23428777,3.90764626 12.6782908,0.638643387 16.883038,0.534683544 L16.8708861,0.534683544 Z" fill="#A7A9AC" fill-rule="evenodd"></path>
                        <path d="M20.1518987,16.684557 C24.4654266,14.9951005 26.64499,10.1742744 25.0639981,5.81982255 C23.4830062,1.46537074 18.7182277,-0.834139597 14.3255789,0.637397764 C9.93293005,2.10893512 7.51491276,6.81468204 8.87607405,11.2427771 C10.2372353,15.6708722 14.8810038,18.2058822 19.3417722,16.9559494 C19.6164898,16.8800915 19.8869234,16.7894963 20.1518987,16.684557 Z M9.62025316,11.6010127 C8.45281912,8.57428951 9.22471993,5.14231812 11.5756794,2.90693339 C13.9266389,0.671548661 17.393133,0.0734874683 20.3572137,1.39188829 C23.3212944,2.71028912 25.1985525,5.68521109 25.1127983,8.9281421 C25.0270441,12.1710731 22.9951853,15.0426247 19.9655696,16.2025316 C19.7101772,16.3027643 19.4491407,16.387973 19.1837975,16.4577215 C15.2177192,17.5336067 11.0803913,15.4360777 9.60405063,11.6010127 L9.62025316,11.6010127 Z" fill="url(#linearGradient-9)" fill-rule="evenodd"></path>
                        <path d="M19.3579747,0.947848101 C16.2127862,0.027224428 12.8227395,1.09217826 10.7690164,3.64599504 C8.7152933,6.19981182 8.40246894,9.73939991 9.9764505,12.6138287 C11.5504321,15.4882575 14.7011515,17.131276 17.9590539,16.7765495 C21.2169563,16.421823 23.9402479,14.1392311 24.8587342,10.9934177 C26.1121139,6.70059536 23.6499444,2.20414447 19.3579747,0.947848101 Z" fill="url(#linearGradient-10)" fill-rule="evenodd"></path>
                    </g>
                </g>
            </g>
        </g>
    </g>
</svg>