<?xml version="1.0" encoding="UTF-8"?>
<svg width="32px" height="32px" viewBox="0 0 32 32" version="1.1" xmlns="http://www.w3.org/2000/svg" xmlns:xlink="http://www.w3.org/1999/xlink">
    <!-- Generator: Sketch 53 (72520) - https://sketchapp.com -->
    <title>ico_accident</title>
    <desc>Created with Sketch.</desc>
    <defs>
        <rect id="path-1" x="0" y="0" width="32" height="32"></rect>
        <rect id="path-3" x="0" y="0" width="26.567619" height="23.847619"></rect>
        <path d="M0.761904762,19.2419048 L3.35238095,14.6171429 C6.14857143,14.6171429 11.1466667,12.3314286 11.4171429,12.2171429 C11.3790476,11.9885714 11.3447619,11.7638095 11.3104762,11.5466667 C11.2495238,11.127619 11.1961905,10.72 11.1504762,10.3238095 C11.1504762,10.1980952 11.1238095,10.0685714 11.1085714,9.94285714 C11.0199983,9.09873074 10.9742254,8.25066077 10.9714286,7.40190476 C10.9378059,6.89317972 11.0431515,6.38488696 11.2761905,5.93142857 C11.4914517,5.63761798 11.8338672,5.46400763 12.1980952,5.46400763 C12.5623232,5.46400763 12.9047388,5.63761798 13.12,5.93142857 C13.3546998,6.38429872 13.4601424,6.89305943 13.4247619,7.40190476 C13.4247619,8.14857143 13.3866667,8.92952381 13.3104762,9.7447619 C13.2647619,10.2514286 13.2,10.7695238 13.1238095,11.3028571 C13.1238095,11.3828571 13.1009524,11.4628571 13.0857143,11.5428571 C14.781051,10.9017363 16.5696149,10.5414501 18.3809524,10.4761905 L18.487619,10.4761905 L23.5161905,19.5314286 C23.6190476,20.3961905 22.4761905,20.8 22.4761905,20.8 L1.55047619,20.8 C0.571428571,20.5104762 0.761904762,19.2419048 0.761904762,19.2419048 L0.761904762,19.2419048 Z M12.167619,0.194285714 C11.5389728,0.194426878 10.9581326,0.529862072 10.6438095,1.07428571 C10.16,1.88190476 1.11619048,17.5238095 0.438095238,18.7390476 C0.288096918,19.009464 0.209434575,19.313625 0.20952381,19.6228571 C0.20870941,19.9384776 0.291518002,20.2486812 0.44952381,20.5219048 C0.760689669,21.0501084 1.33382213,21.3680292 1.94666667,21.352381 L22.3047619,21.352381 C22.9312228,21.3514905 23.510626,21.0197821 23.8285714,20.48 C24.1476256,19.9245207 24.1373946,19.2390433 23.8019048,18.6933333 C23.3752381,17.9314286 14.5180952,2.60571429 13.6419048,1.09333333 C13.3303008,0.545704518 12.7481684,0.208067759 12.1180952,0.20952381 L12.167619,0.194285714 Z" id="path-5"></path>
        <linearGradient x1="51.0108142%" y1="96.4165766%" x2="51.0108142%" y2="-3.77657658%" id="linearGradient-7">
            <stop stop-color="#FFCD09" offset="0%"></stop>
            <stop stop-color="#FFCD09" offset="11%"></stop>
            <stop stop-color="#FECF18" offset="25%"></stop>
            <stop stop-color="#FDD32F" offset="53%"></stop>
            <stop stop-color="#FCD53D" offset="78%"></stop>
            <stop stop-color="#FCD642" offset="100%"></stop>
        </linearGradient>
        <path d="M10.6666667,6.52190476 C10.6646996,5.90585834 11.1606305,5.40387675 11.7766555,5.39837331 C12.3926805,5.39286987 12.8975007,5.88591096 12.9065404,6.50189419 C12.91558,7.11787743 12.425445,7.62551966 11.8095238,7.63809524 C11.5092006,7.64422709 11.2190017,7.5294639 11.0041045,7.31958098 C10.7892073,7.10969807 10.6676258,6.82228904 10.6666667,6.52190476 M12.6857143,1.26095238 C12.6514286,1.48571429 12.6133333,1.71428571 12.5752381,1.94285714 L12.5752381,2.00380952 C12.5752381,2.07238095 12.5752381,2.16761905 12.5333333,2.29333333 C12.3085714,3.64190476 12.0685714,4.32 11.8095238,4.32 C11.5504762,4.32 11.367619,3.86666667 11.2114286,2.96761905 L11.1314286,2.51428571 C11.0933333,2.31619048 11.0628571,2.13333333 11.0285714,1.93142857 C10.7580952,2.05333333 5.76,4.32 2.96380952,4.33142857 L0.380952381,8.95619048 C0.380952381,8.95619048 0.19047619,10.2247619 1.16952381,10.5142857 L22.0952381,10.5142857 C22.0952381,10.5142857 23.2380952,10.1104762 23.1314286,9.24571429 L18.087619,0.198095238 L17.9809524,0.198095238 C16.1696149,0.263354853 14.381051,0.6236411 12.6857143,1.2647619" id="path-8"></path>
        <linearGradient x1="48.6618206%" y1="108.324105%" x2="48.6618206%" y2="8.12107789%" id="linearGradient-10">
            <stop stop-color="#FEE000" offset="0%"></stop>
            <stop stop-color="#FDB714" offset="100%"></stop>
        </linearGradient>
        <rect id="path-11" x="0" y="0" width="26.567619" height="23.847619"></rect>
        <path d="M8.11851907e-10,1.18857143 C0.00012820166,1.80412647 0.496994567,2.30421105 1.11253595,2.3083133 C1.72807734,2.31241554 2.23156486,1.81899778 2.23989736,1.20349912 C2.24822986,0.588000463 1.758284,0.08113379 1.14285714,0.0685714286 C0.841874366,0.0624276368 0.551090508,0.177709455 0.336079964,0.388419788 C0.12106942,0.599130121 -6.26975364e-05,0.887525959 8.118492e-10,1.18857143" id="path-13"></path>
        <linearGradient x1="37.1379898%" y1="266.581633%" x2="37.1379898%" y2="-195.068027%" id="linearGradient-15">
            <stop stop-color="#A79C5A" offset="0%"></stop>
            <stop stop-color="#A88B52" offset="100%"></stop>
        </linearGradient>
        <path d="M0.59047619,0.601904762 C0.357437248,1.05536315 0.252091598,1.56365591 0.285714286,2.07238095 C0.288511137,2.92113696 0.334284029,3.76920693 0.422857143,4.61333333 C0.422857143,4.7352381 0.44952381,4.8647619 0.464761905,4.99428571 C0.51047619,5.39047619 0.563809524,5.79809524 0.624761905,6.21714286 C0.659047619,6.43428571 0.693333333,6.65904762 0.731428571,6.88761905 L0.731428571,6.88761905 C1.31047619,6.63365079 1.86285714,6.41269841 2.38857143,6.2247619 C2.38857143,6.1447619 2.4152381,6.0647619 2.42666667,5.9847619 C2.50285714,5.45142857 2.56761905,4.93333333 2.61333333,4.42666667 C2.68952381,3.61142857 2.72761905,2.83047619 2.72761905,2.08380952 C2.76299955,1.57496419 2.65755691,1.06620349 2.42285714,0.613333333 C2.20759596,0.319522741 1.86518039,0.14591239 1.50095238,0.14591239 C1.13672437,0.14591239 0.794308802,0.319522741 0.579047619,0.613333333" id="path-16"></path>
        <linearGradient x1="60.970451%" y1="223.894085%" x2="60.970451%" y2="-89.3859155%" id="linearGradient-18">
            <stop stop-color="#816C30" offset="0%"></stop>
            <stop stop-color="#816C30" offset="11%"></stop>
            <stop stop-color="#806E37" offset="48%"></stop>
            <stop stop-color="#806F3C" offset="100%"></stop>
        </linearGradient>
        <path d="M0,0.780952381 L0,0.780952381 C0.0342857143,0.971428571 0.0647619048,1.16190476 0.102857143,1.36380952 L0.182857143,1.81714286 C0.339047619,2.71619048 0.540952381,3.16952381 0.780952381,3.16952381 C1.02095238,3.16952381 1.28,2.49142857 1.5047619,1.14285714 C1.52761905,1.01714286 1.53904762,0.921904762 1.54666667,0.853333333 L1.54666667,0.792380952 C1.5847619,0.563809524 1.62285714,0.335238095 1.65714286,0.11047619 C1.11873016,0.290793651 0.566349206,0.514285714 0,0.780952381" id="path-19"></path>
        <linearGradient x1="28.0182232%" y1="330.985037%" x2="28.0182232%" y2="-7.48129676%" id="linearGradient-21">
            <stop stop-color="#807331" offset="0%"></stop>
            <stop stop-color="#81632D" offset="100%"></stop>
        </linearGradient>
        <rect id="path-22" x="0" y="0" width="26.567619" height="23.847619"></rect>
    </defs>
    <g id="Page-1" stroke="none" stroke-width="1" fill="none" fill-rule="evenodd">
        <g id="VHR-Icons" transform="translate(-110.000000, -142.000000)">
            <g id="Icon/VHR-icon/color/ico_accident" transform="translate(110.000000, 142.000000)">
                <mask id="mask-2" fill="white">
                    <use xlink:href="#path-1"></use>
                </mask>
                <g id="Rectangle-8"></g>
                <g id="ico_accident" stroke-width="1" fill-rule="evenodd" mask="url(#mask-2)">
                    <g transform="translate(2.666667, 4.000000)">
                        <polygon id="Shape" fill="#FFFFFF" fill-rule="nonzero" points="2.70857143 23.3866667 23.7485714 23.3866667 25.2761905 22.7695238 25.8895238 21.5809524 26.0152381 20.1866667 25.3980952 18.8304762 15.4704762 1.80190476 14.5257143 0.735238095 13.4895238 0.52952381 12.392381 0.655238095 11.3257143 1.18857143 0.780952381 19.5161905 0.533333333 20.6361905 0.613333333 21.5809524 1.0247619 22.5257143 1.55809524 22.9752381"></polygon>
                        <g id="Clipped" stroke-width="1" fill="none" fill-rule="evenodd">
                            <mask id="mask-4" fill="white">
                                <use xlink:href="#path-3"></use>
                            </mask>
                            <g id="Rectangle-path"></g>
                            <path d="M3.08952381,23.847619 C2.55765003,23.8506615 2.03358295,23.7196447 1.56571429,23.4666667 C1.09277601,23.2038909 0.698316693,22.8199505 0.422857143,22.3542857 C-0.140047756,21.3933275 -0.151645032,20.2060564 0.392380952,19.2342857 C1.08571429,17.9847619 10.1333333,2.34666667 10.6057143,1.54666667 C11.1572308,0.594498399 12.1720356,0.00591165231 13.272381,-9.03721542e-16 L13.272381,0.921904762 C12.486582,0.91553868 11.7584413,1.33349148 11.367619,2.0152381 C10.9066667,2.79619048 1.84380952,18.4609524 1.17333333,19.672381 C0.990029331,20.0063848 0.893123877,20.3809113 0.891428571,20.7619048 C0.891274494,21.1540354 0.995122187,21.539192 1.19238095,21.8780952 C1.38366154,22.196992 1.65566645,22.4597987 1.98095238,22.64 C2.31170524,22.8197672 2.6826061,22.9128201 3.05904762,22.9104762 L23.447619,22.9104762 C24.2305523,22.9097541 24.9548505,22.4954556 25.352381,21.8209524 C25.538907,21.4949698 25.637373,21.1260506 25.6380952,20.7504762 L25.6380952,20.72 C25.6281194,20.3284861 25.5193547,19.9458441 25.3219048,19.607619 C24.9066667,18.8838095 16.0457143,3.53142857 15.1695238,2.02285714 C14.7890621,1.34652231 14.075038,0.926251508 13.2990476,0.921904762 L13.2990476,0.921904762 L13.2990476,-5.59446669e-16 L13.2990476,-5.59446669e-16 C14.4036068,0.00514232305 15.4209501,0.601014821 15.9657143,1.56190476 C16.8419048,3.08571429 25.6990476,18.4190476 26.1295238,19.1657143 C26.4065617,19.6471138 26.5560483,20.1912972 26.5638095,20.7466667 L26.5638095,20.7466667 C26.5628597,21.2819197 26.4209577,21.8074824 26.152381,22.2704762 C25.5897432,23.232453 24.5582407,23.8229193 23.4438095,23.8209524 L3.08952381,23.847619 Z" id="Shape" fill="#000000" fill-rule="nonzero" mask="url(#mask-4)"></path>
                        </g>
                        <g id="Clipped" stroke-width="1" fill="none" fill-rule="evenodd" transform="translate(1.142857, 1.142857)">
                            <mask id="mask-6" fill="white">
                                <use xlink:href="#path-5"></use>
                            </mask>
                            <g id="Shape"></g>
                            <rect id="Rectangle-path" fill="url(#linearGradient-7)" fill-rule="nonzero" mask="url(#mask-6)" x="0.20952381" y="0.20952381" width="23.9542857" height="21.1428571"></rect>
                        </g>
                        <g id="Clipped" stroke-width="1" fill="none" fill-rule="evenodd" transform="translate(1.523810, 11.428571)">
                            <mask id="mask-9" fill="white">
                                <use xlink:href="#path-8"></use>
                            </mask>
                            <g id="Shape"></g>
                            <rect id="Rectangle-path" fill="url(#linearGradient-10)" fill-rule="nonzero" mask="url(#mask-9)" x="0.19047619" y="0.194285714" width="23.0590476" height="10.32"></rect>
                        </g>
                        <g id="Clipped" stroke-width="1" fill="none" fill-rule="evenodd">
                            <mask id="mask-12" fill="white">
                                <use xlink:href="#path-11"></use>
                            </mask>
                            <g id="Rectangle-path"></g>
                            <g id="Group" mask="url(#mask-12)" fill-rule="nonzero">
                                <g transform="translate(0.761905, 0.761905)" id="Shape">
                                    <path d="M12.5257143,1.14285714 L12.5257143,1.14285714 C12.0909458,1.13772251 11.6867703,1.36597992 11.4666667,1.74095238 C10.9980952,2.53333333 1.94285714,18.1561905 1.28380952,19.3790476 C1.18557269,19.5723292 1.13712475,19.7870714 1.14285714,20.0038095 C1.14243232,20.2244344 1.20025308,20.4412622 1.31047619,20.632381 C1.5227026,21.0007604 1.9218706,21.2208898 2.34666667,21.2038095 L22.6857143,21.2038095 C23.1293007,21.2045601 23.5404493,20.9714794 23.767619,20.5904762 C23.9866903,20.1979722 23.9735353,19.7170831 23.7333333,19.3371429 C23.3104762,18.5942857 14.4495238,3.25333333 13.5771429,1.74095238 C13.3596539,1.36895783 12.9604276,1.14103591 12.5295238,1.14285714 L12.5295238,1.14285714 L12.5257143,1.14285714 Z M12.5257143,1.49714286 C12.8278756,1.49256419 13.1101211,1.64743735 13.2685714,1.9047619 C14.1409524,3.42857143 23.0019048,18.7580952 23.4247619,19.5009524 C23.6010821,19.7699938 23.6142741,20.1144515 23.4590476,20.3961905 C23.2993215,20.6650676 23.0098842,20.8300468 22.6971429,20.8304762 L2.32761905,20.8304762 C2.03343025,20.8471839 1.75387315,20.700819 1.6,20.4495238 C1.51950925,20.3148365 1.47735598,20.1607136 1.47809524,20.0038095 C1.47828028,19.8451159 1.51892565,19.6890902 1.59619048,19.5504762 C2.28571429,18.3314286 11.3066667,2.71238095 11.7714286,1.92380952 C11.9253478,1.64764328 12.2171727,1.4769257 12.5333333,1.47809524 L12.5257143,1.49714286 Z" fill="#FCE483"></path>
                                    <path d="M1.02095238,19.2304762 C0.890865926,19.4635117 0.821437498,19.7255058 0.819047619,19.992381 C0.819376735,20.267047 0.893023261,20.5366459 1.03238095,20.7733333 C1.29984945,21.2322629 1.79665015,21.5084256 2.32761905,21.4933333 L22.6857143,21.4933333 C23.2364723,21.4962358 23.7472218,21.2060372 24.0266667,20.7314286 C24.1561325,20.5093911 24.2244816,20.2570252 24.2247619,20 C24.2215939,19.7104804 24.1427988,19.426818 23.9961905,19.1771429 C23.5733333,18.4152381 14.712381,3.08952381 13.8361905,1.57714286 C13.5630969,1.10904421 13.0619377,0.821212292 12.52,0.821212292 C11.9780623,0.821212292 11.4769031,1.10904421 11.2038095,1.57714286 C10.7390476,2.36571429 1.68,18.0038095 1.02095238,19.2190476 M0.64,21.0057143 C0.459799332,20.698458 0.365095701,20.3485807 0.365714286,19.992381 C0.366260175,19.6431281 0.455388787,19.2997208 0.624761905,18.9942857 C1.29904762,17.7752381 10.3352381,2.14857143 10.807619,1.35238095 C11.1621173,0.738368639 11.8167164,0.359542967 12.5257143,0.358095238 L12.5257143,0.358095238 C13.2306841,0.363406043 13.8794924,0.743691945 14.2285714,1.35619048 L24.4,18.96 C24.5856245,19.2794274 24.6841459,19.6419859 24.6857143,20.0114286 C24.6882493,20.3502306 24.5987128,20.6833591 24.4266667,20.9752381 C24.0636867,21.5914072 23.4008443,21.9685166 22.6857143,21.9657143 L2.32,21.9657143 C1.626735,21.9802791 0.9803238,21.6169464 0.632380952,21.0171429" fill="#FFFFFF"></path>
                                </g>
                            </g>
                        </g>
                        <g id="Clipped" stroke-width="1" fill="none" fill-rule="evenodd" transform="translate(12.190476, 16.761905)">
                            <mask id="mask-14" fill="white">
                                <use xlink:href="#path-13"></use>
                            </mask>
                            <g id="Shape"></g>
                            <rect id="Rectangle-path" fill="url(#linearGradient-15)" fill-rule="nonzero" mask="url(#mask-14)" x="0.0114285714" y="0.0685714286" width="2.23619048" height="2.24"></rect>
                        </g>
                        <g id="Clipped" stroke-width="1" fill="none" fill-rule="evenodd" transform="translate(11.809524, 6.476190)">
                            <mask id="mask-17" fill="white">
                                <use xlink:href="#path-16"></use>
                            </mask>
                            <g id="Shape"></g>
                            <rect id="Rectangle-path" fill="url(#linearGradient-18)" fill-rule="nonzero" mask="url(#mask-17)" x="0.285714286" y="0.121904762" width="2.44952381" height="6.76190476"></rect>
                        </g>
                        <g id="Clipped" stroke-width="1" fill="none" fill-rule="evenodd" transform="translate(12.571429, 12.571429)">
                            <mask id="mask-20" fill="white">
                                <use xlink:href="#path-19"></use>
                            </mask>
                            <g id="Shape"></g>
                            <polygon id="Rectangle-path" fill="url(#linearGradient-21)" fill-rule="nonzero" mask="url(#mask-20)" points="-0.0304761905 0.118095238 1.64190476 0.118095238 1.64190476 3.17333333 -0.0304761905 3.17333333"></polygon>
                        </g>
                        <g id="Clipped" stroke-width="1" fill="none" fill-rule="evenodd">
                            <mask id="mask-23" fill="white">
                                <use xlink:href="#path-22"></use>
                            </mask>
                            <g id="Rectangle-path"></g>
                            <g id="Group" mask="url(#mask-23)" fill="#000000" fill-rule="nonzero">
                                <g transform="translate(11.809524, 6.095238)" id="Shape">
                                    <path d="M2.63238095,11.68 C2.63235731,12.1340326 2.35822495,12.5431297 1.93830486,12.7157934 C1.51838477,12.8884571 1.03576945,12.7905213 0.716370495,12.4678296 C0.396971541,12.1451379 0.303990641,11.6615435 0.48095203,11.2434163 C0.657913419,10.8252892 1.06980052,10.555367 1.52380952,10.56 C2.14236844,10.56 2.64380952,11.0614411 2.64380952,11.68"></path>
                                    <path d="M2.43428571,0.811428571 C2.22521606,0.508372974 1.88055593,0.32742512 1.51238095,0.32742512 C1.14420597,0.32742512 0.799545849,0.508372974 0.59047619,0.811428571 C0.357437248,1.26488696 0.252091598,1.77317972 0.285714286,2.28190476 C0.288443855,3.12939551 0.334217107,3.97620068 0.422857143,4.81904762 C0.422857143,4.9447619 0.44952381,5.07047619 0.464761905,5.2 C0.51047619,5.58095238 0.563809524,6.00380952 0.624761905,6.41904762 C0.685714286,6.83428571 0.754285714,7.24571429 0.834285714,7.67238095 C0.853333333,7.78666667 0.88,7.9352381 0.914285714,8.12571429 C1.07047619,9.0247619 1.27238095,9.47809524 1.51238095,9.47809524 C1.75238095,9.47809524 2.01142857,8.8 2.23619048,7.45142857 C2.25904762,7.32571429 2.27047619,7.23428571 2.28190476,7.16190476 L2.28190476,7.1047619 C2.3352381,6.79238095 2.3847619,6.48380952 2.43047619,6.18285714 C2.50666667,5.64952381 2.57142857,5.12761905 2.61714286,4.62095238 C2.69333333,3.80571429 2.73142857,3.02603175 2.73142857,2.28190476 C2.76680907,1.77305943 2.66136644,1.26429872 2.42666667,0.811428571"></path>
                                </g>
                            </g>
                        </g>
                    </g>
                </g>
            </g>
        </g>
    </g>
</svg>