<?xml version="1.0" encoding="UTF-8"?>
<svg width="32px" height="32px" viewBox="0 0 32 32" version="1.1" xmlns="http://www.w3.org/2000/svg" xmlns:xlink="http://www.w3.org/1999/xlink">
    <!-- Generator: Sketch 53 (72520) - https://sketchapp.com -->
    <title>ico_minorAccident</title>
    <desc>Created with Sketch.</desc>
    <defs>
        <rect id="path-1" x="0" y="0" width="32" height="32"></rect>
        <linearGradient x1="0%" y1="50%" x2="99.9978176%" y2="50%" id="linearGradient-3">
            <stop stop-color="#F69321" offset="0%"></stop>
            <stop stop-color="#F58B22" offset="25%"></stop>
            <stop stop-color="#F37426" offset="65%"></stop>
            <stop stop-color="#F15B2A" offset="100%"></stop>
        </linearGradient>
        <linearGradient x1="0%" y1="49.9920328%" x2="99.9978176%" y2="49.9920328%" id="linearGradient-4">
            <stop stop-color="#FFFFFF" offset="0%"></stop>
            <stop stop-color="#AEAEAE" offset="27%"></stop>
            <stop stop-color="#636363" offset="53%"></stop>
            <stop stop-color="#2E2E2E" offset="75%"></stop>
            <stop stop-color="#0C0C0C" offset="91%"></stop>
            <stop stop-color="#FFFFFF" offset="100%"></stop>
        </linearGradient>
        <radialGradient cx="58.7257039%" cy="82.1901659%" fx="58.7257039%" fy="82.1901659%" r="82.5426492%" gradientTransform="translate(0.587257,0.821902),scale(0.999872,1.000000),translate(-0.587257,-0.821902)" id="radialGradient-5">
            <stop stop-color="#FFFFFF" offset="0%"></stop>
            <stop stop-color="#FCFCFC" offset="32%"></stop>
            <stop stop-color="#F2F2F2" offset="57%"></stop>
            <stop stop-color="#E2E2E2" offset="80%"></stop>
            <stop stop-color="#CDCCCC" offset="100%"></stop>
        </radialGradient>
    </defs>
    <g id="Page-1" stroke="none" stroke-width="1" fill="none" fill-rule="evenodd">
        <g id="VHR-Icons" transform="translate(-430.000000, -142.000000)">
            <g id="Icon/VHR-icon/color/ico_minorAccident" transform="translate(430.000000, 142.000000)">
                <mask id="mask-2" fill="white">
                    <use xlink:href="#path-1"></use>
                </mask>
                <g id="Rectangle-8"></g>
                <g id="ico_minorAccident" stroke-width="1" fill-rule="evenodd" mask="url(#mask-2)">
                    <g transform="translate(2.666667, 2.666667)">
                        <path d="M8.30379747,6.50936709 C8.30379747,6.50936709 2.73012658,2.32101266 1.62025316,1.48253165 C1.11492243,1.07367325 0.572478297,0.712947902 0,0.405063291 L5.79002388e-16,2.46278481 C5.79002388e-16,2.46278481 3.05012658,4.80405063 3.53620253,5.1564557 C4.02227848,5.50886076 4.27746835,5.93822785 4.01417722,6.56202532 C3.85129352,6.92658722 3.48578341,7.15802376 3.08658228,7.14936709 L0,7.14936709 L0,20.4394937 L4.08708861,20.4394937 C4.19439528,21.9580175 4.92801311,23.3636293 6.11240506,24.32 C7.09488818,25.1215153 8.32810593,25.5517075 9.59594937,25.5351899 C10.8322504,25.5369652 12.0338473,25.1264553 13.0106329,24.3686076 C14.2177167,23.4264716 14.9756105,22.0223118 15.1007595,20.4962025 L20.6582278,20.0020253 C21.2739362,19.982117 21.8000176,19.5522902 21.9422785,18.9529114 C22.0753189,18.3001981 22.1270203,17.6335219 22.0962025,16.9681013 C22.0962025,16.563038 21.2658228,16.5306329 21.2658228,16.5306329 C21.327335,14.6586354 20.9961785,12.7945002 20.2936709,11.0582278 C20.2936709,11.0582278 20.0668354,10.5802532 18.6734177,9.87139241 C17.2337242,9.18378606 15.7442779,8.60561011 14.2177215,8.14177215 C12.9093671,7.72050633 10.4668354,7.0156962 8.30379747,6.50936709 Z" id="Shape" fill="#FFFFFF" fill-rule="nonzero"></path>
                        <path d="M9.59594937,14.4810127 C6.54230407,14.4810127 4.06683544,16.9564813 4.06683544,20.0101266 C4.06683544,23.0637719 6.54230407,25.5392405 9.59594937,25.5392405 C12.6495947,25.5392405 15.1250633,23.0637719 15.1250633,20.0101266 C15.1250633,18.5437144 14.5425333,17.1373626 13.5056233,16.1004526 C12.4687133,15.0635426 11.0623616,14.4810127 9.59594937,14.4810127 L9.59594937,14.4810127 Z M9.59594937,23.3235443 C8.25342286,23.3251825 7.04225495,22.5175084 6.52773524,21.2774884 C6.01321554,20.0374684 6.29678653,18.6095844 7.24609683,17.660274 C8.19540714,16.7109637 9.62329116,16.4273928 10.8633112,16.9419125 C12.1033311,17.4564322 12.9110053,18.6676001 12.9093671,20.0101266 C12.9071412,21.8375734 11.4274427,23.319083 9.6,23.3235443 L9.59594937,23.3235443 Z" id="Shape" fill="#080808" fill-rule="nonzero"></path>
                        <path d="M21.2577215,16.5306329 C21.2577215,16.4577215 21.2577215,16.3848101 21.2577215,16.3118987 C21.269925,15.2957243 21.1721407,14.2812124 20.9660759,13.2860759 C20.813749,12.5231854 20.5871856,11.7770187 20.2896203,11.0582278 C19.9736709,10.5681013 19.1311392,10.0577215 18.0374684,9.55949367 C17.4987342,9.3164557 16.8992405,9.07341772 16.2673418,8.84253165 C13.6548888,7.92784318 10.9968134,7.14907848 8.30379747,6.50936709 L0.93164557,0.964050633 C0.6360402,0.75387823 0.324554647,0.566986898 0,0.405063291 L0,2.46278481 L3.71037975,5.29822785 C4.05967533,5.56732426 4.199638,6.02847833 4.05883259,6.44632295 C3.91802719,6.86416756 3.52750449,7.14655851 3.08658228,7.14936709 L0,7.14936709 L0,20.4394937 L3.32962025,20.4394937 C3.32962025,20.2936709 3.30936709,20.1478481 3.30936709,20.0020253 C3.30703654,17.2886198 5.04264916,14.8786767 7.61690457,14.020898 C10.19116,13.1631194 13.0254258,14.0503136 14.6511392,16.2227848 C14.7159494,16.3078481 14.7807595,16.3888608 14.8374684,16.4739241 C15.5430149,17.5151817 15.919777,18.7442444 15.9189873,20.0020253 C15.9189873,20.1437975 15.9189873,20.2855696 15.8946835,20.4070886 C18.3979747,20.16 20.4637975,20.0465823 20.8729114,19.9453165 C21.9260759,19.6779747 22.0881013,18.9731646 22.0881013,16.9478481 C22.0881013,16.9681013 22.1367089,16.6075949 21.2577215,16.5306329 Z" id="Shape" fill="url(#linearGradient-3)" fill-rule="nonzero"></path>
                        <path d="M8.75341772,11.0703797 C5.26582278,8.82632911 2.07797468,8.80202532 0,9.19493671 L0,20.4394937 L3.32962025,20.4394937 C3.32962025,20.2936709 3.30936709,20.1478481 3.30936709,20.0020253 C3.30703654,17.2886198 5.04264916,14.8786767 7.61690457,14.020898 C10.19116,13.1631194 13.0254258,14.0503136 14.6511392,16.2227848 C14.7159494,16.3078481 14.7807595,16.3888608 14.8374684,16.4739241 C15.5430149,17.5151817 15.919777,18.7442444 15.9189873,20.0020253 C15.9189873,20.1437975 15.9189873,20.2855696 15.8946835,20.4070886 C18.3979747,20.16 20.4637975,20.0465823 20.8729114,19.9453165 C21.9260759,19.6779747 22.0881013,18.9731646 22.0881013,16.9478481 C22.0881013,16.9478481 22.1367089,16.5670886 21.2577215,16.5103797 C21.2577215,16.4374684 21.2577215,16.364557 21.2577215,16.2916456 C21.269925,15.2754712 21.1721407,14.2609593 20.9660759,13.2658228 C20.8891139,12.8972152 20.8040506,12.5691139 20.7189873,12.2774684 C18.0860759,13.0227848 13.0470886,13.8167089 8.75341772,11.0703797 Z" id="Shape" fill="url(#linearGradient-4)" fill-rule="nonzero" opacity="0.35" style="mix-blend-mode: screen;"></path>
                        <path d="M19.1797468,14.3513924 C18.2805063,14.3108861 16.9559494,14.1934177 16.3443038,13.8288608 C16.1926719,13.7368321 16.0560607,13.6220788 15.9392405,13.4886076 C15.5332085,13.0006496 15.2027714,12.4544725 14.9589873,11.8683544 C14.6576218,11.2717282 14.4903406,10.6164282 14.4688608,9.94835443 C14.4931646,9.79848101 14.5498734,9.70531646 14.6592405,9.70531646 L14.9225316,9.78632911 C15.6718987,10.0172152 16.32,10.2481013 16.8587342,10.4668354 C18.195443,11.0055696 18.8840506,11.4713924 19.0541772,11.7306329 C19.2380268,12.0828743 19.3612678,12.4635521 19.4187342,12.8567089 C19.4835443,13.2050633 19.5321519,13.5655696 19.5848101,13.8653165 C19.6094528,13.9859116 19.5779244,14.1111692 19.499126,14.2057273 C19.4203275,14.3002855 19.3028088,14.3538844 19.1797468,14.3513924 Z" id="Shape" fill="#FFFFFF" fill-rule="nonzero"></path>
                        <path d="M24.7939241,10.5316456 C24.8691773,10.5117608 24.9413937,10.4817841 25.0086076,10.4425316 C25.1620864,10.3458837 25.2822518,10.2045126 25.3529114,10.0374684 C25.4055696,9.89974684 25.4582278,9.76202532 25.5027848,9.63240506 C25.6047183,9.32524519 25.6845839,9.0111973 25.7417722,8.69265823 C25.7660759,8.56708861 25.7903797,8.43746835 25.8065823,8.3078481 C25.8260514,8.12958116 25.7892237,7.94969174 25.7012658,7.79341772 C25.6650593,7.72362742 25.6171006,7.66059601 25.5594937,7.60708861 L25.4865823,7.55443038 C25.449508,7.52890716 25.408439,7.50974162 25.3650633,7.49772152 C25.0531646,7.41265823 24.8951899,7.3721519 24.5792405,7.29518987 C22.7078481,6.89012658 20.7959494,6.65518987 18.9448101,6.17316456 L18.4182278,6.03139241 C18.316962,5.99898734 18.118481,5.92202532 17.9726582,6.22987342 C17.9726582,6.22987342 17.9726582,6.22987342 17.9726582,6.22987342 L17.4177215,6.07594937 C17.6353372,3.35558447 15.7385476,0.919746389 13.0477936,0.464131877 C10.3570396,0.00851736512 7.7640757,1.68412363 7.0739811,4.32448557 C6.38388651,6.96484751 7.82536844,9.69491119 10.3949463,10.6141561 C12.9645242,11.5334011 15.8106029,10.3371763 16.9518987,7.85822785 L17.5189873,8.00405063 C17.4906329,8.36050633 17.7053165,8.38886076 17.8065823,8.40911392 L18.3372152,8.53873418 C20.1883544,9.02481013 21.9827848,9.75392405 23.801519,10.3088608 C24.1174684,10.3979747 24.2713924,10.438481 24.5873418,10.5194937 C24.6271899,10.5285531 24.6680078,10.5326349 24.7088608,10.5316456 C24.7370856,10.53548 24.7656993,10.53548 24.7939241,10.5316456 Z M15.5949367,3.64556962 C16.7066047,5.54031398 16.0718387,7.97749086 14.1771304,9.08922043 C12.2824222,10.20095 9.8452247,9.56626315 8.73343356,7.67159103 C7.62164243,5.77691892 8.25625008,3.3397008 10.1508861,2.2278481 C12.046028,1.11828773 14.4817089,1.75257962 15.5949367,3.64556962 Z" id="Shape" fill="#353635" fill-rule="nonzero"></path>
                        <path d="M12.2086076,5.77620253 C13.5250633,5.39544304 15.5017722,4.8243038 15.7043038,3.8278481 C14.8248886,2.15691964 12.8928174,1.33342119 11.0784008,1.85616931 C9.26398429,2.37891743 8.06622204,4.10414628 8.21063291,5.98683544 C8.91139241,6.72405063 10.8921519,6.15696203 12.2086076,5.77620253 Z" id="Shape" fill="#FFFFFF" fill-rule="nonzero" opacity="0.25" style="mix-blend-mode: luminosity;"></path>
                        <path d="M8.35257504,6.78064255 C8.96218081,8.89350472 11.1691616,10.1121498 13.2820337,9.50257866 C15.3949059,8.89300751 16.6135872,6.68604671 16.0040506,4.57316456 C15.7113281,3.55847843 15.0275001,2.70164124 14.10301,2.19115863 C13.1785199,1.68067601 12.0891021,1.55836681 11.0744304,1.85113924 C8.9615782,2.46077963 7.74296926,4.66778038 8.35257504,6.78064255 Z" id="Shape" fill="url(#radialGradient-5)" fill-rule="nonzero" style="mix-blend-mode: multiply;"></path>
                        <rect id="Rectangle-path" fill="none" x="0" y="0.405063291" width="25.8389873" height="25.8389873"></rect>
                    </g>
                </g>
            </g>
        </g>
    </g>
</svg>