<?xml version="1.0" encoding="UTF-8"?>
<svg width="32px" height="32px" viewBox="0 0 32 32" version="1.1" xmlns="http://www.w3.org/2000/svg" xmlns:xlink="http://www.w3.org/1999/xlink">
    <!-- Generator: Sketch 53 (72520) - https://sketchapp.com -->
    <title>ico_brandedTitle</title>
    <desc>Created with Sketch.</desc>
    <defs>
        <rect id="path-1" x="0" y="0" width="32" height="32"></rect>
        <linearGradient x1="50.0127845%" y1="67.7031411%" x2="50.0127845%" y2="17.5395325%" id="linearGradient-3">
            <stop stop-color="#F04D25" offset="0%"></stop>
            <stop stop-color="#971F21" offset="100%"></stop>
        </linearGradient>
    </defs>
    <g id="Page-1" stroke="none" stroke-width="1" fill="none" fill-rule="evenodd">
        <g id="VHR-Icons" transform="translate(-150.000000, -142.000000)">
            <g id="Icon/VHR-icon/color/ico_brandedTitle" transform="translate(150.000000, 142.000000)">
                <mask id="mask-2" fill="white">
                    <use xlink:href="#path-1"></use>
                </mask>
                <g id="Rectangle-8"></g>
                <g id="ico_brandedTitle" stroke-width="1" fill-rule="evenodd" mask="url(#mask-2)">
                    <g transform="translate(2.666667, 4.000000)">
                        <path d="M13.1793427,24 L13.1793427,23.0704762 C13.9544371,23.0744554 14.6717638,22.6553727 15.057277,21.9733333 L15.057277,21.9733333 C15.5117371,21.1847619 24.5032864,5.42095238 25.1643192,4.19047619 L25.1643192,4.19047619 C25.3475663,3.8545595 25.444443,3.47723859 25.4460094,3.09333333 L25.4460094,3.09333333 C25.4522435,2.70361717 25.3549433,2.31938335 25.1643192,1.98095238 L25.1643192,1.98095238 C24.9767272,1.66125549 24.708313,1.39821331 24.3868545,1.21904762 L24.3868545,1.21904762 C24.0517217,1.02512333 23.6722162,0.923965054 23.286385,0.925714286 L3.09859155,0.925714286 C2.32616854,0.931839993 1.61344782,1.3482318 1.22065728,2.02285714 L1.22065728,2.02285714 C1.03448943,2.3494578 0.936063896,2.71988562 0.935211268,3.09714286 L0.935211268,3.09714286 L0.935211268,3.13142857 L0.935211268,3.13142857 C0.944619233,3.52712183 1.05319349,3.91387146 1.25070423,4.2552381 L1.25070423,4.2552381 C1.66760563,4.99809524 10.4638498,20.4457143 11.3314554,21.9657143 L11.3314554,21.9657143 C11.7075705,22.6470678 12.4169719,23.0694674 13.1868545,23.0704762 L13.1868545,23.0704762 L13.1868545,24 L13.1868545,24 C12.0971473,23.9901516 11.0952062,23.3920132 10.5577465,22.4304762 L10.5577465,22.4304762 C9.68638498,20.9066667 0.893896714,5.46666667 0.473239437,4.71619048 L0.473239437,4.71619048 C0.188274298,4.2471009 0.025437581,3.71228752 3.56105338e-16,3.16190476 L0,3.16190476 L0,3.09714286 L0,3.09714286 C0.0039959347,2.56180909 0.145068716,2.03671512 0.409389671,1.57333333 L0.409389671,1.57333333 C0.965147406,0.600118946 1.98975424,0.000666708424 3.09859155,-1.00830802e-16 L23.286385,-1.00830802e-16 C23.8108846,-0.00403418618 24.3278103,0.127043383 24.7887324,0.380952381 L24.7887324,0.380952381 C25.2554887,0.644777339 25.6444383,1.03007823 25.915493,1.49714286 L25.915493,1.49714286 C26.2065499,1.9817027 26.3623338,2.537369 26.3661972,3.1047619 L26.3661972,3.1047619 C26.3704039,3.64405234 26.2412736,4.17581078 25.9906103,4.65142857 L25.9906103,4.65142857 C25.3070423,5.90095238 16.3305164,21.6380952 15.8497653,22.4457143 L15.8497653,22.4457143 C15.3013089,23.4108335 14.2851216,24.0039609 13.1868545,24 L13.1868545,24 L13.1793427,24 Z" id="Shape" fill="#020202" fill-rule="nonzero"></path>
                        <path d="M14.6892019,21.7561905 C15.1511737,20.952381 24.1276995,5.22285714 24.7887324,3.99238095 C24.939495,3.72158224 25.0184344,3.41575224 25.0178404,3.1047619 C25.0208357,2.78743311 24.941846,2.47484134 24.7887324,2.19809524 C24.4769493,1.66086685 23.9006627,1.33938126 23.286385,1.36 L3.09859155,1.36 C2.47048585,1.35845523 1.88867244,1.69484099 1.56995305,2.24380952 C1.25437298,2.80212579 1.26590832,3.49097137 1.6,4.03809524 C2.02065728,4.8 10.8131455,20.2285714 11.6807512,21.752381 C11.9852327,22.3032437 12.5604737,22.6431084 13.1830986,22.64 C13.8047999,22.6396485 14.3790227,22.3026839 14.6892019,21.7561905 Z" id="Shape" fill="#C0292D" fill-rule="evenodd"></path>
                        <path d="M13.1793427,22.8571429 L13.1793427,22.8571429 C12.4797006,22.8543394 11.8349838,22.4721554 11.4892019,21.8552381 L11.4892019,21.8552381 C10.6215962,20.3314286 1.82910798,4.89142857 1.4084507,4.14095238 L1.4084507,4.14095238 C1.22750228,3.82342431 1.13047237,3.46387766 1.12676056,3.09714286 L1.12676056,3.09714286 C1.12572227,2.75562392 1.21523148,2.42010338 1.38591549,2.12571429 L1.38591549,2.12571429 C1.74662233,1.51534801 2.39699658,1.14211632 3.09859155,1.14285714 L23.286385,1.14285714 C23.9745845,1.12921386 24.6164724,1.49334011 24.9652582,2.0952381 L24.9652582,2.0952381 C25.1458411,2.40560299 25.2405596,2.75962016 25.2394366,3.12 L25.2394366,3.12 C25.238556,3.47041655 25.1507245,3.8149707 24.9840376,4.12190476 L24.9840376,4.12190476 C24.3230047,5.33333333 15.3502347,21.0704762 14.884507,21.8742857 L14.884507,21.8742857 C14.5296864,22.4851095 13.8820715,22.8592189 13.1830986,22.8571429 L13.1830986,22.8571429 L13.1793427,22.8571429 Z M1.76525822,2.35809524 C1.63601873,2.58241779 1.56735861,2.83733005 1.56619718,3.09714286 L1.56619718,3.09714286 C1.5703285,3.38822725 1.64930115,3.67317613 1.79530516,3.92380952 L1.79530516,3.92380952 L11.8760563,21.6342857 L11.8760563,21.6342857 C12.1434766,22.1040959 12.6369871,22.394276 13.171831,22.3961905 L13.171831,22.3961905 C13.7120399,22.3997315 14.2125303,22.1088202 14.4826291,21.6342857 L14.4826291,21.6342857 C14.9446009,20.8419048 23.9211268,5.10095238 24.5896714,3.87809524 L24.5896714,3.87809524 C24.7168917,3.64463712 24.7852716,3.38291339 24.7887324,3.11619048 L24.7887324,3.11619048 C24.788837,2.83906223 24.7162445,2.56689562 24.5784038,2.32761905 L24.5784038,2.32761905 C24.3148266,1.85914995 23.8179385,1.57639007 23.286385,1.59238095 L3.09483568,1.59238095 C2.55035209,1.59140353 2.04542897,1.88074607 1.76525822,2.35428571 L1.76525822,2.35809524 Z" id="Shape" fill="#FFFFFF" fill-rule="nonzero"></path>
                        <path d="M21.7239437,8.17142857 C18.4638498,8.35428571 16.1539906,9.55428571 13.2657277,10.727619 C11.286385,11.5352381 9.2056338,12.2209524 7.03474178,12.2514286 L11.9962441,21.2952381 C11.9962441,21.2952381 12.8375587,22.96 14.2159624,21.607619 L21.7239437,8.17142857 Z" id="Shape" fill="url(#linearGradient-3)" fill-rule="nonzero"></path>
                        <g id="Group" opacity="0.4" stroke-width="1" fill="none" fill-rule="evenodd" transform="translate(11.643192, 4.952381)">
                            <path d="M2.62910798,11.4590476 C2.62910798,12.0902302 2.12464009,12.6019048 1.50234742,12.6019048 C0.880054742,12.6019048 0.375586854,12.0902302 0.375586854,11.4590476 C0.375586854,10.827865 0.880054742,10.3161905 1.50234742,10.3161905 C2.12464009,10.3161905 2.62910798,10.827865 2.62910798,11.4590476 Z" id="Shape" fill="#000000" fill-rule="nonzero"></path>
                            <path d="M2.41877934,0.518095238 C2.20722888,0.218130196 1.8659624,0.0401500717 1.50234742,0.0401500717 C1.13873244,0.0401500717 0.797465953,0.218130196 0.585915493,0.518095238 C0.356470952,0.975767155 0.252685398,1.4876338 0.285446009,2 C0.287709595,2.85890785 0.332837762,3.71714889 0.420657277,4.57142857 C0.420657277,4.69714286 0.446948357,4.82666667 0.461971831,4.95238095 C0.507042254,5.35238095 0.559624413,5.76 0.61971831,6.18285714 C0.679812207,6.60571429 0.751173709,7.01333333 0.82629108,7.44380952 C0.848826291,7.55428571 0.875117371,7.70666667 0.908920188,7.90095238 C1.0629108,8.80761905 1.26197183,9.26095238 1.50234742,9.26095238 C1.742723,9.26095238 1.9943662,8.57904762 2.21971831,7.21904762 C2.24225352,7.09714286 2.25352113,6.99809524 2.26478873,6.92952381 C2.27605634,6.86095238 2.26478873,6.89142857 2.26478873,6.87238095 C2.31737089,6.55619048 2.36995305,6.24761905 2.41126761,5.93904762 C2.48638498,5.40571429 2.55023474,4.88380952 2.59530516,4.36952381 C2.67543036,3.55174603 2.714241,2.76698413 2.71173709,2.0152381 C2.74955658,1.49848999 2.6483002,0.981025426 2.41877934,0.518095238 Z" id="Shape" fill="#020202" fill-rule="nonzero"></path>
                        </g>
                        <path d="M14.2723005,16.2361905 C14.2799243,16.7000881 14.0102843,17.1226255 13.5899039,17.3055353 C13.1695235,17.488445 12.6818361,17.3954247 12.3556796,17.0701223 C12.029523,16.7448199 11.9296299,16.2517987 12.1028733,15.8223992 C12.2761166,15.3929997 12.6881125,15.1124454 13.1455399,15.112381 C13.760572,15.1122943 14.2620499,15.6124589 14.2723005,16.2361905 Z" id="Shape" fill="#FFFFFF" fill-rule="nonzero"></path>
                        <path d="M14.0619718,5.29904762 C13.8504214,4.99908258 13.5091549,4.82110245 13.1455399,4.82110245 C12.7819249,4.82110245 12.4406584,4.99908258 12.229108,5.29904762 C11.9990881,5.75514783 11.8952502,6.26595581 11.9286385,6.77714286 C11.9313121,7.63097009 11.9764399,8.48411725 12.0638498,9.33333333 C12.0638498,9.45904762 12.0901408,9.58857143 12.1051643,9.71428571 C12.1502347,10.1142857 12.2028169,10.5257143 12.2629108,10.9447619 C12.3230047,11.3638095 12.3943662,11.7752381 12.4694836,12.1904762 C12.4920188,12.3009524 12.5183099,12.4533333 12.5521127,12.647619 C12.7061033,13.5542857 12.9051643,14.007619 13.1455399,14.007619 C13.3859155,14.007619 13.6375587,13.3257143 13.8629108,11.9657143 C13.885446,11.8438095 13.8967136,11.7485714 13.9079812,11.6761905 C13.9192488,11.6038095 13.9079812,11.6380952 13.9079812,11.6190476 C13.9605634,11.3028571 14.0131455,10.9942857 14.0544601,10.6895238 C14.1295775,10.152381 14.1934272,9.63047619 14.2384977,9.11619048 C14.3186228,8.2984127 14.3574335,7.51365079 14.3549296,6.76190476 C14.387904,6.25649444 14.2867428,5.75135548 14.0619718,5.29904762 Z" id="Shape" fill="#FFFFFF" fill-rule="nonzero"></path>
                        <path d="M13.1755869,21.7485714 C12.8699501,21.7452751 12.5898892,21.574838 12.4431925,21.3028571 C11.5755869,19.7828571 2.78685446,4.34285714 2.36619718,3.59238095 C2.19085859,3.32242931 2.17783509,2.97604555 2.33239437,2.69333333 C2.49002077,2.42410844 2.7748717,2.25797931 3.08356808,2.2552381 L23.286385,2.2552381 C23.5940247,2.2340896 23.8862632,2.39415279 24.0375587,2.66666667 C24.1164964,2.80431518 24.1579729,2.96075954 24.1577465,3.12 C24.1539068,3.27384885 24.1126188,3.42434736 24.0375587,3.55809524 C23.3652582,4.7847619 14.4037559,20.5028571 13.941784,21.3028571 C13.7888529,21.5778484 13.5018864,21.7481221 13.1906103,21.7485714 L13.1755869,21.7485714 Z M13.1755869,22.1066667 L13.1755869,22.1066667 C13.6121795,22.1083145 14.0150941,21.8689503 14.22723,21.4819048 C14.6967136,20.6857143 23.6619718,4.95238095 24.3342723,3.73333333 C24.4401829,3.54125173 24.4957863,3.32484184 24.4957746,3.1047619 C24.497198,2.88229903 24.4387623,2.66365678 24.3267606,2.47238095 C24.1133933,2.09916856 23.7110062,1.87962996 23.286385,1.9047619 L3.09859155,1.9047619 C2.66143501,1.90106169 2.25468825,2.13122531 2.02816901,2.51047619 C1.80720803,2.90400983 1.81876907,3.38918158 2.05821596,3.77142857 C2.47887324,4.52190476 11.2676056,19.9619048 12.1389671,21.4819048 C12.3502246,21.8609501 12.7463009,22.0952953 13.1755869,22.0952381 L13.1755869,22.0952381 L13.1755869,22.1066667 Z" id="Shape" fill="#F04D25" fill-rule="nonzero"></path>
                    </g>
                </g>
            </g>
        </g>
    </g>
</svg>