<svg xmlns="http://www.w3.org/2000/svg" xmlns:xlink="http://www.w3.org/1999/xlink" viewBox="0 0 25.06 32"><defs><style>.cls-1{fill:#faae40;}.cls-2{fill:#6c9c40;}.cls-3{fill:url(#Icon_Gradient);}</style><linearGradient id="Icon_Gradient" x1="7.83" y1="16.99" x2="11.78" y2="26.23" gradientUnits="userSpaceOnUse"><stop offset="0" stop-color="#fff" stop-opacity="0.6"/><stop offset="1" stop-color="#aeaeae" stop-opacity="0"/></linearGradient></defs><title>Asset 1</title><g id="Layer_2" data-name="Layer 2"><g id="Layer_1-2" data-name="Layer 1"><path class="cls-1" d="M4.55,8a8,8,0,1,0,8-8A8,8,0,0,0,4.55,8Z"/><path class="cls-2" d="M0,32s0-4.8,0-6.7a6.69,6.69,0,0,1,6.67-6.67H18.37A6.69,6.69,0,0,1,25,25.3c0,2.14,0,6.7,0,6.7Z"/><path class="cls-3" d="M12.07,29.28c4.61-1.9,8.85-4.88,12.55-6.31a6.7,6.7,0,0,0-6.25-4.34H6.69A6.69,6.69,0,0,0,0,25.3C0,27.2,0,32,0,32H.23A49.54,49.54,0,0,0,12.07,29.28Z"/></g></g></svg>