<?xml version="1.0" encoding="UTF-8"?>
<svg width="32px" height="32px" viewBox="0 0 32 32" version="1.1" xmlns="http://www.w3.org/2000/svg" xmlns:xlink="http://www.w3.org/1999/xlink">
    <!-- Generator: Sketch 53 (72520) - https://sketchapp.com -->
    <title>ico_service</title>
    <desc>Created with Sketch.</desc>
    <defs>
        <rect id="path-1" x="0" y="0" width="32" height="32"></rect>
        <linearGradient x1="82.893439%" y1="-46.9558578%" x2="51.6695017%" y2="46.2842603%" id="linearGradient-3">
            <stop stop-color="#A1A3A6" offset="10%"></stop>
            <stop stop-color="#BCBEBF" offset="20%"></stop>
            <stop stop-color="#D2D2D3" offset="32%"></stop>
            <stop stop-color="#DFDFDF" offset="43%"></stop>
            <stop stop-color="#E3E3E3" offset="53%"></stop>
            <stop stop-color="#DCDCDC" offset="54%"></stop>
            <stop stop-color="#ADAEAF" offset="61%"></stop>
            <stop stop-color="#8B8D8E" offset="68%"></stop>
            <stop stop-color="#77787A" offset="73%"></stop>
            <stop stop-color="#6F7173" offset="77%"></stop>
        </linearGradient>
        <linearGradient x1="60.5880691%" y1="25.5824674%" x2="12.0627168%" y2="165.830894%" id="linearGradient-4">
            <stop stop-color="#6D6E71" offset="10%"></stop>
            <stop stop-color="#7E7F82" offset="15%"></stop>
            <stop stop-color="#AAAAAB" offset="27%"></stop>
            <stop stop-color="#C9C9CA" offset="37%"></stop>
            <stop stop-color="#DCDCDC" offset="46%"></stop>
            <stop stop-color="#E3E3E3" offset="53%"></stop>
            <stop stop-color="#CBCCCD" offset="61%"></stop>
            <stop stop-color="#B7B8BB" offset="70%"></stop>
            <stop stop-color="#AFB1B4" offset="76%"></stop>
        </linearGradient>
        <linearGradient x1="64.640762%" y1="31.3308417%" x2="-2.48196073%" y2="116.965191%" id="linearGradient-5">
            <stop stop-color="#BCBEC0" offset="0%"></stop>
            <stop stop-color="#B3B5B7" offset="13%"></stop>
            <stop stop-color="#9B9C9E" offset="35%"></stop>
            <stop stop-color="#747476" offset="62%"></stop>
            <stop stop-color="#3F3D3E" offset="94%"></stop>
            <stop stop-color="#333132" offset="100%"></stop>
        </linearGradient>
        <linearGradient x1="8.70200904%" y1="6.16016107%" x2="89.3132578%" y2="93.2521069%" id="linearGradient-6">
            <stop stop-color="#8DC63F" offset="0%"></stop>
            <stop stop-color="#69AF3F" offset="28%"></stop>
            <stop stop-color="#4C9C3E" offset="57%"></stop>
            <stop stop-color="#3A903E" offset="82%"></stop>
            <stop stop-color="#348C3E" offset="100%"></stop>
        </linearGradient>
        <linearGradient x1="57.8067163%" y1="42.2583416%" x2="42.1970458%" y2="57.7683625%" id="linearGradient-7">
            <stop stop-color="#F1EFEF" offset="10%"></stop>
            <stop stop-color="#FFFFFF" offset="53%"></stop>
            <stop stop-color="#E7E5E5" offset="72%"></stop>
        </linearGradient>
        <linearGradient x1="821%" y1="-28073%" x2="777%" y2="-28073%" id="linearGradient-8">
            <stop stop-color="#F1EFEF" offset="10%"></stop>
            <stop stop-color="#FFFFFF" offset="53%"></stop>
            <stop stop-color="#E7E5E5" offset="72%"></stop>
        </linearGradient>
        <linearGradient x1="1060%" y1="-28073%" x2="1016%" y2="-28073%" id="linearGradient-9">
            <stop stop-color="#F1EFEF" offset="10%"></stop>
            <stop stop-color="#FFFFFF" offset="53%"></stop>
            <stop stop-color="#E7E5E5" offset="72%"></stop>
        </linearGradient>
        <linearGradient x1="1299%" y1="-28073%" x2="1255%" y2="-28073%" id="linearGradient-10">
            <stop stop-color="#F1EFEF" offset="10%"></stop>
            <stop stop-color="#FFFFFF" offset="53%"></stop>
            <stop stop-color="#E7E5E5" offset="72%"></stop>
        </linearGradient>
        <linearGradient x1="1538%" y1="-28073%" x2="1494%" y2="-28073%" id="linearGradient-11">
            <stop stop-color="#F1EFEF" offset="10%"></stop>
            <stop stop-color="#FFFFFF" offset="53%"></stop>
            <stop stop-color="#E7E5E5" offset="72%"></stop>
        </linearGradient>
        <linearGradient x1="53.9313866%" y1="77.5750203%" x2="32.884912%" y2="-62.8953771%" id="linearGradient-12">
            <stop stop-color="#DCDDDE" offset="0%"></stop>
            <stop stop-color="#DBDCDD" offset="0%"></stop>
            <stop stop-color="#ACADAE" offset="16%"></stop>
            <stop stop-color="#868587" offset="32%"></stop>
            <stop stop-color="#686769" offset="48%"></stop>
            <stop stop-color="#525153" offset="63%"></stop>
            <stop stop-color="#454446" offset="78%"></stop>
            <stop stop-color="#414042" offset="91%"></stop>
        </linearGradient>
    </defs>
    <g id="Page-1" stroke="none" stroke-width="1" fill="none" fill-rule="evenodd">
        <g id="VHR-Icons" transform="translate(-910.000000, -142.000000)">
            <g id="Icon/VHR-icon/color/ico_service" transform="translate(910.000000, 142.000000)">
                <mask id="mask-2" fill="white">
                    <use xlink:href="#path-1"></use>
                </mask>
                <g id="Rectangle-8"></g>
                <g id="ico_service" stroke-width="1" fill-rule="evenodd" mask="url(#mask-2)">
                    <g transform="translate(5.333333, 4.000000)" fill-rule="nonzero" id="Shape">
                        <path d="M1.46285714,20.1058065 C0.951046298,20.6739973 0.978083181,21.5531321 1.52380952,22.0877419 L1.54666667,22.1109677 C2.10099266,22.6372519 2.96769019,22.616611 3.49714286,22.0645161 L3.49714286,22.0645161 L3.49714286,22.0645161 L10.2857143,14.4812903 C10.3637028,14.6287239 10.4287176,14.7828718 10.48,14.9419355 C10.9447619,16.3393548 11.1238095,17.1754839 12.0990476,18.3367742 L15.5047619,22.3896774 C15.5047619,22.3896774 16.8266667,23.9612903 18.2933333,22.683871 L19.2914286,21.8167742 C20.7466667,20.5432258 19.4285714,18.9677419 19.4285714,18.9677419 L16.0190476,14.9187097 C15.0438095,13.7574194 14.2590476,13.4516129 12.9714286,12.7664516 C12.7104439,12.6304125 12.4735576,12.4511904 12.2704762,12.236129 L13.4742857,10.8929032 L13.1580952,10.5832258 L13.3104762,10.4129032 L13.6914286,10.8 L13.7561905,10.7225806 L13.7561905,10.7225806 C13.7561905,10.7225806 14.0190476,10.4670968 14.327619,10.1922581 C14.4838095,10.0567742 14.647619,9.91354839 14.807619,9.80516129 C14.9579983,9.68133131 15.1280537,9.58445956 15.3104762,9.51870968 C15.7984152,9.40780278 16.3044419,9.40780278 16.792381,9.51870968 C17.2566499,9.60825711 17.7349475,9.58839286 18.1904762,9.46064516 C18.6263479,9.32522955 19.0201488,9.07713496 19.3333333,8.74064516 C20.1227586,7.8213578 20.4861855,6.60214154 20.3314286,5.39225806 L18.312381,7.13806452 C18.2005967,7.23378057 18.0512556,7.27100222 17.9085714,7.23870968 L15.7980952,6.69677419 C15.6148203,6.65191064 15.476371,6.49899502 15.447619,6.30967742 L15.0361905,4.06451613 C15.0068559,3.89926012 15.0646431,3.73044223 15.1885714,3.61935484 L17.2152381,1.87354839 C16.4566039,1.52407641 15.5973466,1.47304119 14.8038095,1.73032258 C14.3047336,1.88062001 13.8529808,2.16084738 13.4933333,2.54322581 C12.9549219,3.10264615 12.6681358,3.86339879 12.7009524,4.64516129 C12.7809524,5.95741935 12.872381,6.58064516 12.7390476,7.20774194 C12.6704968,7.51146363 12.5407891,7.79746912 12.3580952,8.04774194 C12.1828571,8.28387097 11.9771429,8.52 11.6952381,8.82193548 L12.0761905,9.18967742 L11.92,9.35612903 L11.4819048,8.93032258 L11.047619,9.40258065 C10.9008078,9.20001653 10.7233754,9.0223353 10.5219048,8.87612903 C10.1409524,8.65548387 9.51619048,9.26322581 9.51619048,9.26322581 L9.08571429,9.65032258 L5.37904762,4.95096774 L4.48761905,2.87612903 L2.3047619,1.00645161 L0.979047619,2.16774194 L2.45333333,4.64516129 L4.33142857,5.86451613 L8.03809524,10.5522581 L7.60761905,10.9393548 C7.60761905,10.9393548 6.91047619,11.4890323 7.06666667,11.8877419 C7.27566258,12.2869892 7.57298456,12.6315091 7.9352381,12.8941935 L1.46285714,20.1058065 Z M1.78666667,20.1987097 C2.1367212,19.8867807 2.63800416,19.8218131 3.05390545,20.0344723 C3.46980674,20.2471314 3.7171739,20.6948997 3.67924738,21.1664263 C3.64132086,21.637953 3.32568343,22.0389643 2.88131883,22.1801792 C2.43695422,22.3213941 1.95270566,22.1745791 1.65714286,21.8090323 C1.46403296,21.5780956 1.3691799,21.2786323 1.39347379,20.9765951 C1.41776768,20.6745579 1.559216,20.3947192 1.78666667,20.1987097 L1.78666667,20.1987097 Z" fill="#BBBDBF"></path>
                        <path d="M18.7657143,23.2645161 C18.3047871,23.6933379 17.7066602,23.9380976 17.0819048,23.9535484 L17.0819048,23.9535484 C16.2515891,23.9118593 15.4740703,23.527317 14.9295238,22.8890323 L11.5047619,18.836129 L11.5047619,18.836129 C10.7946845,17.9913197 10.2746439,16.9991954 9.98095238,15.9290323 L4.07619048,22.5367742 L4.07619048,22.5367742 L4.04952381,22.5677419 L4.04952381,22.5677419 C3.64240009,23.004976 3.07617978,23.2527557 2.48380952,23.2529032 L2.48380952,23.2529032 C1.94769837,23.252842 1.43111934,23.048403 1.03619048,22.68 L1.01333333,22.68 L1.01333333,22.68 C0.577649379,22.2591891 0.334616677,21.6726767 0.342857143,21.0619355 L0.342857143,21.0619355 C0.343745329,20.5154633 0.54628776,19.9891994 0.91047619,19.5870968 L6.85714286,12.9251613 L6.85714286,12.9251613 C6.64548722,12.6979905 6.47292353,12.4362786 6.34666667,12.1509677 L6.34666667,12.1509677 C6.29832929,12.0277128 6.27251036,11.896536 6.27047619,11.763871 L6.27047619,11.763871 C6.29545358,11.3586813 6.46631271,10.9770041 6.75047619,10.6916129 L6.75047619,10.6916129 C6.83428571,10.6025806 6.91428571,10.5251613 6.9752381,10.4670968 L3.80952381,6.43741935 L1.9047619,5.19096774 L0,1.99741935 L2.3047619,0 L5.10857143,2.40387097 L6.03047619,4.55225806 L9.1847619,8.55096774 L9.1847619,8.55096774 C9.24190566,8.50244173 9.30168201,8.45720946 9.36380952,8.41548387 L9.36380952,8.41548387 C9.64787457,8.20290394 9.98679649,8.07913936 10.3390476,8.05935484 L10.3390476,8.05935484 C10.5401655,8.05860771 10.7376947,8.11346985 10.9104762,8.21806452 L10.9104762,8.21806452 L11.0171429,8.2916129 L11.4819048,7.90451613 L11.4819048,7.90451613 C11.5698538,7.80588051 11.6525131,7.70250511 11.7295238,7.59483871 L11.7295238,7.59483871 C11.8594344,7.43421453 11.953066,7.24657394 12.0038095,7.04516129 L12.0038095,7.04516129 C12.0365896,6.86513074 12.053166,6.68244074 12.0533333,6.49935484 L12.0533333,6.49935484 C12.0533333,6.11225806 12,5.54709677 11.9466667,4.70322581 L11.9466667,4.70322581 C11.9466667,4.63354839 11.9466667,4.57548387 11.9466667,4.51354839 L11.9466667,4.51354839 C11.950546,3.57910849 12.3110856,2.68264964 12.952381,2.01290323 L12.952381,2.01290323 C13.4029328,1.53193228 13.9707256,1.18068679 14.5980952,0.99483871 L14.5980952,0.99483871 C15.0073269,0.870221418 15.4318508,0.805059628 15.8590476,0.801290323 L15.8590476,0.801290323 C16.4324431,0.803533919 16.9992028,0.926094079 17.5238095,1.16129032 L18.6666667,1.64129032 L15.8095238,4.0916129 L16.1561905,5.99225806 L17.9542857,6.41032258 L20.952381,3.80903226 L21.0895238,5.27225806 L21.0895238,5.27225806 C21.1077253,5.46007221 21.1166255,5.64869726 21.1161905,5.83741935 L21.1161905,5.83741935 C21.1471324,7.08475683 20.7068242,8.29678054 19.8857143,9.22451613 L19.8857143,9.22451613 C19.4830245,9.65942705 18.9744515,9.97857281 18.4114286,10.1496774 L18.4114286,10.1496774 C18.0960557,10.2445171 17.768894,10.2927532 17.44,10.2929032 L17.44,10.2929032 C17.1925244,10.289935 16.9455627,10.2692385 16.7009524,10.2309677 L16.7009524,10.2309677 C16.4493025,10.1848303 16.1946402,10.1576595 15.9390476,10.1496774 L15.9390476,10.1496774 C15.7987548,10.1466957 15.6588071,10.1649606 15.5238095,10.203871 L15.5238095,10.203871 C15.4264221,10.2510363 15.335498,10.3108951 15.2533333,10.3819355 L15.2533333,10.3819355 C15.1314286,10.4709677 14.9790476,10.6025806 14.8342857,10.7303226 L14.8342857,10.7303226 C14.6857143,10.8619355 14.552381,10.9858065 14.4533333,11.0825806 L14.4533333,11.0825806 L14.3352381,11.1987097 L14.3352381,11.1987097 L14.3047619,11.2258065 L14.3047619,11.2258065 L14.247619,11.2877419 L13.6647619,11.8141935 L13.3942857,12.116129 L13.3942857,12.116129 C14.5904762,12.7741935 15.5428571,13.1612903 16.5904762,14.4193548 L19.9961905,18.4722581 L19.9961905,18.4722581 C20.4421616,19.0182227 20.6979763,19.698696 20.7238095,20.4077419 L20.7238095,20.4077419 C20.7136496,21.179357 20.3608057,21.9049634 19.7638095,22.3819355 L18.7657143,23.2645161 Z M11.2457143,12.243871 L12.4228571,10.9277419 L12.0990476,10.6180645 L13.2761905,9.31741935 L13.6914286,9.70451613 L13.6914286,9.70451613 C13.7447619,9.65806452 13.7942857,9.60774194 13.8514286,9.56129032 L13.8514286,9.56129032 C14.0114286,9.41806452 14.1904762,9.26322581 14.3771429,9.12387097 L14.3771429,9.12387097 C14.5930411,8.95528881 14.8350897,8.82446296 15.0933333,8.73677419 L15.0933333,8.73677419 C15.3719626,8.65505922 15.6604743,8.61336461 15.9504762,8.61290323 L15.9504762,8.61290323 C16.272363,8.62145269 16.5932105,8.65379619 16.9104762,8.70967742 L16.9104762,8.70967742 C17.0894645,8.73831897 17.2702484,8.75384289 17.4514286,8.75612903 L17.4514286,8.75612903 C17.6370825,8.75859428 17.8220343,8.73249221 18,8.67870968 L18,8.67870968 C18.3091559,8.58041647 18.5875955,8.40158297 18.807619,8.16 L18.807619,8.16 C19.0645773,7.87804547 19.2628287,7.54624707 19.3904762,7.18451613 L18.8228571,7.67612903 L18.8228571,7.67612903 C18.6016053,7.86689391 18.3206429,7.97120903 18.0304762,7.97032258 L18.0304762,7.97032258 C17.9408015,7.96893463 17.8514801,7.95856183 17.7638095,7.93935484 L15.6190476,7.44387097 L15.6190476,7.44387097 C15.1501125,7.33055455 14.791411,6.9463245 14.7047619,6.46451613 L14.2933333,4.20387097 L14.2933333,4.20387097 C14.2798363,4.12983667 14.273457,4.05464403 14.2742857,3.97935484 L14.2742857,3.97935484 C14.2737942,3.61517198 14.4295906,3.26887036 14.7009524,3.03096774 L15.4628571,2.36516129 L15.4628571,2.36516129 C15.304715,2.39025633 15.1482321,2.42516026 14.9942857,2.46967742 L14.9942857,2.46967742 C14.6247421,2.58019127 14.2907828,2.78860835 14.0266667,3.07354839 L14.0266667,3.07354839 C13.6570511,3.45524794 13.4456941,3.96652962 13.4361905,4.50193548 L13.4361905,4.50193548 C13.4343627,4.53545817 13.4343627,4.56905796 13.4361905,4.60258065 L13.4361905,4.60258065 C13.4857143,5.41548387 13.5428571,5.96903226 13.5428571,6.48774194 L13.5428571,6.48774194 C13.5508538,6.77827257 13.5291502,7.06886195 13.4780952,7.35483871 L13.4780952,7.35483871 C13.3876825,7.77605104 13.2083094,8.17228193 12.952381,8.51612903 L12.952381,8.51612903 C12.8838095,8.61290323 12.8114286,8.70580645 12.7352381,8.79870968 L13.1161905,9.18580645 L11.9352381,10.4516129 L11.4971429,10.0296774 L10.9980952,10.5909677 L10.4457143,9.87096774 L10.4457143,9.87096774 C10.3879703,9.79362681 10.325632,9.71994128 10.2590476,9.65032258 L10.2590476,9.65032258 L10.1752381,9.7083871 L10.1752381,9.7083871 L10.0647619,9.79741935 L10.0647619,9.79741935 L10.0304762,9.8283871 L9.08571429,10.6490323 L9.08571429,10.6490323 L8.09904762,11.5045161 L8.09904762,11.5045161 L8.01904762,11.5741935 L8.01904762,11.5741935 C7.96327423,11.6231877 7.91107363,11.6762303 7.86285714,11.7329032 L7.86285714,11.7329032 C8.01285577,11.9311706 8.18693619,12.1093594 8.38095238,12.2632258 L9.05142857,12.7741935 L8.49142857,13.3935484 L7.9352381,12.8748387 L7.48190476,13.4941935 L7.9352381,12.8748387 L8.49142857,13.3935484 L3.21142857,19.2967742 L3.21142857,19.2967742 C3.49648325,19.4098075 3.74921929,19.593435 3.94666667,19.8309677 L3.94666667,19.8309677 C4.03055636,19.9317896 4.10455819,20.0406933 4.16761905,20.156129 L10.4266667,13.1612903 L10.9333333,14.1212903 L10.9333333,14.1212903 C11.0309278,14.3100145 11.1124936,14.5068578 11.1771429,14.7096774 L11.1771429,14.7096774 C11.6647619,16.1729032 11.7828571,16.8077419 12.6552381,17.8529032 L16.0609524,21.9058065 L16.0609524,21.9058065 L16.0609524,21.9058065 L16.0609524,21.9058065 C16.3205595,22.1962149 16.6753685,22.380609 17.0590476,22.4245161 L17.0590476,22.4245161 C17.3283557,22.4130581 17.5837561,22.2998633 17.7752381,22.1070968 L18.7771429,21.24 L18.7771429,21.24 C19.0396403,21.0557337 19.1996269,20.7550567 19.207619,20.4309677 L19.207619,20.4309677 C19.2109078,20.19141 19.1559487,19.9547315 19.047619,19.7419355 L19.047619,19.7419355 C19.0078339,19.66434 18.9633022,19.5893543 18.9142857,19.5174194 L18.9142857,19.5174194 L18.8685714,19.4593548 L15.4438095,15.4141935 L15.4438095,15.4141935 C14.5638095,14.3767742 13.9619048,14.163871 12.6247619,13.443871 L12.6247619,13.443871 C12.288896,13.2738135 11.9836626,13.0474123 11.7219048,12.7741935 L11.2457143,12.2554839 L11.2457143,12.243871 Z M2.79619048,20.8296774 C2.72752445,20.7431285 2.62368829,20.6932246 2.51428571,20.6941935 L2.51428571,20.6941935 C2.42658489,20.6949139 2.34181469,20.7263609 2.27428571,20.7832258 L2.28571429,20.7832258 C2.20591259,20.85641 2.16025408,20.9604471 2.16,21.0696774 L2.16,21.0696774 C2.16070894,21.1587928 2.19165679,21.2449302 2.24761905,21.3135484 L2.24761905,21.3135484 C2.31659232,21.3965963 2.41879309,21.4435418 2.52571429,21.4412903 L2.52571429,21.4412903 C2.61295057,21.4416635 2.69767015,21.4116017 2.76571429,21.356129 L2.76571429,21.356129 C2.84692893,21.2836422 2.89401425,21.1795095 2.8952381,21.0696774 L2.8952381,21.0696774 C2.89595432,20.9814715 2.86477532,20.8960682 2.80761905,20.8296774 L2.79619048,20.8296774 Z M3.86666667,3.3483871 L2.30857143,2.01290323 L1.95428571,2.32258065 L3.01333333,4.09548387 L4.64,5.1483871 L3.87809524,3.35225806 L3.86666667,3.3483871 Z" fill="#A7A9AC"></path>
                        <path d="M11.8095238,8.65935484 L1.46285714,20.1058065 C0.951046298,20.6739973 0.978083181,21.5531321 1.52380952,22.0877419 L1.54666667,22.1109677 C2.10099266,22.6372519 2.96769019,22.616611 3.49714286,22.0645161 L3.49714286,22.0645161 L3.49714286,22.0645161 L13.7752381,10.683871 L11.8095238,8.65935484 Z" fill="url(#linearGradient-3)"></path>
                        <path d="M12.7390476,7.20387097 C12.872381,6.58064516 12.7809524,5.95354839 12.7009524,4.64129032 C12.6692001,3.86085241 12.955907,3.10171051 13.4933333,2.54322581 C13.8529808,2.16084738 14.3047336,1.88062001 14.8038095,1.73032258 C15.5973466,1.47304119 16.4566039,1.52407641 17.2152381,1.87354839 L15.1885714,3.61935484 C15.0646431,3.73044223 15.0068559,3.89926012 15.0361905,4.06451613 L15.447619,6.32129032 C15.476371,6.51060792 15.6148203,6.66352355 15.7980952,6.7083871 L17.927619,7.20387097 C18.0703033,7.23616351 18.2196443,7.19894186 18.3314286,7.10322581 L20.3504762,5.35741935 C20.5052331,6.56730283 20.1418062,7.78651909 19.352381,8.70580645 C19.0391964,9.04229625 18.6453955,9.29039084 18.2095238,9.42580645 C17.7539951,9.55355415 17.2756976,9.5734184 16.8114286,9.48387097 C16.3234895,9.37296407 15.8174629,9.37296407 15.3295238,9.48387097 C15.1471013,9.54962085 14.9770459,9.6464926 14.8266667,9.77032258 C14.6666667,9.89032258 14.5028571,10.0335484 14.3466667,10.1574194 C14.0380952,10.4322581 13.7790476,10.6877419 13.7752381,10.6877419 L13.7752381,10.6877419 L13.7104762,10.7651613 L11.6761905,8.82580645 C11.9504762,8.51612903 12.1638095,8.28 12.3390476,8.0516129 C12.5294703,7.80069898 12.6657605,7.51185158 12.7390476,7.20387097 L12.7390476,7.20387097 Z" fill="url(#linearGradient-4)"></path>
                        <path d="M13.4780952,10.2270968 C13.6347784,10.0543907 13.7172446,9.82534305 13.7072345,9.59066909 C13.6972243,9.35599513 13.5955636,9.13505697 13.4247619,8.97677419 L13.4247619,8.97677419 C13.0712245,8.64775092 12.522195,8.67200678 12.1980952,9.03096774 L3.37904762,18.7780645 C3.05425793,19.1362594 3.07642164,19.6940919 3.42857143,20.0245161 L3.42857143,20.0245161 C3.78236204,20.3549786 4.33253747,20.3324781 4.65904762,19.9741935 L13.4780952,10.2270968 Z" fill="url(#linearGradient-5)"></path>
                        <path d="M7.61904762,10.923871 C7.61904762,10.923871 6.92190476,11.4735484 7.07809524,11.8722581 C7.36730975,12.4172904 7.81406131,12.8590881 8.35809524,13.1380645 C9.0552381,13.4903226 10.007619,13.5483871 10.472381,14.9419355 C10.9371429,16.3354839 11.1161905,17.1754839 12.0914286,18.3367742 L15.4971429,22.3896774 C15.4971429,22.3896774 16.8190476,23.9612903 18.2857143,22.683871 L19.2838095,21.8167742 C20.7466667,20.5432258 19.4285714,18.9677419 19.4285714,18.9677419 L16.0190476,14.9187097 C15.0438095,13.7574194 14.2590476,13.4516129 12.9714286,12.7664516 C11.6838095,12.0812903 11.7790476,11.1135484 11.5504762,10.3625806 C11.3605794,9.77323902 11.0009281,9.25540277 10.5180952,8.87612903 C10.1371429,8.65548387 9.51238095,9.26322581 9.51238095,9.26322581 L7.61904762,10.923871 Z" fill="url(#linearGradient-6)"></path>
                        <path d="M11.9619048,15.5070968 C11.8112866,15.3284944 11.7366976,15.0963888 11.7545601,14.8618832 C11.7724226,14.6273775 11.881272,14.409699 12.0571429,14.2567742 L12.0571429,14.2567742 C12.4236252,13.9416196 12.9718372,13.9865991 13.2838095,14.3574194 L18.0304762,20.0012903 C18.1808759,20.1792524 18.2553671,20.4107325 18.2374975,20.6446052 C18.2196279,20.8784779 18.1108678,21.0955009 17.9352381,21.2477419 L17.9352381,21.2477419 C17.7589886,21.4003311 17.5302701,21.4754624 17.2994696,21.4565844 C17.068669,21.4377064 16.8547222,21.3263678 16.7047619,21.1470968 L11.9619048,15.5070968 Z" fill="url(#linearGradient-7)"></path>
                        <path d="M7.78285714,11.6129032 C7.71528185,11.532463 7.72376386,11.4117996 7.80190476,11.3419355 L7.80190476,11.3419355 C7.8810682,11.2732703 7.99981629,11.2818891 8.06857143,11.3612903 L9.09333333,12.5806452 C9.15997032,12.6621054 9.14978388,12.782864 9.07047619,12.8516129 L9.07047619,12.8516129 C8.99030898,12.9193247 8.87146719,12.9089739 8.80380952,12.8283871 L7.78285714,11.6129032 Z" fill="url(#linearGradient-8)"></path>
                        <path d="M8.47619048,11.0090323 C8.40904042,10.9298715 8.41755808,10.810432 8.4952381,10.7419355 L8.4952381,10.7419355 C8.53285119,10.7079448 8.58237977,10.6908302 8.63258797,10.6944744 C8.68279617,10.6981185 8.72942801,10.7222125 8.76190476,10.7612903 L9.78285714,12 C9.81610335,12.0375689 9.83285983,12.087275 9.82926621,12.1376669 C9.82567258,12.1880588 9.80203876,12.2347908 9.76380952,12.2670968 L9.76380952,12.2670968 C9.68464609,12.335762 9.565898,12.3271432 9.49714286,12.2477419 L8.47619048,11.0090323 Z" fill="url(#linearGradient-9)"></path>
                        <path d="M9.16952381,10.4090323 C9.13521421,10.3719645 9.11775013,10.3219904 9.12136954,10.2712369 C9.12498895,10.2204834 9.14936102,10.1735897 9.18857143,10.1419355 L9.18857143,10.1419355 C9.22554401,10.108153 9.27446109,10.0911263 9.32405311,10.0947779 C9.37364512,10.0984295 9.41963537,10.1224445 9.45142857,10.1612903 L10.4761905,11.3767742 C10.5437658,11.4572145 10.5352838,11.5778778 10.4571429,11.6477419 L10.4571429,11.6477419 C10.3779794,11.7164071 10.2592313,11.7077883 10.1904762,11.6283871 L9.16952381,10.4090323 Z" fill="url(#linearGradient-10)"></path>
                        <path d="M9.85904762,9.80903226 C9.82604163,9.77031512 9.80984954,9.71967923 9.81415464,9.66864296 C9.81845974,9.6176067 9.84289599,9.5705094 9.88190476,9.53806452 L9.88190476,9.53806452 C9.96048464,9.47194129 10.0763847,9.4804753 10.1447619,9.55741935 L11.1695238,10.7767742 C11.2370991,10.8572145 11.2286171,10.9778778 11.1504762,11.0477419 L11.1504762,11.0477419 C11.070309,11.1154537 10.9514672,11.105103 10.8838095,11.0245161 L9.85904762,9.80903226 Z" fill="url(#linearGradient-11)"></path>
                        <polygon fill="url(#linearGradient-12)" points="8.03809524 10.5522581 4.33142857 5.86064516 2.45714286 4.64129032 0.979047619 2.16 2.3047619 1.00645161 4.48761905 2.87612903 5.37904762 4.95096774 9.08571429 9.64645161"></polygon>
                        <path d="M10.6666667,15.5535484 C10.6666667,15.5303226 10.4342857,13.6180645 8.66285714,13.2309677 L8.66285714,13.2309677 C8.51525824,13.1859 8.37235477,13.1262608 8.23619048,13.0529032 L8.23619048,13.0529032 C7.86268749,12.8514029 7.53548873,12.5717007 7.27619048,12.2322581 L7.27619048,12.2322581 L6.68190476,12.6890323 C7.12189642,13.320024 7.76219675,13.7779237 8.4952381,13.9858065 L8.4952381,13.9858065 C8.99562173,14.0949068 9.41782764,14.4338292 9.63809524,14.9032258 L9.63809524,14.9032258 C9.76783636,15.1444789 9.85669629,15.4061982 9.90095238,15.6774194 L9.90095238,15.6774194 L10.6666667,15.5535484 Z" fill="#A7A9AC"></path>
                        <path d="M13.0095238,11.9032258 C12.9933768,11.8958789 12.9780512,11.8867948 12.9638095,11.876129 L12.9638095,11.876129 C12.8885647,11.8177866 12.8207438,11.7501721 12.7619048,11.6748387 L12.7619048,11.6748387 C12.5026258,11.305439 12.344838,10.8725406 12.3047619,10.4206452 L12.3047619,10.4206452 C12.3047619,10.3509677 12.2095238,9.64645161 11.3866667,8.67483871 L11.3866667,8.67483871 L10.8190476,9.16645161 C11.0839322,9.46724874 11.3011343,9.80810148 11.4628571,10.1767742 L11.4628571,10.1767742 C11.5165242,10.2789019 11.5501627,10.3906478 11.5619048,10.5058065 L11.5619048,10.5058065 C11.767619,12.1122581 12.6209524,12.5767742 12.7047619,12.603871 L12.7047619,12.603871 L12.9980952,11.9032258 L13.0095238,11.9032258 Z" fill="#A7A9AC"></path>
                    </g>
                </g>
            </g>
        </g>
    </g>
</svg>