<?xml version="1.0" encoding="UTF-8"?>
<svg width="32px" height="32px" viewBox="0 0 32 32" version="1.1" xmlns="http://www.w3.org/2000/svg" xmlns:xlink="http://www.w3.org/1999/xlink">
    <!-- Generator: Sketch 53 (72520) - https://sketchapp.com -->
    <title>ico_minorDamage</title>
    <desc>Created with Sketch.</desc>
    <defs>
        <rect id="path-1" x="0" y="0" width="32" height="32"></rect>
        <linearGradient x1="49.9907766%" y1="200.074543%" x2="49.9907766%" y2="0.0372717108%" id="linearGradient-3">
            <stop stop-color="#FFFFFF" offset="0%"></stop>
            <stop stop-color="#F7F7F7" offset="2%"></stop>
            <stop stop-color="#BEBEBE" offset="13%"></stop>
            <stop stop-color="#8B8B8B" offset="25%"></stop>
            <stop stop-color="#606060" offset="37%"></stop>
            <stop stop-color="#3D3D3D" offset="49%"></stop>
            <stop stop-color="#222222" offset="62%"></stop>
            <stop stop-color="#0F0F0F" offset="74%"></stop>
            <stop stop-color="#040404" offset="87%"></stop>
            <stop stop-color="#FFFFFF" offset="100%"></stop>
        </linearGradient>
        <linearGradient x1="50%" y1="-5.58275088e-15%" x2="50%" y2="100.000003%" id="linearGradient-4">
            <stop stop-color="#2FBEEF" offset="0%"></stop>
            <stop stop-color="#198CCC" offset="100%"></stop>
        </linearGradient>
    </defs>
    <g id="Page-1" stroke="none" stroke-width="1" fill="none" fill-rule="evenodd">
        <g id="VHR-Icons" transform="translate(-470.000000, -142.000000)">
            <g id="Icon/VHR-icon/color/ico_minorDamage" transform="translate(470.000000, 142.000000)">
                <mask id="mask-2" fill="white">
                    <use xlink:href="#path-1"></use>
                </mask>
                <g id="Rectangle-8"></g>
                <g id="ico_minorDamage" stroke-width="1" fill-rule="evenodd" mask="url(#mask-2)">
                    <g transform="translate(2.666667, 2.666667)">
                        <path d="M0.311898734,12.921519 C0.314135667,19.8828551 5.95883157,25.5245289 12.9201679,25.5230377 C19.8815042,25.5215465 25.5237827,19.877455 25.5230373,12.9161186 C25.5222918,5.95478212 19.8788048,0.311899094 12.9174684,0.311898734 C5.95680115,0.318600997 0.316364638,5.96084999 0.311898734,12.921519 L0.311898734,12.921519 Z" id="Shape" fill="#D8D9D8" fill-rule="nonzero"></path>
                        <path d="M0,12.921519 C0.00669532033,5.78951734 5.78546916,0.00893140763 12.9174684,7.10542736e-15 L12.9174684,7.10542736e-15 C20.0501253,0.00892699037 25.8300604,5.78886206 25.8389873,12.921519 L25.8389873,12.921519 C25.8278297,20.052594 20.0485465,25.8300655 12.9174684,25.8389873 L12.9174684,25.8389873 C5.78704853,25.8300604 0.00892698367,20.0519388 0,12.921519 Z M12.9174684,25.2151899 C19.7006068,25.1995989 25.1955483,19.7046575 25.2111392,12.921519 L25.2111392,12.921519 C25.1955574,6.13771983 19.701262,0.641614124 12.9174684,0.623797468 L12.9174684,0.623797468 C6.1336747,0.641614124 0.639379303,6.13771983 0.623797468,12.921519 L0.623797468,12.921519 C0.641604498,19.7037363 6.13525101,25.1973828 12.9174684,25.2151899 Z" id="Shape" fill="#D8D9D8" fill-rule="nonzero"></path>
                        <g id="Group" opacity="0.7" style="mix-blend-mode: lighten;" stroke-width="1" fill="none" fill-rule="evenodd" transform="translate(1.620253, 2.025316)">
                            <path d="M11.2972152,0.494177215 C17.28,0.494177215 22.1407595,5.1321519 22.278481,10.8921519 C22.278481,10.8151899 22.278481,10.7382278 22.278481,10.6572152 C22.278481,4.78379747 17.3610127,0.0243037975 11.2972152,0.0243037975 C5.23341772,0.0243037975 0.32,4.78379747 0.32,10.6572152 C0.32,10.7382278 0.32,10.8151899 0.32,10.8921519 C0.457721519,5.1321519 5.31848101,0.494177215 11.2972152,0.494177215 Z" id="Shape" fill="url(#linearGradient-3)" fill-rule="nonzero"></path>
                        </g>
                        <path d="M25.081519,12.8162025 C25.0815186,19.4889528 19.672581,24.8984944 12.9998308,24.8992398 C6.32708058,24.8999851 0.916934499,19.4916521 0.91544334,12.818902 C0.913952181,6.14615198 6.32168052,0.735401483 12.9944304,0.733164557 C19.6683635,0.733164182 25.0792824,6.14226975 25.081519,12.8162025 Z" id="Shape" fill="url(#linearGradient-4)" fill-rule="nonzero"></path>
                        <g id="Group" opacity="0.47" stroke-width="1" fill="none" fill-rule="evenodd" transform="translate(1.620253, 1.215190)">
                            <path d="M11.2850633,0.279493671 C5.34278481,0.279493671 0.0972151899,5.64253165 0.0972151899,11.5078481 C0.0972151899,12.8891139 0.376708861,15.5098734 1.6364557,16.915443 C5.61822785,16.7817722 7.36,14.9832911 11.4875949,12.6096203 C14.4648101,10.8962025 18.7787342,9.55139241 22.6187342,10.7179747 C22.3675949,5.07544304 17.0693671,0.279493671 11.2850633,0.279493671 Z" id="Shape" fill="#28A4DD" fill-rule="nonzero" style="mix-blend-mode: screen;"></path>
                        </g>
                        <g id="Group" opacity="0.2" stroke-width="1" fill="none" fill-rule="evenodd" transform="translate(8.911392, 3.240506)">
                            <path d="M5.84911392,0.0243037975 C6.69686453,0.0226656275 7.4619756,0.532294129 7.7871529,1.31520121 C8.11233021,2.09810829 7.93341888,2.99983269 7.33396756,3.59928401 C6.73451624,4.19873533 5.83279183,4.37764666 5.04988475,4.05246936 C4.26697767,3.72729206 3.75734917,2.96218099 3.75898734,2.11443038 C3.75898734,0.960085343 4.69476889,0.0243037975 5.84911392,0.0243037975" id="Shape" fill="#010101" fill-rule="nonzero"></path>
                            <path d="M5.87341772,15.4207595 C5.54038129,16.0111732 5.08953166,16.5268239 4.54886076,16.9356962 C4.4630861,17.0168597 4.35089191,17.0643265 4.23291139,17.0693671 C4.20455696,17.0693671 4.1721519,17.036962 4.1478481,17.0126582 C4.1147286,16.979975 4.09336353,16.9372448 4.08708861,16.8911392 C4.11717248,16.5624261 4.18235387,16.2378771 4.28151899,15.923038 L5.09164557,13.1929114 L5.09164557,13.1929114 L5.67088608,11.0946835 L6.48101266,8.40101266 C6.61636341,7.9953158 6.69408402,7.57262478 6.71189873,7.14531646 C6.72367591,6.64815478 6.5233625,6.16946466 6.16101266,5.82886076 C5.7657799,5.47283675 5.24634656,5.28659734 4.71493671,5.31037975 C3.20405063,5.31037975 1.77417722,6.46481013 0.461772152,8.74936709 C0.365051574,8.93699171 0.399322728,9.16546607 0.546835443,9.3164557 C0.919493671,9.5756962 1.21113924,9.06126582 1.21113924,9.06126582 C1.544207,8.47209576 1.99345427,7.95670166 2.53164557,7.54632911 C2.61944066,7.46578778 2.73264655,7.41849924 2.85164557,7.41265823 C2.88,7.41265823 2.91240506,7.44506329 2.93670886,7.46936709 C2.96982836,7.50205036 2.99119344,7.54478051 2.99746835,7.59088608 C2.96695294,7.92120444 2.90039677,8.2471938 2.79898734,8.56303797 L2.02531646,11.2850633 L2.02531646,11.2850633 L1.40556962,13.3670886 L1.40556962,13.3670886 L0.627848101,16.044557 C0.490509967,16.4497397 0.412736481,16.8727184 0.396962025,17.3002532 C0.379469352,17.8023776 0.578653183,18.287796 0.943797468,18.6329114 C1.33903023,18.9889354 1.85846357,19.1751748 2.38987342,19.1513924 C3.89670886,19.1513924 5.33063291,17.996962 6.64303797,15.7124051 C6.73266557,15.5216062 6.69025444,15.2948697 6.53772152,15.1493671 C6.16506329,14.9103797 5.87341772,15.4207595 5.87341772,15.4207595 Z" id="Shape" fill="#010101" fill-rule="nonzero"></path>
                            <path d="M4.69468354,5.31037975 C5.22609339,5.28659734 5.74552673,5.47283675 6.14075949,5.82886076 C6.50310934,6.16946466 6.70342274,6.64815478 6.69164557,7.14531646 C6.67383085,7.57262478 6.59611025,7.9953158 6.46075949,8.40101266 L5.67088608,11.078481 L5.06329114,13.1767089 L5.06329114,13.1767089 L4.25316456,15.9068354 C4.15399944,16.2216746 4.08881805,16.5462235 4.05873418,16.8749367 C4.06500909,16.9210423 4.08637417,16.9637724 4.11949367,16.9964557 C4.14379747,17.0207595 4.17620253,17.0531646 4.20455696,17.0531646 C4.32253748,17.048124 4.43473167,17.0006572 4.52050633,16.9194937 C5.06117723,16.5106213 5.51202686,15.9949707 5.84506329,15.404557 C5.84506329,15.404557 6.03139241,15.0764557 6.29873418,15.0764557 C6.37478703,15.0784403 6.44836278,15.1039089 6.50936709,15.1493671 C6.66190001,15.2948697 6.70431114,15.5216062 6.61468354,15.7124051 C5.30227848,17.996962 3.86835443,19.1513924 2.36151899,19.1513924 C1.83978823,19.1677181 1.33189978,18.981976 0.943797468,18.6329114 C0.590150725,18.2939978 0.394742908,17.8223744 0.405063291,17.3326582 C0.420837746,16.9051234 0.498611232,16.4821448 0.635949367,16.076962 L1.41367089,13.3994937 L1.41367089,13.3994937 L2.02531646,11.2850633 L2.02531646,11.2850633 L2.81113924,8.55898734 C2.91254867,8.24314317 2.97910483,7.91715381 3.00962025,7.58683544 C3.00334534,7.54072988 2.98198026,7.49799973 2.94886076,7.46531646 C2.92455696,7.44101266 2.8921519,7.40860759 2.86379747,7.40860759 C2.74479845,7.41444861 2.63159256,7.46173715 2.54379747,7.54227848 C2.00268055,7.95183065 1.5506276,8.46728126 1.21518987,9.05721519 C1.21518987,9.05721519 1.02886076,9.38531646 0.761518987,9.38531646 C0.685319145,9.38415375 0.611497772,9.35860019 0.550886076,9.31240506 C0.398353157,9.16690241 0.355942023,8.94016596 0.44556962,8.74936709 C1.75797468,6.46481013 3.1878481,5.31037975 4.69873418,5.31037975" id="Shape" fill="#010101" fill-rule="nonzero"></path>
                        </g>
                        <path d="M14.355443,3.24050633 C15.2028269,3.24050791 15.9666949,3.7511772 16.290595,4.534215 C16.6144951,5.31725281 16.4345825,6.2183127 15.8348118,6.81692326 C15.2350412,7.41553383 14.3336346,7.59370152 13.5512254,7.26828602 C12.7688162,6.94287051 12.2596268,6.17801522 12.2612658,5.33063291 C12.2612648,4.77559434 12.4820299,4.24334769 12.8748811,3.85125627 C13.2677324,3.45916485 13.8004055,3.23943067 14.355443,3.24050633" id="Shape" fill="#FFFFFF" fill-rule="nonzero"></path>
                        <path d="M14.3756962,18.6329114 C14.0416326,19.2202329 13.5925027,19.7341147 13.0551899,20.1437975 C12.9687777,20.2270273 12.855038,20.2759786 12.7351899,20.281519 C12.7068354,20.281519 12.6744304,20.2491139 12.6501266,20.2207595 C12.6167695,20.189906 12.5952719,20.1483441 12.5893671,20.1032911 C12.6198825,19.7729728 12.6864387,19.4469834 12.7878481,19.1311392 L13.5736709,16.4050633 L13.5736709,16.4050633 L14.1772152,14.2946835 C14.1772152,14.2946835 14.1772152,14.2946835 14.1772152,14.2946835 L14.9549367,11.6172152 C15.0922748,11.2120324 15.1700483,10.7890538 15.1858228,10.361519 C15.1981179,9.86425982 14.9977196,9.38536674 14.6349367,9.04506329 C14.244911,8.68369228 13.7284209,8.49019036 13.196962,8.50632911 C11.6860759,8.50632911 10.2562025,9.66481013 8.94379747,11.9493671 C8.85416987,12.140166 8.89658101,12.3669024 9.04911392,12.5124051 C9.42177215,12.7675949 9.71341772,12.2572152 9.71341772,12.2572152 C10.0464855,11.6680451 10.4957328,11.152651 11.0339241,10.7422785 C11.1217191,10.6617371 11.234925,10.6144486 11.3539241,10.6086076 C11.3822785,10.6086076 11.4146835,10.6410127 11.4389873,10.6653165 C11.4721068,10.6979997 11.4934719,10.7407299 11.4997468,10.7868354 C11.4688053,11.1131178 11.4022487,11.4350342 11.3012658,11.7468354 L10.5316456,14.4850633 L10.5316456,14.4850633 L9.92405063,16.5832911 L9.92405063,16.5832911 L9.14632911,19.2567089 C9.00948681,19.6620204 8.93172669,20.0849263 8.91544304,20.5124051 C8.90302237,21.0108683 9.10334686,21.4910579 9.46632911,21.8329114 C9.86156187,22.1889354 10.3809952,22.3751748 10.9124051,22.3513924 C12.4192405,22.3513924 13.8531646,21.1929114 15.1655696,18.9124051 C15.2545734,18.720206 15.2123303,18.4927433 15.0602532,18.3453165 C14.6673418,18.1063291 14.3756962,18.6329114 14.3756962,18.6329114 Z" id="Shape" fill="#FFFFFF" fill-rule="nonzero"></path>
                        <path d="M13.196962,8.50632911 C13.7289339,8.48364818 14.2484395,8.67136869 14.643038,9.02886076 C15.0058209,9.36916421 15.2062192,9.84805728 15.1939241,10.3453165 C15.1781496,10.7728513 15.1003761,11.1958299 14.963038,11.6010127 L14.1772152,14.278481 C14.1772152,14.278481 14.1772152,14.278481 14.1772152,14.278481 L13.5696203,16.3767089 L13.5696203,16.3767089 L12.7878481,19.1189873 C12.6864387,19.4348315 12.6198825,19.7608209 12.5893671,20.0911392 C12.5952719,20.1361922 12.6167695,20.1777541 12.6501266,20.2086076 C12.6744304,20.236962 12.7068354,20.2693671 12.7351899,20.2693671 C12.855038,20.2638267 12.9687777,20.2148754 13.0551899,20.1316456 C13.5912586,19.7255125 14.0403055,19.2158581 14.3756962,18.6329114 C14.3756962,18.6329114 14.5620253,18.3048101 14.8293671,18.3048101 C14.9046139,18.3077385 14.9775548,18.3315845 15.04,18.3736709 C15.1920772,18.5210977 15.2343203,18.7485605 15.1453165,18.9407595 C13.8329114,21.2212658 12.3989873,22.3797468 10.8921519,22.3797468 C10.360742,22.4035292 9.84130871,22.2172898 9.44607595,21.8612658 C9.08584375,21.5136987 8.89128403,21.0287734 8.91139241,20.5286076 C8.92767605,20.1011288 9.00543618,19.6782229 9.14227848,19.2729114 L9.90379747,16.6075949 L9.90379747,16.6075949 L10.5316456,14.4850633 L10.5316456,14.4850633 L11.3012658,11.7468354 C11.4028286,11.4324166 11.4693916,11.1077521 11.4997468,10.7787342 C11.4934719,10.7326286 11.4721068,10.6898985 11.4389873,10.6572152 C11.4146835,10.6329114 11.3822785,10.6005063 11.3539241,10.6005063 C11.234925,10.6063473 11.1217191,10.6536359 11.0339241,10.7341772 C10.4978179,11.1477296 10.0513192,11.6658885 9.72151899,12.2572152 C9.72151899,12.2572152 9.53518987,12.5853165 9.2678481,12.5853165 C9.19179525,12.5833318 9.1182195,12.5578633 9.05721519,12.5124051 C8.90468227,12.3669024 8.86227114,12.140166 8.95189873,11.9493671 C10.2643038,9.66481013 11.6941772,8.50632911 13.2050633,8.50632911" id="Shape" fill="#FFFFFF" fill-rule="nonzero"></path>
                    </g>
                </g>
            </g>
        </g>
    </g>
</svg>