<?xml version="1.0" encoding="utf-8"?>
<!-- Generator: Adobe Illustrator 20.0.0, SVG Export Plug-In . SVG Version: 6.00 Build 0)  -->
<svg version="1.1" id="Layer_1" xmlns="http://www.w3.org/2000/svg" xmlns:xlink="http://www.w3.org/1999/xlink" x="0px" y="0px"
	 viewBox="0 0 40 40" style="enable-background:new 0 0 40 40;" xml:space="preserve">
<style type="text/css">
	.st0{fill:#FFFFFF;}
	.st1{clip-path:url(#SVGID_2_);fill:url(#SVGID_3_);}
	.st2{clip-path:url(#SVGID_5_);fill:url(#SVGID_6_);}
	.st3{fill:#FBE482;}
	.st4{clip-path:url(#SVGID_8_);fill:url(#SVGID_9_);}
	.st5{clip-path:url(#SVGID_11_);fill:url(#SVGID_12_);}
	.st6{clip-path:url(#SVGID_14_);fill:url(#SVGID_15_);}
	.st7{stroke:#FFFFFF;stroke-width:1.9579;}
</style>
<g>
	<g>
		<polygon class="st0" points="4.076,37.256 35.751,37.256 38.052,36.326 38.979,34.538 39.164,32.437 38.239,30.397 23.289,4.763 
			21.868,3.156 20.309,2.846 18.656,3.033 17.05,3.835 1.175,31.431 0.802,33.115 0.926,34.538 1.544,35.958 2.348,36.636 		"/>
		<g>
			<path d="M4.651,37.952c-0.815-0.002-1.609-0.2-2.302-0.589c-0.702-0.392-1.289-0.968-1.703-1.672C0.223,34.972,0,34.147,0,33.307
				c0-0.808,0.208-1.608,0.601-2.316C1.637,29.127,15.254,5.583,15.964,4.376c0.85-1.447,2.374-2.33,4.043-2.328v0.695v0.695
				c-1.181,0.003-2.231,0.608-2.845,1.645C16.466,6.26,2.825,29.843,1.815,31.665c-0.279,0.5-0.426,1.072-0.426,1.642
				c0,0.594,0.159,1.177,0.454,1.681c0.29,0.495,0.701,0.899,1.184,1.165c0.476,0.266,1.039,0.413,1.624,0.411h30.647
				c1.189,0.002,2.297-0.634,2.879-1.642c0.285-0.492,0.434-1.047,0.435-1.61v-0.047c-0.01-0.556-0.173-1.143-0.477-1.676
				C37.5,30.476,24.155,7.366,22.839,5.093c-0.609-1.042-1.646-1.645-2.818-1.656h-0.013V2.743V2.048h0.015
				c1.666,0.005,3.18,0.896,4.018,2.349c1.32,2.279,14.657,25.378,15.302,26.502c0.412,0.725,0.644,1.533,0.658,2.38v0.032
				c0,0.807-0.212,1.602-0.62,2.307c-0.841,1.445-2.4,2.332-4.082,2.333H4.651z"/>
		</g>
		<g>
			<defs>
				<path id="SVGID_1_" d="M2.841,32.74l3.895-6.965c4.209-0.019,11.739-3.431,12.143-3.616c-0.056-0.34-0.11-0.678-0.158-1.009
					c-0.094-0.627-0.174-1.243-0.243-1.838c-0.021-0.191-0.041-0.383-0.061-0.57c-0.137-1.351-0.205-2.626-0.205-3.824
					c0-0.993,0.151-1.732,0.456-2.214c0.302-0.483,0.766-0.726,1.389-0.726c0.621,0,1.085,0.242,1.389,0.726
					c0.306,0.482,0.456,1.221,0.456,2.214c0,1.122-0.057,2.298-0.173,3.524c-0.07,0.763-0.163,1.547-0.282,2.349
					c-0.017,0.12-0.034,0.241-0.053,0.362c4.255-1.511,7.264-1.607,7.97-1.607c0.105,0,0.16,0.003,0.16,0.003l7.599,13.624
					c0.174,1.303-1.561,1.911-1.561,1.911H4.056C2.582,34.65,2.841,32.74,2.841,32.74 M20.008,4.084
					c-0.946,0-1.801,0.495-2.292,1.327C17.014,6.601,3.4,30.139,2.379,31.979c-0.231,0.413-0.344,0.872-0.344,1.329
					c0,0.471,0.121,0.941,0.366,1.354c0.47,0.798,1.291,1.255,2.251,1.255H35.3c0.957,0,1.847-0.504,2.319-1.317
					c0.48-0.825,0.461-1.805-0.044-2.69C36.935,30.788,23.598,7.691,22.282,5.416c-0.483-0.83-1.329-1.329-2.266-1.332H20.008z"/>
			</defs>
			<clipPath id="SVGID_2_">
				<use xlink:href="#SVGID_1_"  style="overflow:visible;"/>
			</clipPath>
			
				<linearGradient id="SVGID_3_" gradientUnits="userSpaceOnUse" x1="-370.404" y1="323.8707" x2="-369.8945" y2="323.8707" gradientTransform="matrix(0 -62.4837 -62.4837 0 20256.7051 -23108.2949)">
				<stop  offset="0" style="stop-color:#FFCC07"/>
				<stop  offset="0.1146" style="stop-color:#FFCC07"/>
				<stop  offset="0.2668" style="stop-color:#FECF18"/>
				<stop  offset="0.5343" style="stop-color:#FCD32F"/>
				<stop  offset="0.785" style="stop-color:#FBD53D"/>
				<stop  offset="1" style="stop-color:#FBD642"/>
			</linearGradient>
			<rect x="2.034" y="4.084" class="st1" width="36.065" height="31.833"/>
		</g>
		<g>
			<defs>
				<path id="SVGID_4_" d="M18.373,29.071c0-0.931,0.754-1.687,1.685-1.687c0.93,0,1.682,0.755,1.682,1.687
					c0,0.931-0.753,1.684-1.682,1.684C19.127,30.755,18.373,30.002,18.373,29.071 M21.395,21.154
					c-0.052,0.339-0.11,0.682-0.168,1.027l-0.016,0.089c-0.013,0.103-0.034,0.247-0.063,0.434c-0.343,2.032-0.703,3.05-1.09,3.05
					c-0.362,0-0.665-0.681-0.901-2.036c-0.052-0.286-0.093-0.515-0.124-0.681c-0.052-0.296-0.104-0.587-0.153-0.878
					c-0.404,0.184-7.934,3.597-12.143,3.616L2.841,32.74c0,0-0.259,1.91,1.215,2.344h31.506c0,0,1.735-0.607,1.561-1.911
					l-7.599-13.624c0,0-0.055-0.003-0.16-0.003C28.659,19.547,25.65,19.643,21.395,21.154"/>
			</defs>
			<clipPath id="SVGID_5_">
				<use xlink:href="#SVGID_4_"  style="overflow:visible;"/>
			</clipPath>
			
				<linearGradient id="SVGID_6_" gradientUnits="userSpaceOnUse" x1="-365.6077" y1="318.4548" x2="-365.0982" y2="318.4548" gradientTransform="matrix(0 -30.4953 -30.4953 0 9731.3135 -11114.2334)">
				<stop  offset="0" style="stop-color:#FDE000"/>
				<stop  offset="1" style="stop-color:#FCB614"/>
			</linearGradient>
			<rect x="2.582" y="19.547" class="st2" width="34.716" height="15.538"/>
		</g>
		<g>
			<path class="st3" d="M20.007,4.887h-0.003c-0.664,0-1.247,0.339-1.596,0.931C17.706,7.009,4.101,30.531,3.081,32.369
				c-0.158,0.285-0.244,0.611-0.244,0.94c0,0.336,0.089,0.662,0.256,0.947c0.326,0.552,0.879,0.861,1.558,0.861h30.648
				c0.674,0,1.298-0.352,1.628-0.921c0.335-0.576,0.315-1.248-0.046-1.886C36.24,31.19,22.903,8.094,21.585,5.817
				c-0.34-0.589-0.915-0.927-1.572-0.93H20.007L20.007,4.887z M20.011,5.423c0.462,0.001,0.867,0.242,1.11,0.664
				c1.318,2.275,14.653,25.371,15.29,26.491c0.192,0.325,0.352,0.827,0.052,1.349c-0.236,0.403-0.68,0.653-1.165,0.653H4.651
				c-0.34,0-0.806-0.104-1.097-0.597c-0.117-0.201-0.18-0.433-0.18-0.674c0-0.237,0.061-0.473,0.177-0.68
				C4.568,30.792,18.168,7.28,18.871,6.091c0.248-0.426,0.663-0.669,1.133-0.669H20.011z"/>
			<path class="st0" d="M2.683,32.146c-0.202,0.362-0.302,0.763-0.302,1.162c0,0.411,0.106,0.817,0.318,1.176
				c0.411,0.694,1.102,1.084,1.952,1.088h30.648c0.838,0,1.614-0.442,2.022-1.15c0.202-0.345,0.299-0.719,0.299-1.101
				c0-0.41-0.116-0.833-0.349-1.239C36.634,30.961,23.297,7.863,21.98,5.589c-0.423-0.727-1.145-1.151-1.987-1.16
				c-0.816,0.005-1.546,0.429-1.978,1.159C17.317,6.771,3.697,30.318,2.683,32.146 M2.1,34.839c-0.275-0.47-0.414-1-0.414-1.531
				c0-0.514,0.131-1.034,0.388-1.502C3.103,29.957,16.71,6.432,17.416,5.233c0.549-0.933,1.523-1.499,2.589-1.497h0.013
				c1.061,0.003,2.024,0.573,2.562,1.504c1.318,2.279,14.655,25.374,15.299,26.499c0.285,0.502,0.436,1.042,0.431,1.581
				c0.005,0.502-0.127,1-0.389,1.452c-0.539,0.925-1.54,1.494-2.623,1.494H4.651H4.642C3.573,36.266,2.628,35.74,2.1,34.839"/>
		</g>
		<g>
			<defs>
				<path id="SVGID_7_" d="M18.373,29.071c0,0.931,0.754,1.684,1.685,1.684c0.93,0,1.682-0.753,1.682-1.684
					c0-0.931-0.753-1.687-1.682-1.687C19.127,27.384,18.373,28.14,18.373,29.071"/>
			</defs>
			<clipPath id="SVGID_8_">
				<use xlink:href="#SVGID_7_"  style="overflow:visible;"/>
			</clipPath>
			
				<linearGradient id="SVGID_9_" gradientUnits="userSpaceOnUse" x1="-365.6071" y1="317.4491" x2="-365.0984" y2="317.4491" gradientTransform="matrix(0 -30.4953 -30.4953 0 9700.7607 -11114.2334)">
				<stop  offset="0" style="stop-color:#A69B5A"/>
				<stop  offset="1" style="stop-color:#A78A52"/>
			</linearGradient>
			<rect x="18.373" y="27.384" class="st4" width="3.367" height="3.371"/>
		</g>
		<g>
			<defs>
				<path id="SVGID_10_" d="M18.668,12.705c-0.305,0.482-0.456,1.221-0.456,2.214c0,1.198,0.068,2.473,0.205,3.824
					c0.019,0.187,0.04,0.379,0.061,0.57c0.069,0.595,0.149,1.211,0.243,1.838c0.049,0.331,0.102,0.669,0.158,1.009
					c0.013-0.005,0.018-0.007,0.018-0.007c0.871-0.387,1.706-0.717,2.498-0.999c0.019-0.121,0.036-0.242,0.053-0.362
					c0.119-0.803,0.212-1.586,0.282-2.349c0.115-1.226,0.173-2.402,0.173-3.524c0-0.993-0.151-1.732-0.456-2.214
					c-0.303-0.483-0.767-0.726-1.389-0.726C19.435,11.979,18.971,12.221,18.668,12.705"/>
			</defs>
			<clipPath id="SVGID_11_">
				<use xlink:href="#SVGID_10_"  style="overflow:visible;"/>
			</clipPath>
			
				<linearGradient id="SVGID_12_" gradientUnits="userSpaceOnUse" x1="-370.404" y1="323.3617" x2="-369.8945" y2="323.3617" gradientTransform="matrix(0 -62.4837 -62.4837 0 20224.8926 -23108.2949)">
				<stop  offset="0" style="stop-color:#806C30"/>
				<stop  offset="0.1146" style="stop-color:#806C30"/>
				<stop  offset="0.4789" style="stop-color:#806E37"/>
				<stop  offset="1" style="stop-color:#806F3C"/>
			</linearGradient>
			<rect x="18.212" y="11.979" class="st5" width="3.691" height="10.18"/>
		</g>
		<g>
			<defs>
				<path id="SVGID_13_" d="M18.897,22.153c0,0-0.005,0.002-0.018,0.007c0.05,0.291,0.101,0.583,0.153,0.878
					c0.031,0.166,0.072,0.395,0.124,0.681c0.236,1.355,0.539,2.036,0.901,2.036c0.387,0,0.748-1.018,1.09-3.05
					c0.029-0.188,0.051-0.332,0.063-0.434l0.016-0.089c0.058-0.345,0.115-0.689,0.168-1.027
					C20.603,21.435,19.768,21.765,18.897,22.153"/>
			</defs>
			<clipPath id="SVGID_14_">
				<use xlink:href="#SVGID_13_"  style="overflow:visible;"/>
			</clipPath>
			
				<linearGradient id="SVGID_15_" gradientUnits="userSpaceOnUse" x1="-365.607" y1="317.4246" x2="-365.098" y2="317.4246" gradientTransform="matrix(0 -30.4953 -30.4953 0 9700.0947 -11114.2334)">
				<stop  offset="0" style="stop-color:#807331"/>
				<stop  offset="1" style="stop-color:#80632D"/>
			</linearGradient>
			<rect x="18.88" y="21.154" class="st6" width="2.515" height="4.601"/>
		</g>
		<g>
			<path d="M21.74,28.808c0,0.93-0.753,1.684-1.682,1.684c-0.93,0-1.685-0.754-1.685-1.684c0-0.931,0.754-1.686,1.685-1.686
				C20.987,27.123,21.74,27.877,21.74,28.808"/>
			<path d="M21.446,12.444c-0.303-0.483-0.767-0.725-1.389-0.725c-0.624,0-1.087,0.242-1.389,0.725
				c-0.306,0.483-0.457,1.221-0.457,2.213c0,1.199,0.068,2.474,0.205,3.824c0.019,0.189,0.04,0.38,0.061,0.572
				c0.069,0.596,0.149,1.209,0.243,1.837c0.092,0.614,0.195,1.245,0.312,1.886c0.031,0.168,0.072,0.394,0.124,0.684
				c0.236,1.354,0.539,2.034,0.901,2.034c0.387,0,0.748-1.019,1.09-3.052c0.029-0.187,0.051-0.329,0.065-0.434l0.014-0.087
				c0.08-0.47,0.155-0.935,0.221-1.391c0.119-0.802,0.212-1.586,0.282-2.35c0.115-1.227,0.173-2.402,0.173-3.524
				C21.903,13.665,21.752,12.926,21.446,12.444"/>
		</g>
	</g>
	<path class="st7" d="M37.268,29.918"/>
</g>
</svg>
