<?xml version="1.0" encoding="utf-8"?>
<!-- Generator: Adobe Illustrator 20.0.0, SVG Export Plug-In . SVG Version: 6.00 Build 0)  -->
<svg version="1.1" id="Layer_1" xmlns="http://www.w3.org/2000/svg" xmlns:xlink="http://www.w3.org/1999/xlink" x="0px" y="0px"
	 viewBox="0 0 40 40" style="enable-background:new 0 0 40 40;" xml:space="preserve">
<style type="text/css">
	.st0{fill:#020202;}
	.st1{fill-rule:evenodd;clip-rule:evenodd;fill:#BF292D;}
	.st2{fill:#FFFFFF;}
	.st3{fill:url(#SVGID_1_);}
	.st4{fill:#EF4C24;}
</style>
<path class="st0" d="M19.997,37.95v-0.693v-0.696c1.177-0.002,2.228-0.604,2.843-1.643l0,0c0.694-1.179,14.338-24.761,15.346-26.581
	l0,0c0.276-0.501,0.426-1.072,0.426-1.644l0,0c0-0.595-0.157-1.176-0.455-1.68l0,0c-0.289-0.494-0.701-0.896-1.182-1.164l0,0
	c-0.475-0.268-1.04-0.413-1.624-0.413l0,0H4.703c-1.19-0.001-2.297,0.635-2.879,1.641l0,0C1.538,5.57,1.388,6.125,1.388,6.682l0,0
	c0,0.031,0,0.032,0.001,0.051l0,0c0.008,0.56,0.17,1.145,0.477,1.679l0,0c0.635,1.114,13.98,24.22,15.296,26.495l0,0
	c0.607,1.042,1.645,1.646,2.818,1.653l0,0h0.016v0.696V37.95h-0.02c-1.663-0.004-3.178-0.894-4.015-2.347l0,0
	c-1.32-2.28-14.66-25.378-15.301-26.503l0,0C0.245,8.376,0.014,7.569,0.001,6.78l0,0C0,6.729,0,6.696,0,6.682l0,0
	c0-0.805,0.214-1.599,0.62-2.3l0,0C1.461,2.938,3.021,2.05,4.703,2.05l0,0h30.649c0.811,0,1.607,0.199,2.299,0.586l0,0
	c0.705,0.393,1.293,0.973,1.704,1.673l0,0C39.778,5.029,40,5.852,40,6.693l0,0c0,0.81-0.207,1.609-0.598,2.316l0,0
	c-1.036,1.866-14.654,25.407-15.364,26.615l0,0c-0.849,1.446-2.37,2.327-4.033,2.327l0,0C20.001,37.95,20,37.95,19.997,37.95
	L19.997,37.95z"/>
<path class="st1" d="M22.286,34.591c0.702-1.191,14.318-24.727,15.336-26.567c0.23-0.414,0.347-0.875,0.347-1.33
	c0-0.474-0.124-0.942-0.366-1.354c-0.471-0.799-1.29-1.257-2.251-1.257H4.703c-0.96,0-1.849,0.505-2.322,1.321
	C1.903,6.228,1.919,7.206,2.426,8.091c0.64,1.121,13.978,24.219,15.296,26.497c0.481,0.83,1.326,1.326,2.264,1.33
	C20.934,35.921,21.794,35.426,22.286,34.591z"/>
<path class="st2" d="M19.996,36.264c0,0-0.01,0-0.011,0l0,0c-1.063-0.002-2.025-0.572-2.566-1.503l0,0
	C16.102,32.482,2.766,9.388,2.124,8.265l0,0C1.835,7.758,1.687,7.217,1.687,6.681l0,0c0-0.504,0.131-1.002,0.393-1.452l0,0
	c0.538-0.926,1.542-1.492,2.622-1.495l0,0h30.65c1.071-0.003,2.021,0.525,2.548,1.429l0,0c0.278,0.468,0.416,0.998,0.414,1.531l0,0
	c0.002,0.514-0.13,1.031-0.387,1.498l0,0C36.9,10.043,23.29,33.569,22.584,34.767l0,0c-0.55,0.93-1.518,1.497-2.584,1.497l0,0
	C20,36.264,19.997,36.264,19.996,36.264L19.996,36.264z M2.681,5.578C2.48,5.925,2.379,6.298,2.379,6.681l0,0
	c0,0.407,0.113,0.829,0.347,1.238l0,0c0.64,1.119,13.98,24.218,15.295,26.492l0,0c0.423,0.729,1.152,1.156,1.965,1.16l0,0
	l0.01-0.001c0.819-0.003,1.558-0.426,1.99-1.156l0,0c0.697-1.182,14.318-24.73,15.333-26.559l0,0
	c0.201-0.362,0.301-0.762,0.301-1.16l0,0c0-0.412-0.105-0.82-0.318-1.177l0,0c-0.413-0.695-1.103-1.084-1.95-1.087l0,0H4.702
	c-0.001,0-0.003,0-0.004,0l0,0C3.863,4.429,3.088,4.874,2.681,5.578L2.681,5.578z"/>
<linearGradient id="SVGID_1_" gradientUnits="userSpaceOnUse" x1="21.8163" y1="28.4163" x2="21.8163" y2="17.9385">
	<stop  offset="0" style="stop-color:#EF4C24"/>
	<stop  offset="1" style="stop-color:#961F21"/>
</linearGradient>
<path class="st3" d="M32.961,14.272c-4.948,0.274-8.45,2.07-12.832,3.825c-3.007,1.205-6.165,2.235-9.457,2.267l7.529,13.542
	c0,0,1.276,2.489,3.365,0.463L32.961,14.272z"/>
<circle cx="19.943" cy="26.599" r="1.685"/>
<path class="st0" d="M21.332,10.235c-0.303-0.483-0.767-0.725-1.389-0.725c-0.624,0-1.086,0.241-1.389,0.725
	c-0.304,0.484-0.456,1.222-0.456,2.214c0,1.198,0.07,2.474,0.204,3.822c0.019,0.188,0.041,0.381,0.062,0.57
	c0.068,0.597,0.149,1.211,0.242,1.839c0.092,0.615,0.197,1.243,0.312,1.888c0.032,0.166,0.073,0.393,0.126,0.681
	c0.235,1.356,0.535,2.034,0.899,2.034c0.387,0,0.749-1.018,1.09-3.051c0.032-0.185,0.052-0.329,0.067-0.433
	c0.004-0.03,0.008-0.059,0.013-0.088c0.082-0.469,0.157-0.934,0.222-1.392c0.116-0.801,0.211-1.584,0.282-2.349
	c0.117-1.225,0.174-2.401,0.174-3.523C21.79,11.457,21.637,10.718,21.332,10.235z"/>
<circle class="st2" cx="19.943" cy="26.339" r="1.685"/>
<path class="st2" d="M21.332,9.973c-0.303-0.482-0.767-0.725-1.389-0.725c-0.624,0-1.086,0.243-1.389,0.725
	c-0.304,0.482-0.456,1.221-0.456,2.214c0,1.2,0.07,2.474,0.204,3.823c0.019,0.189,0.041,0.381,0.062,0.572
	c0.068,0.598,0.149,1.21,0.242,1.838c0.092,0.615,0.197,1.245,0.312,1.888c0.032,0.166,0.073,0.395,0.126,0.682
	c0.235,1.356,0.535,2.033,0.899,2.033c0.387,0,0.749-1.017,1.09-3.05c0.032-0.185,0.052-0.329,0.067-0.433
	c0.004-0.03,0.008-0.058,0.013-0.087c0.082-0.47,0.157-0.934,0.222-1.391c0.116-0.802,0.211-1.584,0.282-2.35
	c0.117-1.225,0.174-2.401,0.174-3.524C21.79,11.195,21.637,10.456,21.332,9.973z"/>
<path class="st4" d="M19.991,34.579c-0.464-0.003-0.868-0.243-1.111-0.663C17.562,31.639,4.228,8.545,3.588,7.426
	C3.4,7.097,3.239,6.595,3.54,6.076c0.235-0.404,0.678-0.654,1.163-0.654h30.649c0.339,0,0.806,0.105,1.096,0.596
	c0.12,0.203,0.18,0.434,0.18,0.676c0,0.237-0.061,0.474-0.176,0.681c-1.019,1.834-14.619,25.346-15.32,26.538
	c-0.251,0.423-0.665,0.667-1.136,0.667H19.991z M19.995,35.114h0.002c0.665,0,1.247-0.338,1.596-0.932
	c0.703-1.19,14.309-24.713,15.328-26.549c0.159-0.286,0.243-0.612,0.243-0.94c0-0.337-0.087-0.663-0.253-0.947
	c-0.329-0.556-0.88-0.861-1.559-0.861H4.703c-0.673,0-1.297,0.352-1.627,0.92C2.741,6.384,2.758,7.054,3.124,7.693
	c0.638,1.117,13.975,24.213,15.292,26.489c0.34,0.589,0.914,0.929,1.571,0.932h0.004H19.995L19.995,35.114z"/>
</svg>
