<?xml version="1.0" encoding="utf-8"?>
<!-- Generator: Adobe Illustrator 20.0.0, SVG Export Plug-In . SVG Version: 6.00 Build 0)  -->
<svg version="1.1" id="Layer_1" xmlns="http://www.w3.org/2000/svg" xmlns:xlink="http://www.w3.org/1999/xlink" x="0px" y="0px"
	 viewBox="0 0 40 40" style="enable-background:new 0 0 40 40;" xml:space="preserve">
<style type="text/css">
	.st0{stroke:#FFFFFF;stroke-width:3.6456;}
	.st1{fill:#D7D7D7;}
	.st2{fill:url(#SVGID_1_);}
	.st3{fill:url(#SVGID_2_);}
	.st4{fill:url(#SVGID_3_);}
	.st5{fill:url(#SVGID_4_);}
	.st6{fill:url(#SVGID_5_);}
	.st7{fill:none;}
	.st8{fill:url(#SVGID_6_);}
	.st9{fill:url(#SVGID_7_);}
	.st10{fill:url(#SVGID_8_);}
	.st11{fill:url(#SVGID_9_);}
	.st12{opacity:0.51;mix-blend-mode:screen}
	.st13{clip-path:url(#SVGID_11_);fill-rule:evenodd;clip-rule:evenodd;fill:url(#SVGID_12_);}
</style>
<path class="st0" d="M20,26.257"/>
<path class="st1" d="M38.381,30.024H1.621v-8.323c-0.003-0.105-0.067-3.542,2.157-5.826c1.261-1.294,2.949-1.95,5.017-1.95h22.411
	c2.067,0,3.755,0.656,5.016,1.95c2.225,2.284,2.162,5.722,2.157,5.867L38.381,30.024z M4.721,26.924h30.559v-5.223
	c0.001-0.056,0.022-2.34-1.29-3.674c-0.663-0.675-1.574-1.002-2.784-1.002H8.796c-1.21,0-2.122,0.328-2.785,1.002
	c-1.312,1.334-1.29,3.618-1.29,3.641L4.721,26.924z"/>
<path class="st1" d="M33.672,26.781l-2.917-1.048l3.454-9.619h-1.191l-0.328-1.113c-0.646-2.199-1.563-4.833-2.053-5.747
	C27.651,8.612,11.757,8.667,9.282,9.343c-0.507,0.671-1.387,3.166-1.946,5.572l-0.279,1.199H5.816l3.145,9.664l-2.948,0.959
	l-2.589-7.954c-1.224-0.201-1.979-0.756-2.423-1.246c-1.178-1.301-1.002-2.983-0.978-3.17l0.173-1.353h4.418
	c0.545-2.061,1.529-5.121,2.774-6.157C7.8,6.514,8.768,5.709,20.163,5.702c0.048,0,0.096,0,0.143,0
	c11.352,0,12.032,0.742,12.483,1.233c0.831,0.913,1.851,3.85,2.54,6.079h4.475l0.173,1.353c0.024,0.187,0.2,1.868-0.978,3.17
	c-0.448,0.495-1.213,1.056-2.457,1.252L33.672,26.781z M9.135,9.39L9.135,9.39L9.135,9.39z M30.915,9.329L30.915,9.329L30.915,9.329
	z"/>
<path class="st1" d="M12.034,34.298H3.461V23.572h8.573V34.298z M6.561,31.197h2.373v-4.525H6.561V31.197z"/>
<path class="st1" d="M36.783,34.298h-8.57V23.572h8.57V34.298z M31.313,31.197h2.37v-4.525h-2.37V31.197z"/>
<linearGradient id="SVGID_1_" gradientUnits="userSpaceOnUse" x1="7.6254" y1="18.5496" x2="7.6254" y2="33.6428">
	<stop  offset="0" style="stop-color:#808184"/>
	<stop  offset="0.2745" style="stop-color:#5E5D5F"/>
	<stop  offset="0.5813" style="stop-color:#3E3B3D"/>
	<stop  offset="0.8342" style="stop-color:#2A2728"/>
	<stop  offset="1" style="stop-color:#231F20"/>
</linearGradient>
<rect x="4.889" y="25.122" class="st2" width="5.473" height="7.625"/>
<linearGradient id="SVGID_2_" gradientUnits="userSpaceOnUse" x1="32.3767" y1="18.5496" x2="32.3767" y2="33.6428">
	<stop  offset="0" style="stop-color:#808184"/>
	<stop  offset="0.2745" style="stop-color:#5E5D5F"/>
	<stop  offset="0.5813" style="stop-color:#3E3B3D"/>
	<stop  offset="0.8342" style="stop-color:#2A2728"/>
	<stop  offset="1" style="stop-color:#231F20"/>
</linearGradient>
<rect x="29.642" y="25.122" class="st3" width="5.47" height="7.625"/>
<linearGradient id="SVGID_3_" gradientUnits="userSpaceOnUse" x1="18.027" y1="1.2592" x2="20.6671" y2="32.9486">
	<stop  offset="0" style="stop-color:#ACE0F9"/>
	<stop  offset="0.0474" style="stop-color:#95D0F0"/>
	<stop  offset="0.1363" style="stop-color:#6FB7E1"/>
	<stop  offset="0.2326" style="stop-color:#4FA2D5"/>
	<stop  offset="0.3362" style="stop-color:#3590CB"/>
	<stop  offset="0.4497" style="stop-color:#2183C3"/>
	<stop  offset="0.5785" style="stop-color:#1379BD"/>
	<stop  offset="0.7354" style="stop-color:#0A74BA"/>
	<stop  offset="1" style="stop-color:#0872B9"/>
</linearGradient>
<path class="st4" d="M31.206,15.474H8.794c-5.787,0-5.623,6.227-5.623,6.227v6.773h33.658v-6.773
	C36.829,21.701,36.991,15.474,31.206,15.474z"/>
<linearGradient id="SVGID_4_" gradientUnits="userSpaceOnUse" x1="18.8658" y1="1.1945" x2="21.5052" y2="32.8753">
	<stop  offset="0" style="stop-color:#ACE0F9"/>
	<stop  offset="0.0474" style="stop-color:#95D0F0"/>
	<stop  offset="0.1363" style="stop-color:#6FB7E1"/>
	<stop  offset="0.2326" style="stop-color:#4FA2D5"/>
	<stop  offset="0.3362" style="stop-color:#3590CB"/>
	<stop  offset="0.4497" style="stop-color:#2183C3"/>
	<stop  offset="0.5785" style="stop-color:#1379BD"/>
	<stop  offset="0.7354" style="stop-color:#0A74BA"/>
	<stop  offset="1" style="stop-color:#0872B9"/>
</linearGradient>
<path class="st5" d="M32.213,26.257l3.213-8.948c3.376,0.095,3.013-2.744,3.013-2.744h-4.262c0,0-1.648-5.613-2.53-6.581
	C30.761,7.019,9.666,6.977,8.379,8.049c-1.288,1.072-2.553,6.515-2.553,6.515H1.561c0,0-0.363,2.839,3.013,2.744l2.913,8.95"/>
<linearGradient id="SVGID_5_" gradientUnits="userSpaceOnUse" x1="19.9998" y1="10.0389" x2="19.9998" y2="40.6497">
	<stop  offset="0" style="stop-color:#FFFFFF"/>
	<stop  offset="0.0787" style="stop-color:#F1F1F1"/>
	<stop  offset="0.3777" style="stop-color:#C2C2C2"/>
	<stop  offset="0.6417" style="stop-color:#9F9F9F"/>
	<stop  offset="0.8581" style="stop-color:#8A8A8A"/>
	<stop  offset="1" style="stop-color:#828282"/>
</linearGradient>
<path class="st6" d="M29.629,9.166C28.661,8.808,23.623,8.857,20,8.937c-3.623-0.081-8.637-0.065-9.605,0.29
	c-2.04,0.751-2.405,6.346-2.405,6.346h24.017C32.008,15.574,31.666,9.915,29.629,9.166z"/>
<path class="st7" d="M24.681,16.539c0.005,1.37,1.114,2.48,2.487,2.484c1.369-0.003,2.479-1.114,2.481-2.484
	c0-0.341-0.069-0.668-0.196-0.965h-4.576C24.752,15.871,24.682,16.198,24.681,16.539z"/>
<path d="M27.168,14.05c1.027,0.003,1.908,0.63,2.285,1.524h1.263c-0.426-1.571-1.845-2.734-3.548-2.734
	c-1.706,0-3.125,1.163-3.551,2.734h1.26C25.257,14.68,26.136,14.053,27.168,14.05z"/>
<linearGradient id="SVGID_6_" gradientUnits="userSpaceOnUse" x1="20.0001" y1="42.8271" x2="20.0001" y2="15.901">
	<stop  offset="0" style="stop-color:#808184"/>
	<stop  offset="0.2745" style="stop-color:#5E5D5F"/>
	<stop  offset="0.5813" style="stop-color:#3E3B3D"/>
	<stop  offset="0.8342" style="stop-color:#2A2728"/>
	<stop  offset="1" style="stop-color:#231F20"/>
</linearGradient>
<polygon class="st8" points="12.124,23.312 12.124,22.337 27.876,22.337 27.876,23.312 12.124,23.312 "/>
<linearGradient id="SVGID_7_" gradientUnits="userSpaceOnUse" x1="20.0001" y1="42.7901" x2="20.0001" y2="15.9156">
	<stop  offset="0" style="stop-color:#808184"/>
	<stop  offset="0.2745" style="stop-color:#5E5D5F"/>
	<stop  offset="0.5813" style="stop-color:#3E3B3D"/>
	<stop  offset="0.8342" style="stop-color:#2A2728"/>
	<stop  offset="1" style="stop-color:#231F20"/>
</linearGradient>
<polygon class="st9" points="12.124,25.465 12.124,24.494 27.876,24.494 27.876,25.465 12.124,25.465 "/>
<radialGradient id="SVGID_8_" cx="40.3664" cy="21.0254" r="4.2639" gradientTransform="matrix(0.6033 0 0 0.6033 7.9341 7.9341)" gradientUnits="userSpaceOnUse">
	<stop  offset="0" style="stop-color:#FFFFFF"/>
	<stop  offset="0.2754" style="stop-color:#FCFCFC"/>
	<stop  offset="0.5005" style="stop-color:#F2F2F2"/>
	<stop  offset="0.7074" style="stop-color:#E1E1E1"/>
	<stop  offset="0.8022" style="stop-color:#D7D7D6"/>
	<stop  offset="1" style="stop-color:#1A1A1A"/>
</radialGradient>
<circle class="st10" cx="32.287" cy="20.617" r="2.572"/>
<radialGradient id="SVGID_9_" cx="-0.3673" cy="21.0254" r="4.2643" gradientTransform="matrix(0.6033 0 0 0.6033 7.9341 7.9341)" gradientUnits="userSpaceOnUse">
	<stop  offset="0" style="stop-color:#FFFFFF"/>
	<stop  offset="0.2754" style="stop-color:#FCFCFC"/>
	<stop  offset="0.5005" style="stop-color:#F2F2F2"/>
	<stop  offset="0.7074" style="stop-color:#E1E1E1"/>
	<stop  offset="0.8022" style="stop-color:#D7D7D6"/>
	<stop  offset="1" style="stop-color:#1A1A1A"/>
</radialGradient>
<circle class="st11" cx="7.713" cy="20.617" r="2.573"/>
<g class="st12">
	<defs>
		<path id="SVGID_10_" class="st12" d="M38.044,14.903l-4.684-0.038c0,0-1.524-5.611-2.365-6.536
			C30.147,7.405,9.969,7.363,8.738,8.39c-1.234,1.027-2.5,6.475-2.5,6.475l-4.291,0.038c0,0-0.111,2.241,3.118,2.152l0.055-0.109
			c-1.401,1.758-1.425,4.743-1.425,4.743v6.479h32.199v-6.479c0,0,0.322-2.934-1.079-4.689l0,0
			C38.366,17.27,38.044,14.903,38.044,14.903z"/>
	</defs>
	<clipPath id="SVGID_11_">
		<use xlink:href="#SVGID_10_"  style="overflow:visible;"/>
	</clipPath>
	<linearGradient id="SVGID_12_" gradientUnits="userSpaceOnUse" x1="20.0316" y1="-0.5394" x2="20.0316" y2="26.4905">
		<stop  offset="0" style="stop-color:#FFFFFF"/>
		<stop  offset="0.2654" style="stop-color:#AEAEAE"/>
		<stop  offset="0.5307" style="stop-color:#636363"/>
		<stop  offset="0.7488" style="stop-color:#2E2E2E"/>
		<stop  offset="0.9113" style="stop-color:#0C0C0C"/>
		<stop  offset="1" style="stop-color:#000000"/>
	</linearGradient>
	<path class="st13" d="M0.922,16.335c0,0-0.039-2.482,0.26-2.688l4.25,0.173c0,0,0.694-6.332,3.209-6.679
		c5.169-0.712,8.633-1.793,14.265-0.318l8.064,1.202l3.779,5.795l4.393,0.715l-0.403,2.842l-2.082,1.127
		c0,0,2.082,3.731,1.164,3.635c-4.424,0.962-10.764,0.652-18.628-4.249c-1.76-1.313-9.865-2.837-15.166,0L0.922,16.335z"/>
</g>
</svg>
