<?xml version="1.0" encoding="utf-8"?>
<!-- Generator: Adobe Illustrator 20.0.0, SVG Export Plug-In . SVG Version: 6.00 Build 0)  -->
<svg version="1.1" id="Layer_1" xmlns="http://www.w3.org/2000/svg" xmlns:xlink="http://www.w3.org/1999/xlink" x="0px" y="0px"
	 viewBox="0 0 40 40" style="enable-background:new 0 0 40 40;" xml:space="preserve">
<style type="text/css">
	.st0{fill:#68BE67;}
	.st1{fill:#1E8442;}
	.st2{fill:url(#SVGID_1_);}
	.st3{fill:url(#SVGID_2_);}
	.st4{fill:#FFFFFF;filter:url(#dropshadow);}
	.st5{fill:#2A9947;}
</style>
<filter width="200%" height="200%" x="-50%" y="-50%" id="dropshadow">
	<feGaussianBlur  in="SourceAlpha" stdDeviation="4"></feGaussianBlur>
	<feOffset  dx="3" dy="3" result="offsetblur"></feOffset>
	<feComponentTransfer>
		<feFuncA  slope="0.5" type="linear"></feFuncA>
	</feComponentTransfer>
	<feMerge>
		<feMergeNode></feMergeNode>
		<feMergeNode  in="SourceGraphic"></feMergeNode>
	</feMerge>
</filter>
<polygon class="st0" points="0,39.995 0,-0.005 40,-0.005 40,1.939 1.904,1.939 1.904,39.995 0,39.995 "/>
<polygon class="st1" points="0,40 0,37.911 37.954,37.911 37.954,0 39.998,0 39.999,40 0,40 "/>
<linearGradient id="SVGID_1_" gradientUnits="userSpaceOnUse" x1="19.5841" y1="33.0498" x2="20.6635" y2="3.2464">
	<stop  offset="0" style="stop-color:#1E8442"/>
	<stop  offset="0.2323" style="stop-color:#309349"/>
	<stop  offset="0.728" style="stop-color:#51B055"/>
	<stop  offset="1" style="stop-color:#5DBB5A"/>
</linearGradient>
<rect x="2.803" y="2.824" class="st2" width="34.512" height="34.198"/>
<linearGradient id="SVGID_2_" gradientUnits="userSpaceOnUse" x1="20.2562" y1="20.5821" x2="20.0403" y2="-0.1637">
	<stop  offset="0" style="stop-color:#5DBB5A"/>
	<stop  offset="1" style="stop-color:#289B48"/>
</linearGradient>
<path class="st3" d="M37.304,3.352L3.018,3.354v16.205c0.484,0.229,9.044,4.128,18.159-0.008c0,0,12.411-3.467,16.126,0.692V3.352z"
	/>
<path class="st4" d="M5.937,23.903c0,0,5.56-4.175,6.2-4.764c0,0,3.323,6.919,3.897,7.768c0,0,5.752-14.816,15.977-21.08
	c0,0-0.639,5.199,1.919,10.18c0,0-9.201,6.006-17.511,18.732C16.418,34.738,11.049,27.037,5.937,23.903z"/>
<path class="st5" d="M1.85,37.911V1.849h36.103v36.062H1.85z M36.032,36.048l0.057-32.251H3.756v32.251h32.601H36.032z"/>
</svg>
