<?xml version="1.0" encoding="utf-8"?>
<!-- Generator: Adobe Illustrator 20.0.0, SVG Export Plug-In . SVG Version: 6.00 Build 0)  -->
<svg version="1.1" id="Layer_1" xmlns="http://www.w3.org/2000/svg" xmlns:xlink="http://www.w3.org/1999/xlink" x="0px" y="0px"
	 viewBox="0 0 40 40" style="enable-background:new 0 0 40 40;" xml:space="preserve">
<style type="text/css">
	.st0{fill:url(#SVGID_1_);}
	.st1{fill:#1E76BA;}
	.st2{opacity:0.4;fill:#FFFFFF;}
	.st3{opacity:0.7;fill:#FFFFFF;}
	.st4{opacity:0.47;mix-blend-mode:screen}
	.st5{fill:url(#SVGID_2_);}
	.st6{opacity:0.2;}
	.st7{fill:#FFFFFF;}
</style>
<radialGradient id="SVGID_1_" cx="20.0002" cy="20" r="31.8994" gradientTransform="matrix(0.6231 0 0 0.6231 7.5374 7.5371)" gradientUnits="userSpaceOnUse">
	<stop  offset="0" style="stop-color:#1E76BA"/>
	<stop  offset="0.4454" style="stop-color:#1D75B8"/>
	<stop  offset="0.6058" style="stop-color:#1C71B1"/>
	<stop  offset="0.7201" style="stop-color:#186AA6"/>
	<stop  offset="0.8126" style="stop-color:#136095"/>
	<stop  offset="0.8918" style="stop-color:#0D537F"/>
	<stop  offset="0.9607" style="stop-color:#054364"/>
	<stop  offset="1" style="stop-color:#003851"/>
</radialGradient>
<polygon class="st0" points="23.954,0.122 20,3.105 16.046,0.122 13.533,4.39 8.74,3.15 8.054,8.053 3.149,8.741 4.39,13.535 
	0.122,16.047 3.105,20.001 0.122,23.955 4.39,26.466 3.149,31.261 8.054,31.947 8.74,36.853 13.533,35.609 16.046,39.878 20,36.896 
	23.954,39.878 26.465,35.609 31.259,36.853 31.947,31.947 36.852,31.261 35.609,26.466 39.878,23.955 36.894,20.001 39.878,16.047 
	35.609,13.535 36.852,8.741 31.947,8.053 31.259,3.15 26.465,4.39 "/>
<path class="st1" d="M23.978,40L20,37.001L16.022,40l-2.528-4.294l-4.823,1.251L7.98,32.021L3.046,31.33l1.248-4.825L0,23.98
	l3.001-3.979L0,16.022l4.293-2.527L3.046,8.671L7.98,7.979l0.691-4.933l4.823,1.248L16.022,0L20,3.001L23.978,0l2.527,4.294
	l4.823-1.248l0.693,4.933l4.935,0.692l-0.024,0.09l-1.227,4.734L40,16.022l-3.002,3.979L40,23.98l-4.295,2.526l1.251,4.825
	l-4.935,0.691l-0.693,4.936l-0.09-0.024l-4.733-1.227L23.978,40z M13.573,35.513l0.032,0.054l2.466,4.188L20,36.792l3.93,2.963
	l2.496-4.242l0.06,0.016l4.703,1.22l0.685-4.875l0.062-0.009l4.812-0.674l-1.235-4.765l0.054-0.032l4.188-2.463l-2.966-3.93
	l2.966-3.93l-4.243-2.496l1.235-4.765l-4.874-0.684l-0.009-0.062l-0.676-4.811l-4.764,1.232l-0.032-0.054l-2.464-4.187L20,3.209
	l-3.929-2.965l-2.497,4.241L13.513,4.47L8.81,3.254L8.127,8.126L8.065,8.135L3.253,8.81l1.233,4.765l-0.054,0.032l-4.187,2.464
	l2.964,3.93l-2.964,3.93l4.241,2.496l-0.016,0.06l-1.217,4.705l4.874,0.682l0.009,0.062l0.674,4.813L13.573,35.513z"/>
<path class="st2" d="M19.696,34.196c-3.918,0-9.264-1.822-12.723-5.797c2.761,4.072,7.43,6.751,12.723,6.751
	c5.771,0,10.801-3.188,13.433-7.894C30.134,31.431,25.071,34.196,19.696,34.196z"/>
<path class="st3" d="M20.048,5.769c4.939,0,9.608,2.456,12.41,6.187c-2.469-4.219-7.101-7.061-12.41-7.061
	c-5.318,0-9.948,2.849-12.416,7.067C10.437,8.227,15.106,5.769,20.048,5.769z"/>
<g class="st4">
	<linearGradient id="SVGID_2_" gradientUnits="userSpaceOnUse" x1="9.0685" y1="7.8111" x2="28.6054" y2="27.348">
		<stop  offset="0" style="stop-color:#FFFFFF"/>
		<stop  offset="0.2654" style="stop-color:#AEAEAE"/>
		<stop  offset="0.5307" style="stop-color:#636363"/>
		<stop  offset="0.7488" style="stop-color:#2E2E2E"/>
		<stop  offset="0.9113" style="stop-color:#0C0C0C"/>
		<stop  offset="1" style="stop-color:#000000"/>
	</linearGradient>
	<path class="st5" d="M19.808,4.854c-7.756,0-14.407,7.07-14.407,14.825c0,1.829,0.359,3.57,0.994,5.171
		c5.196-0.182,8.29-0.554,13.674-3.694c3.884-2.266,9.52-4.041,14.528-2.499C34.267,11.193,27.355,4.854,19.808,4.854z"/>
</g>
<g>
	<g class="st6">
		<path d="M15.017,29.767v-3.739h2.394V14.499h-2.83v-3.303c1.795-0.082,2.724-0.492,3.62-1.363h4.782v16.195h2.488v3.739H15.017z"
			/>
	</g>
	<g>
		<path class="st7" d="M14.706,29.456v-3.739h2.396V14.189h-2.83v-3.304c1.797-0.081,2.721-0.489,3.619-1.362h4.782v16.195h2.49
			v3.739H14.706z"/>
	</g>
</g>
</svg>
