<?xml version="1.0" encoding="utf-8"?>
<!-- Generator: Adobe Illustrator 20.0.0, SVG Export Plug-In . SVG Version: 6.00 Build 0)  -->
<svg version="1.1" id="Layer_1" xmlns="http://www.w3.org/2000/svg" xmlns:xlink="http://www.w3.org/1999/xlink" x="0px" y="0px"
	 viewBox="0 0 40 40" style="enable-background:new 0 0 40 40;" xml:space="preserve">
<style type="text/css">
	.st0{fill:#FAAE40;}
	.st1{fill:#6C9C40;}
	.st2{fill:#0872B9;}
	.st3{fill:#BE202E;}
	.st4{fill:url(#SVGID_1_);mix-blend-mode:screen}
	.st5{fill:url(#SVGID_2_);mix-blend-mode:screen}
	.st6{fill:url(#SVGID_3_);mix-blend-mode:screen}
</style>
<circle class="st0" cx="9.087" cy="9.496" r="4.029"/>
<path class="st1" d="M2.042,17.482c0.629-3.014,5.634-2.544,5.747-2.535c0.038,0,0.066,0.003,0.066,0.003l2.339-0.003
	c0,0,4.795-0.477,5.673,2.265c-0.626,0.081-1.298,0.217-1.96,0.451c-1.328,0.456-2.74,1.452-3.106,3.235l-1.582,7.78
	c-2.696,0.079-4.562-1.484-4.562-1.484s-0.003-4.437-0.003-7.716c-0.133,0.724-0.306,1.687-0.306,1.687L1.41,20.533L2.042,17.482z"
	/>
<path class="st0" d="M1.169,28.944l0.363,0.06c0.757,0.126,1.466-0.355,1.586-1.075l1.046-5.775l-2.953-0.61l-1.194,5.867
	C-0.102,28.134,0.413,28.818,1.169,28.944z"/>
<circle class="st0" cx="30.913" cy="9.496" r="4.029"/>
<path class="st2" d="M37.957,17.482c-0.629-3.014-5.634-2.544-5.747-2.535c-0.039,0-0.066,0.003-0.066,0.003l-2.339-0.003
	c0,0-4.796-0.477-5.673,2.265c0.626,0.081,1.299,0.217,1.961,0.451c1.328,0.456,2.74,1.452,3.105,3.235l1.583,7.78
	c2.696,0.079,4.562-1.484,4.562-1.484s0.003-4.437,0.003-7.716c0.132,0.724,0.306,1.687,0.306,1.687l2.938-0.632L37.957,17.482z"/>
<path class="st0" d="M39.983,27.412l-1.194-5.867l-2.952,0.61l1.046,5.775c0.12,0.72,0.829,1.201,1.585,1.075l0.363-0.06
	C39.587,28.818,40.102,28.134,39.983,27.412z"/>
<ellipse class="st0" cx="20.007" cy="11.808" rx="4.689" ry="4.691"/>
<path class="st3" d="M18.718,18.152c0,0-5.959-0.603-6.703,2.942l-0.765,3.707l3.417,0.738c0,0,0.157-0.857,0.319-1.753
	c-0.002,3.775-0.003,8.612-0.003,8.612c5.531,3.911,10.181,0.004,10.181,0.004s0.001-5.16,0.003-8.982
	c0.153,0.844,0.376,2.05,0.376,2.05l3.42-0.734L28.205,21.1c-0.73-3.508-6.556-2.963-6.686-2.948"/>
<path class="st0" d="M9.657,32.651c-0.139,0.838,0.458,1.636,1.337,1.785l0.422,0.07c0.88,0.146,1.706-0.413,1.847-1.252
	l1.225-6.738L11.055,25.8L9.657,32.651z"/>
<path class="st0" d="M30.562,32.657l-1.406-6.91l-3.433,0.712l1.233,6.8c0.138,0.839,0.965,1.4,1.843,1.251l0.424-0.068
	C30.103,34.294,30.7,33.495,30.562,32.657z"/>
<path class="st2" d="M37.879,17.234c-0.852-2.73-5.56-2.296-5.668-2.287c-0.039,0-0.066,0.003-0.066,0.003l-2.339-0.003
	c0,0-4.796-0.477-5.673,2.265c0.626,0.081,1.299,0.217,1.961,0.451c1.328,0.456,2.74,1.452,3.105,3.235l0.181,0.891
	c0.941-0.242,1.96-0.577,2.873-1.036C34.278,19.732,36.232,18.059,37.879,17.234z"/>
<linearGradient id="SVGID_1_" gradientUnits="userSpaceOnUse" x1="27.9662" y1="3.6467" x2="32.1631" y2="22.3926">
	<stop  offset="0" style="stop-color:#FFFFFF"/>
	<stop  offset="0.2654" style="stop-color:#AEAEAE"/>
	<stop  offset="0.5307" style="stop-color:#636363"/>
	<stop  offset="0.7488" style="stop-color:#2E2E2E"/>
	<stop  offset="0.9113" style="stop-color:#0C0C0C"/>
	<stop  offset="1" style="stop-color:#000000"/>
</linearGradient>
<path class="st4" d="M37.879,17.234c-0.852-2.73-5.56-2.296-5.668-2.287c-0.039,0-0.066,0.003-0.066,0.003l-2.339-0.003
	c0,0-4.796-0.477-5.673,2.265c0.626,0.081,1.299,0.217,1.961,0.451c1.328,0.456,2.74,1.452,3.105,3.235l0.181,0.891
	c0.941-0.242,1.96-0.577,2.873-1.036C34.278,19.732,36.232,18.059,37.879,17.234z"/>
<path class="st1" d="M15.867,17.211c-0.003-0.008-0.007-0.015-0.011-0.024c-0.032,0.016-0.062,0.026-0.095,0.042
	C15.796,17.225,15.832,17.215,15.867,17.211z"/>
<path class="st1" d="M13.907,17.662c0.625-0.22,1.257-0.351,1.855-0.433c0.032-0.016,0.063-0.026,0.095-0.042
	c-0.898-2.713-5.662-2.241-5.662-2.241l-2.339,0.003c0,0-0.028-0.003-0.066-0.003c-0.113-0.009-5.119-0.479-5.747,2.535L1.41,20.533
	l2.938,0.632c0,0,0.174-0.963,0.306-1.687c0,0.892,0.002,1.872,0.002,2.822c1.096-0.15,3.532-0.571,5.474-1.548
	c0.285-0.143,0.569-0.301,0.851-0.465C11.51,18.882,12.739,18.064,13.907,17.662z"/>
<linearGradient id="SVGID_2_" gradientUnits="userSpaceOnUse" x1="5.2573" y1="3.7828" x2="9.4532" y2="22.5245">
	<stop  offset="0" style="stop-color:#FFFFFF"/>
	<stop  offset="0.2654" style="stop-color:#AEAEAE"/>
	<stop  offset="0.5307" style="stop-color:#636363"/>
	<stop  offset="0.7488" style="stop-color:#2E2E2E"/>
	<stop  offset="0.9113" style="stop-color:#0C0C0C"/>
	<stop  offset="1" style="stop-color:#000000"/>
</linearGradient>
<path class="st5" d="M13.907,17.662c0.625-0.22,1.257-0.351,1.855-0.433c0.032-0.016,0.063-0.026,0.095-0.042
	c-0.898-2.713-5.662-2.241-5.662-2.241l-2.339,0.003c0,0-0.028-0.003-0.066-0.003c-0.113-0.009-5.119-0.479-5.747,2.535L1.41,20.533
	l2.938,0.632c0,0,0.174-0.963,0.306-1.687c0,0.892,0.002,1.872,0.002,2.822c1.096-0.15,3.532-0.571,5.474-1.548
	c0.285-0.143,0.569-0.301,0.851-0.465C11.51,18.882,12.739,18.064,13.907,17.662z"/>
<path class="st3" d="M28.131,20.865c-0.947-3.237-6.487-2.728-6.613-2.713h-2.8c0,0-5.959-0.603-6.703,2.942l-0.765,3.707
	l3.417,0.738c0,0,0.157-0.857,0.319-1.753c0,0.983,0,2.036-0.001,3.059c1.238-0.167,4.077-0.65,6.339-1.785
	C23.794,23.816,26.167,21.74,28.131,20.865z"/>
<linearGradient id="SVGID_3_" gradientUnits="userSpaceOnUse" x1="15.8142" y1="5.5176" x2="20.641" y2="27.077">
	<stop  offset="0" style="stop-color:#FFFFFF"/>
	<stop  offset="0.2654" style="stop-color:#AEAEAE"/>
	<stop  offset="0.5307" style="stop-color:#636363"/>
	<stop  offset="0.7488" style="stop-color:#2E2E2E"/>
	<stop  offset="0.9113" style="stop-color:#0C0C0C"/>
	<stop  offset="1" style="stop-color:#000000"/>
</linearGradient>
<path class="st6" d="M28.131,20.865c-0.947-3.237-6.487-2.728-6.613-2.713h-2.8c0,0-5.959-0.603-6.703,2.942l-0.765,3.707
	l3.417,0.738c0,0,0.157-0.857,0.319-1.753c0,0.983,0,2.036-0.001,3.059c1.238-0.167,4.077-0.65,6.339-1.785
	C23.794,23.816,26.167,21.74,28.131,20.865z"/>
</svg>
