<?xml version="1.0" encoding="utf-8"?>
<!-- Generator: Adobe Illustrator 20.0.0, SVG Export Plug-In . SVG Version: 6.00 Build 0)  -->
<svg version="1.1" id="Layer_1" xmlns="http://www.w3.org/2000/svg" xmlns:xlink="http://www.w3.org/1999/xlink" x="0px" y="0px"
	 viewBox="0 0 40 40" style="enable-background:new 0 0 40 40;" xml:space="preserve">
<style type="text/css">
	.st0{fill:#FAAE40;}
	.st1{fill:#6C9C40;}
	.st2{fill:#0872B9;}
	.st3{fill:url(#SVGID_1_);mix-blend-mode:screen}
	.st4{fill:url(#SVGID_2_);mix-blend-mode:screen }
</style>
<circle class="st0" cx="28.03" cy="6.161" r="5.308"/>
<path class="st1" d="M37.31,16.681c-0.829-3.973-7.424-3.354-7.571-3.341c-0.05,0-0.088,0.003-0.088,0.003l-3.08-0.003
	c0,0-6.318-0.628-7.474,2.984c0.825,0.106,1.711,0.285,2.583,0.594c1.749,0.6,3.609,1.912,4.092,4.264l2.085,10.247
	c3.553,0.106,6.01-1.955,6.01-1.955s0.004-5.843,0.004-10.165c0.175,0.955,0.403,2.222,0.403,2.222l3.871-0.832L37.31,16.681z"/>
<path class="st0" d="M39.977,29.763l-1.572-7.729l-3.889,0.805l1.378,7.606c0.157,0.949,1.093,1.583,2.089,1.416l0.478-0.077
	C39.457,31.618,40.135,30.714,39.977,29.763z"/>
<ellipse class="st0" cx="13.662" cy="9.206" rx="6.177" ry="6.179"/>
<path class="st2" d="M11.964,17.505c0,0-7.85-0.795-8.83,3.877l-1.008,4.882l4.501,0.972c0,0,0.206-1.128,0.42-2.31
	C7.044,29.9,7.043,36.274,7.043,36.274c7.286,5.152,13.413,0.005,13.413,0.005s0.001-6.798,0.003-11.831
	c0.202,1.112,0.497,2.7,0.497,2.7l4.505-0.967l-0.999-4.79c-0.962-4.623-8.638-3.903-8.81-3.886"/>
<path class="st0" d="M0.026,36.664c-0.183,1.104,0.603,2.156,1.762,2.352l0.555,0.092c1.16,0.193,2.249-0.542,2.434-1.649
	l1.614-8.878l-4.524-0.943L0.026,36.664z"/>
<path class="st0" d="M27.566,36.675l-1.852-9.103l-4.522,0.938l1.624,8.958c0.182,1.102,1.271,1.842,2.428,1.649l0.557-0.092
	C26.962,38.831,27.749,37.777,27.566,36.675z"/>
<path class="st2" d="M24.375,21.113c-1.218-4.3-8.556-3.625-8.722-3.608h-3.689c0,0-7.85-0.795-8.83,3.877l-1.008,4.882l4.501,0.972
	c0,0,0.206-1.128,0.42-2.31c0,1.301,0,2.696-0.001,4.049c1.592-0.211,5.395-0.843,8.419-2.362
	C18.695,24.988,21.799,22.282,24.375,21.113z"/>
<linearGradient id="SVGID_1_" gradientUnits="userSpaceOnUse" x1="8.1443" y1="0.8829" x2="14.5032" y2="29.2859">
	<stop  offset="0" style="stop-color:#FFFFFF"/>
	<stop  offset="0.2654" style="stop-color:#AEAEAE"/>
	<stop  offset="0.5307" style="stop-color:#636363"/>
	<stop  offset="0.7488" style="stop-color:#2E2E2E"/>
	<stop  offset="0.9113" style="stop-color:#0C0C0C"/>
	<stop  offset="1" style="stop-color:#000000"/>
</linearGradient>
<path class="st3" d="M24.375,21.113c-1.218-4.3-8.556-3.625-8.722-3.608h-3.689c0,0-7.85-0.795-8.83,3.877l-1.008,4.882l4.501,0.972
	c0,0,0.206-1.128,0.42-2.31c0,1.301,0,2.696-0.001,4.049c1.592-0.211,5.395-0.843,8.419-2.362
	C18.695,24.988,21.799,22.282,24.375,21.113z"/>
<path class="st1" d="M37.213,16.378c-1.104-3.622-7.331-3.05-7.475-3.037c-0.05,0-0.088,0.003-0.088,0.003l-3.08-0.003
	c0,0-6.318-0.628-7.474,2.984c0.825,0.106,1.711,0.285,2.583,0.594c1.749,0.6,3.609,1.912,4.092,4.264l0.252,1.237
	c1.168-0.314,2.415-0.736,3.538-1.3C32.33,19.727,34.994,17.417,37.213,16.378z"/>
<linearGradient id="SVGID_2_" gradientUnits="userSpaceOnUse" x1="24.1655" y1="-1.4689" x2="29.6942" y2="23.226">
	<stop  offset="0" style="stop-color:#FFFFFF"/>
	<stop  offset="0.2654" style="stop-color:#AEAEAE"/>
	<stop  offset="0.5307" style="stop-color:#636363"/>
	<stop  offset="0.7488" style="stop-color:#2E2E2E"/>
	<stop  offset="0.9113" style="stop-color:#0C0C0C"/>
	<stop  offset="1" style="stop-color:#000000"/>
</linearGradient>
<path class="st4" d="M37.213,16.378c-1.104-3.622-7.331-3.05-7.475-3.037c-0.05,0-0.088,0.003-0.088,0.003l-3.08-0.003
	c0,0-6.318-0.628-7.474,2.984c0.825,0.106,1.711,0.285,2.583,0.594c1.749,0.6,3.609,1.912,4.092,4.264l0.252,1.237
	c1.168-0.314,2.415-0.736,3.538-1.3C32.33,19.727,34.994,17.417,37.213,16.378z"/>

</svg>
