<?xml version="1.0" encoding="utf-8"?>
<!-- Generator: Adobe Illustrator 20.0.0, SVG Export Plug-In . SVG Version: 6.00 Build 0)  -->
<svg version="1.1" id="Layer_1" xmlns="http://www.w3.org/2000/svg" xmlns:xlink="http://www.w3.org/1999/xlink" x="0px" y="0px"
	 viewBox="0 0 40 40" style="enable-background:new 0 0 40 40;" xml:space="preserve">
<style type="text/css">
	.st0{fill:#ADADB0;}
	.st1{fill:#ADAEB1;}
	.st2{fill:#BBBCBE;}
	.st3{fill:none;stroke:#BBBCBE;stroke-width:0.9105;}
	.st4{fill:#603A17;}
	.st5{fill:#FFFFFF;}
	.st6{fill:url(#SVGID_1_);}
	.st7{fill:#868787;}
	.st8{opacity:0.22;}
	.st9{clip-path:url(#SVGID_3_);fill:url(#SVGID_4_);}
	.st10{stroke:#FFFFFF;stroke-width:0.8455;}
	.st11{fill:url(#SVGID_5_);}
	.st12{fill:url(#SVGID_6_);}
	.st13{fill:url(#SVGID_7_);}
	.st14{fill:url(#SVGID_8_);}
	.st15{fill:url(#SVGID_9_);}
	.st16{fill:none;}
	.st17{fill:url(#SVGID_10_);}
	.st18{fill:url(#SVGID_11_);}
	.st19{fill:url(#SVGID_12_);}
	.st20{fill:url(#SVGID_13_);}
</style>
<path class="st0" d="M38.003,36.278H16.232v-4.593c-0.002-0.071-0.037-1.973,1.177-3.22c0.67-0.687,1.578-1.036,2.701-1.036h14.015
	c1.123,0,2.032,0.349,2.702,1.036c1.214,1.247,1.178,3.148,1.176,3.228L38.003,36.278z M16.951,35.558h20.333v-3.873
	c0.001-0.025,0.027-1.695-0.976-2.721c-0.529-0.541-1.263-0.815-2.183-0.815H20.11c-0.922,0-1.657,0.275-2.186,0.819
	c-1.005,1.031-0.973,2.691-0.973,2.708V35.558z"/>
<path class="st0" d="M35.093,34.656l-0.677-0.243l2.098-5.843l0.26,0.008c0.567,0.007,0.988-0.115,1.237-0.387
	c0.174-0.19,0.244-0.426,0.271-0.612h-2.569l-0.075-0.258c-0.39-1.327-1.142-3.578-1.501-3.974
	c-0.921-0.484-13.187-0.443-14.07,0.083c-0.508,0.424-1.17,2.601-1.465,3.871l-0.065,0.279h-2.585
	c0.027,0.186,0.096,0.422,0.271,0.612c0.249,0.272,0.669,0.4,1.235,0.386l0.268-0.008l1.906,5.853l-0.684,0.222l-1.743-5.351
	c-0.661-0.029-1.171-0.239-1.52-0.625c-0.563-0.623-0.462-1.46-0.458-1.496l0.04-0.314h2.7c0.219-0.879,0.891-3.36,1.65-3.992
	c0.957-0.797,14.319-0.803,15.049-0.006c0.517,0.569,1.3,3.058,1.584,3.998h2.715l0.041,0.314c0.004,0.035,0.104,0.873-0.458,1.495
	c-0.351,0.388-0.865,0.598-1.53,0.626L35.093,34.656z"/>
<path class="st0" d="M21.525,38.953h-4.142v-5.488h4.142V38.953z M18.102,38.234h2.704v-4.049h-2.704V38.234z"/>
<path class="st0" d="M37.005,38.953h-4.141v-5.488h4.141V38.953z M33.584,38.234h2.702v-4.049h-2.702V38.234z"/>
<path class="st1" d="M13.061,10.654H8.32V2.834h4.741V10.654z M9.231,9.744h2.92V3.744h-2.92V9.744z"/>
<path class="st1" d="M13.995,4.452H7.386V2.596h6.609V4.452z M8.296,3.541h4.788V3.506H8.296V3.541z"/>
<path class="st2" d="M6.738,31.354V14.296l13.234-9.875l13.24,9.984l0.003,16.926L6.738,31.354z M7.649,14.753v15.689l24.655-0.02
	l-0.003-15.563L19.969,5.56L7.649,14.753z"/>
<path class="st2" d="M7.856,30.234V14.855l11.732-8.753l-0.654-0.495l0.673-0.891l0.726,0.549l-0.486,0.642l0.118-0.088l12.126,9.14
	l0.005,15.254L7.856,30.234z M8.767,15.311v14.011l22.42-0.019l-0.005-13.89L19.964,6.958L8.767,15.311z"/>
<polygon class="st2" points="33.155,13.746 32.257,13.642 32.274,13.459 32.355,13.173 33.236,13.402 "/>
<path class="st1" d="M33.15,31.346H6.816l-0.012-1.12V15.388l-4.204,3.169L0,15.957L18.931,1.468
	c0.344-0.289,0.708-0.432,1.081-0.421c0.344-0.009,0.713,0.134,1.066,0.427L40,15.957l-2.6,2.6l-4.232-3.191L33.15,31.346z
	 M7.717,30.435h24.536l0.003-0.213V14.781l-0.028-0.028l0.166-0.422l0.238-0.509l4.683,3.53l1.305-1.305L20.5,2.179
	c-0.183-0.154-0.357-0.227-0.489-0.222c-0.163-0.001-0.329,0.068-0.512,0.221L1.379,16.048l1.305,1.305l4.682-3.53l0.419,0.891
	l-0.071,0.078L7.717,30.435z"/>
<path class="st2" d="M6.738,31.354V14.296l13.234-9.875l13.24,9.984l0.003,16.926L6.738,31.354z M7.649,14.753v15.689l24.655-0.02
	l-0.003-15.563L19.969,5.56L7.649,14.753z"/>
<path class="st3" d="M18.047,31.224"/>
<rect x="8.775" y="3.289" class="st4" width="3.83" height="6.91"/>
<rect x="7.841" y="3.051" class="st4" width="5.699" height="0.946"/>
<polygon class="st5" points="19.97,4.991 7.194,14.525 7.194,30.898 32.76,30.877 32.757,14.632 "/>
<path class="st1" d="M6.076,13.965L19.3,4.096l0.672-0.503l13.898,10.48l0.009,17.921l-27.804,0.02V13.965L6.076,13.965z
	 M8.312,15.083v14.695l23.331-0.02l-0.005-14.572L19.965,6.389L8.312,15.083L8.312,15.083z M19.297,5.881l0.673-0.891L19.297,5.881
	L19.297,5.881z"/>
<polygon class="st4" points="32.712,13.642 32.793,13.297 32.712,13.583 "/>
<path class="st4" d="M20.793,1.83c-0.272-0.228-0.533-0.335-0.794-0.328c-0.262-0.007-0.521,0.1-0.792,0.328L0.69,16.003
	l1.953,1.952l4.551-3.431l0.051,0.108l-0.019,0.021h0.013h0.013l0.008,0.013v15.555l0.007,0.669h25.435l0.01-0.662V14.728
	l0.036-0.075h0.012h0.019l-0.021-0.021l0.05-0.108l4.551,3.431l1.953-1.952L20.793,1.83z"/>
<linearGradient id="SVGID_1_" gradientUnits="userSpaceOnUse" x1="24.3295" y1="2.138" x2="5.7745" y2="92.8518" gradientTransform="matrix(1 -0.0044 0.0044 1 -0.3323 0.6326)">
	<stop  offset="0" style="stop-color:#E6E6E6"/>
	<stop  offset="0.6758" style="stop-color:#808080"/>
	<stop  offset="1" style="stop-color:#666666"/>
</linearGradient>
<polygon class="st6" points="19.915,4.991 7.181,14.582 7.181,31.047 32.773,31.047 32.745,14.576 "/>
<rect x="15.937" y="11.902" class="st5" width="7.842" height="6.525"/>
<path class="st7" d="M24.007,18.655h-8.297v-6.981h8.297V18.655z M16.165,18.2h7.387v-6.07h-7.387V18.2z"/>
<rect x="19.631" y="11.893" class="st7" width="0.455" height="6.663"/>
<rect x="16.189" y="14.984" class="st7" width="7.483" height="0.483"/>
<g class="st8">
	<defs>
		<path id="SVGID_2_" class="st8" d="M0.69,16.003l1.953,1.952l4.551-3.431L7.178,30.446l25.581-0.022l-0.004-15.9l4.602,3.431
			l1.953-1.952L20.793,1.83c-0.272-0.228-0.533-0.335-0.794-0.328c-0.262-0.007-0.521,0.1-0.792,0.328l-6.602,5.056V3.997h0.934
			V3.051H7.841v0.946h0.934v5.817L0.69,16.003z"/>
	</defs>
	<clipPath id="SVGID_3_">
		<use xlink:href="#SVGID_2_"  style="overflow:visible;"/>
	</clipPath>
	<linearGradient id="SVGID_4_" gradientUnits="userSpaceOnUse" x1="19.9535" y1="16.1913" x2="19.9535" y2="5.9661">
		<stop  offset="0" style="stop-color:#FFFFFF"/>
		<stop  offset="0.2654" style="stop-color:#AEAEAE"/>
		<stop  offset="0.5307" style="stop-color:#636363"/>
		<stop  offset="0.7488" style="stop-color:#2E2E2E"/>
		<stop  offset="0.9113" style="stop-color:#0C0C0C"/>
		<stop  offset="1" style="stop-color:#000000"/>
	</linearGradient>
	<path class="st9" d="M32.807,14.525L19.97,4.991L7.194,14.525c0,0-0.028,8.971-0.094,8.606c4.839-0.133,8.2-1.44,12.422-2.775
		c3.882-1.227,9.11-0.841,13.226,0.128L32.807,14.525z"/>
</g>
<path class="st10" d="M34.755,34.535"/>
<linearGradient id="SVGID_5_" gradientUnits="userSpaceOnUse" x1="19.4539" y1="29.7159" x2="19.4539" y2="39.1535">
	<stop  offset="0" style="stop-color:#808184"/>
	<stop  offset="0.2745" style="stop-color:#5E5D5F"/>
	<stop  offset="0.5813" style="stop-color:#3E3B3D"/>
	<stop  offset="0.8342" style="stop-color:#2A2728"/>
	<stop  offset="1" style="stop-color:#231F20"/>
</linearGradient>
<rect x="17.743" y="33.826" class="st11" width="3.423" height="4.768"/>
<linearGradient id="SVGID_6_" gradientUnits="userSpaceOnUse" x1="34.9348" y1="29.7159" x2="34.9348" y2="39.1535">
	<stop  offset="0" style="stop-color:#808184"/>
	<stop  offset="0.2745" style="stop-color:#5E5D5F"/>
	<stop  offset="0.5813" style="stop-color:#3E3B3D"/>
	<stop  offset="0.8342" style="stop-color:#2A2728"/>
	<stop  offset="1" style="stop-color:#231F20"/>
</linearGradient>
<rect x="33.224" y="33.826" class="st12" width="3.421" height="4.768"/>
<linearGradient id="SVGID_7_" gradientUnits="userSpaceOnUse" x1="25.8837" y1="18.9009" x2="27.5346" y2="38.7164">
	<stop  offset="0" style="stop-color:#EA2227"/>
	<stop  offset="0.1648" style="stop-color:#D7212A"/>
	<stop  offset="0.3598" style="stop-color:#C9202C"/>
	<stop  offset="0.5981" style="stop-color:#C0202E"/>
	<stop  offset="1" style="stop-color:#BE202E"/>
</linearGradient>
<path class="st13" d="M34.125,27.79H20.11c-3.621,0-3.519,3.896-3.519,3.896v4.233h21.052v-4.233
	C37.643,31.685,37.746,27.79,34.125,27.79z"/>
<linearGradient id="SVGID_8_" gradientUnits="userSpaceOnUse" x1="26.4085" y1="18.8561" x2="28.0597" y2="38.6749">
	<stop  offset="0" style="stop-color:#EA2227"/>
	<stop  offset="0.1648" style="stop-color:#D7212A"/>
	<stop  offset="0.3598" style="stop-color:#C9202C"/>
	<stop  offset="0.5981" style="stop-color:#C0202E"/>
	<stop  offset="1" style="stop-color:#BE202E"/>
</linearGradient>
<path class="st14" d="M34.755,34.535l2.01-5.598c2.113,0.057,1.886-1.718,1.886-1.718h-2.667c0,0-1.031-3.51-1.58-4.115
	c-0.557-0.607-13.749-0.631-14.554,0.039c-0.807,0.671-1.597,4.075-1.597,4.075h-2.667c0,0-0.229,1.775,1.883,1.718l1.823,5.598"/>
<linearGradient id="SVGID_9_" gradientUnits="userSpaceOnUse" x1="27.1191" y1="27.5045" x2="27.1191" y2="-2.3456">
	<stop  offset="0" style="stop-color:#FFFFFF"/>
	<stop  offset="0.0158" style="stop-color:#F3F8FC"/>
	<stop  offset="0.086" style="stop-color:#C2DCEE"/>
	<stop  offset="0.1618" style="stop-color:#96C3E1"/>
	<stop  offset="0.2415" style="stop-color:#70ADD6"/>
	<stop  offset="0.3261" style="stop-color:#4F9BCD"/>
	<stop  offset="0.4171" style="stop-color:#358CC6"/>
	<stop  offset="0.5168" style="stop-color:#2180C0"/>
	<stop  offset="0.6299" style="stop-color:#1378BC"/>
	<stop  offset="0.7677" style="stop-color:#0A73BA"/>
	<stop  offset="1" style="stop-color:#0872B9"/>
</linearGradient>
<path class="st15" d="M33.14,23.843c-0.604-0.225-3.757-0.194-6.021-0.142c-2.267-0.052-5.404-0.041-6.008,0.181
	c-1.275,0.47-1.504,3.969-1.504,3.969h15.024C34.631,27.851,34.415,24.313,33.14,23.843z"/>
<path class="st16" d="M29.893,28.453c0.003,0.859,0.697,1.553,1.555,1.557c0.856-0.003,1.552-0.698,1.552-1.557
	c0-0.213-0.045-0.416-0.122-0.602h-2.862C29.937,28.036,29.894,28.24,29.893,28.453z"/>
<path d="M31.447,26.899c0.644,0.003,1.196,0.394,1.43,0.952h0.79c-0.267-0.982-1.154-1.708-2.22-1.708
	c-1.066,0-1.953,0.726-2.22,1.708h0.787C30.252,27.294,30.803,26.902,31.447,26.899z"/>
<linearGradient id="SVGID_10_" gradientUnits="userSpaceOnUse" x1="27.2231" y1="44.9153" x2="27.2231" y2="28.0484">
	<stop  offset="0" style="stop-color:#808184"/>
	<stop  offset="0.2745" style="stop-color:#5E5D5F"/>
	<stop  offset="0.5813" style="stop-color:#3E3B3D"/>
	<stop  offset="0.8342" style="stop-color:#2A2728"/>
	<stop  offset="1" style="stop-color:#231F20"/>
</linearGradient>
<polygon class="st17" points="22.297,32.691 22.297,32.08 32.15,32.08 32.15,32.691 22.297,32.691 "/>
<linearGradient id="SVGID_11_" gradientUnits="userSpaceOnUse" x1="27.2231" y1="44.8494" x2="27.2231" y2="28.0766">
	<stop  offset="0" style="stop-color:#808184"/>
	<stop  offset="0.2745" style="stop-color:#5E5D5F"/>
	<stop  offset="0.5813" style="stop-color:#3E3B3D"/>
	<stop  offset="0.8342" style="stop-color:#2A2728"/>
	<stop  offset="1" style="stop-color:#231F20"/>
</linearGradient>
<polygon class="st18" points="22.297,34.037 22.297,33.431 32.15,33.431 32.15,34.037 22.297,34.037 "/>
<radialGradient id="SVGID_12_" cx="18.9702" cy="38.5551" r="2.7127" gradientTransform="matrix(0.5932 0 0 0.5932 8.1363 8.1363)" gradientUnits="userSpaceOnUse">
	<stop  offset="0" style="stop-color:#FFFFFF"/>
	<stop  offset="0.2754" style="stop-color:#FCFCFC"/>
	<stop  offset="0.5005" style="stop-color:#F2F2F2"/>
	<stop  offset="0.7074" style="stop-color:#E1E1E1"/>
	<stop  offset="0.8022" style="stop-color:#D7D7D6"/>
	<stop  offset="1" style="stop-color:#1A1A1A"/>
</radialGradient>
<circle class="st19" cx="19.389" cy="31.005" r="1.609"/>
<radialGradient id="SVGID_13_" cx="45.0684" cy="38.5551" r="2.7115" gradientTransform="matrix(0.5932 0 0 0.5932 8.1363 8.1363)" gradientUnits="userSpaceOnUse">
	<stop  offset="0" style="stop-color:#FFFFFF"/>
	<stop  offset="0.2754" style="stop-color:#FCFCFC"/>
	<stop  offset="0.5005" style="stop-color:#F2F2F2"/>
	<stop  offset="0.7074" style="stop-color:#E1E1E1"/>
	<stop  offset="0.8022" style="stop-color:#D7D7D6"/>
	<stop  offset="1" style="stop-color:#1A1A1A"/>
</radialGradient>
<ellipse class="st20" cx="34.87" cy="31.005" rx="1.607" ry="1.61"/>
</svg>
