<?xml version="1.0" encoding="utf-8"?>
<!-- Generator: Adobe Illustrator 20.0.0, SVG Export Plug-In . SVG Version: 6.00 Build 0)  -->
<svg version="1.1" id="Layer_1" xmlns="http://www.w3.org/2000/svg" xmlns:xlink="http://www.w3.org/1999/xlink" x="0px" y="0px"
	 viewBox="0 0 40 40" style="enable-background:new 0 0 40 40;" xml:space="preserve">
<style type="text/css">
	.st0{fill:url(#SVGID_1_);}
	.st1{fill:#D0D1D2;}
	.st2{fill-rule:evenodd;clip-rule:evenodd;fill:url(#SVGID_2_);}
	.st3{fill-rule:evenodd;clip-rule:evenodd;fill:url(#SVGID_3_);}
	.st4{fill-rule:evenodd;clip-rule:evenodd;fill:url(#SVGID_4_);}
	.st5{fill-rule:evenodd;clip-rule:evenodd;fill:url(#SVGID_5_);}
	.st6{fill-rule:evenodd;clip-rule:evenodd;fill:url(#SVGID_6_);}
	.st7{fill-rule:evenodd;clip-rule:evenodd;fill:#0655A3;}
	.st8{fill:url(#SVGID_7_);}
	.st9{fill-rule:evenodd;clip-rule:evenodd;fill:url(#SVGID_8_);}
	.st10{fill-rule:evenodd;clip-rule:evenodd;fill:url(#SVGID_9_);}
	.st11{fill-rule:evenodd;clip-rule:evenodd;fill:url(#SVGID_10_);}
	.st12{fill-rule:evenodd;clip-rule:evenodd;fill:url(#SVGID_11_);}
	.st13{fill-rule:evenodd;clip-rule:evenodd;fill:url(#SVGID_12_);}
	.st14{fill-rule:evenodd;clip-rule:evenodd;fill:url(#SVGID_13_);}
	.st15{fill-rule:evenodd;clip-rule:evenodd;fill:url(#SVGID_14_);}
	.st16{fill-rule:evenodd;clip-rule:evenodd;fill:#FFFFFF;}
	.st17{fill-rule:evenodd;clip-rule:evenodd;fill:url(#SVGID_15_);}
	.st18{opacity:0.45;clip-path:url(#SVGID_17_);}
	.st19{fill:#231F20;}
	.st20{clip-path:url(#SVGID_17_);}
	.st21{fill:url(#SVGID_18_);}
	.st22{fill:url(#SVGID_19_);}
	.st23{fill:url(#SVGID_20_);}
</style>
<g>
	<g>
		<linearGradient id="SVGID_1_" gradientUnits="userSpaceOnUse" x1="20" y1="39.7014" x2="20" y2="14.5277">
			<stop  offset="0" style="stop-color:#DFDFDD"/>
			<stop  offset="0.8901" style="stop-color:#F7F8F9"/>
		</linearGradient>
		<path class="st0" d="M36.479,15.762l-0.4-1.729c-0.181-0.78-0.484-1.287-0.72-1.516l-1.155-0.915V8.035c0,0,0.576-2.846-2.71-2.69
			h-5.183L21.006,1.14c-0.699-0.565-1.324-0.575-2.008,0L13.69,5.346c-2.939,0-5.211,0-5.904,0c-2.545,0-2.559,2.397-2.559,2.397
			v4.311l-0.585,0.463c-0.235,0.229-0.538,0.736-0.719,1.516l-0.401,1.729H3.503v23.526h32.994V15.762H36.479z"/>
		<path class="st1" d="M37.21,40H2.79V15.049h0.165l0.274-1.177c0.185-0.798,0.518-1.478,0.916-1.865L4.2,11.958l0.315-0.25V7.743
			c0.005-0.868,0.602-3.109,3.271-3.109h5.656l5.114-4.051c0.923-0.775,1.93-0.778,2.899,0.004l5.107,4.047h4.935
			c1.241-0.061,2.191,0.27,2.8,0.98c0.79,0.92,0.672,2.15,0.622,2.48v3.163l0.938,0.748c0.397,0.386,0.731,1.066,0.917,1.867
			l0.273,1.177h0.165V40z M4.215,38.575h31.57l-0.001-22.653l-0.4-1.729c-0.148-0.637-0.377-1.01-0.503-1.146l-1.39-1.102
			l0.014-4.051c0.001-0.004,0.152-0.842-0.297-1.358c-0.31-0.356-0.873-0.516-1.68-0.478l-5.465,0.001l-5.501-4.359
			c-0.446-0.36-0.693-0.361-1.107-0.013l-5.519,4.373H7.786c-1.785,0-1.845,1.515-1.846,1.688v4.651l-0.82,0.649
			c-0.126,0.138-0.355,0.511-0.503,1.147l-0.402,1.731V38.575z"/>
	</g>
	<linearGradient id="SVGID_2_" gradientUnits="userSpaceOnUse" x1="20" y1="0.6152" x2="20" y2="32.6976">
		<stop  offset="0.0549" style="stop-color:#FFFFFF"/>
		<stop  offset="0.3242" style="stop-color:#D7D7D6"/>
		<stop  offset="1" style="stop-color:#DFDFDD"/>
	</linearGradient>
	<path class="st2" d="M36.479,15.762l-0.4-1.729c-0.181-0.78-0.484-1.287-0.72-1.516L21.006,1.14c-0.699-0.565-1.324-0.575-2.008,0
		L4.642,12.516c-0.235,0.229-0.538,0.736-0.719,1.516l-0.401,1.729h-0.02v0.165h0.02l0.401,1.728
		c0.181,0.781,0.484,1.286,0.719,1.515l14.356,11.376c0.684,0.576,1.309,0.565,2.008,0L35.359,19.17
		c0.236-0.229,0.538-0.734,0.72-1.515l0.4-1.728h0.018v-0.165H36.479z"/>
	<linearGradient id="SVGID_3_" gradientUnits="userSpaceOnUse" x1="20" y1="0.2523" x2="20" y2="20.7055">
		<stop  offset="0" style="stop-color:#919396"/>
		<stop  offset="0.5" style="stop-color:#DBDBDC"/>
		<stop  offset="0.5667" style="stop-color:#C4C5C7"/>
		<stop  offset="0.6547" style="stop-color:#AEAFB1"/>
		<stop  offset="0.7501" style="stop-color:#9E9FA2"/>
		<stop  offset="0.8571" style="stop-color:#949699"/>
		<stop  offset="1" style="stop-color:#919396"/>
	</linearGradient>
	<path class="st3" d="M36.079,14.033c-0.181-0.78-0.484-1.287-0.72-1.516L21.006,1.14c-0.699-0.565-1.324-0.575-2.008,0
		L4.642,12.516c-0.235,0.229-0.538,0.736-0.719,1.516l-0.42,1.807v0.087l0.054-0.004l0.437-0.324l0.252-1.087
		c0.18-0.781,0.474-1.514,0.708-1.746L18.998,1.639c0.684-0.575,1.309-0.565,2.008,0l14.16,11.22
		c0.234,0.232,0.498,0.872,0.68,1.653l0.322,1.396l0.33,0.019V15.84L36.079,14.033z"/>
	<linearGradient id="SVGID_4_" gradientUnits="userSpaceOnUse" x1="20.0007" y1="4.8488" x2="20.0007" y2="8.1744">
		<stop  offset="0" style="stop-color:#FFFFFF"/>
		<stop  offset="1" style="stop-color:#D1D2D2"/>
	</linearGradient>
	<path class="st4" d="M20.001,3.135L7.117,13.344c-0.021,0.037-0.047,0.09-0.076,0.16h25.917c-0.028-0.069-0.055-0.123-0.076-0.16
		L20.001,3.135L20.001,3.135z"/>
	<linearGradient id="SVGID_5_" gradientUnits="userSpaceOnUse" x1="3.5028" y1="22.934" x2="36.4972" y2="22.934">
		<stop  offset="0" style="stop-color:#D1D2D2"/>
		<stop  offset="0.0549" style="stop-color:#838182"/>
		<stop  offset="0.9176" style="stop-color:#838182"/>
		<stop  offset="1" style="stop-color:#D1D2D2"/>
	</linearGradient>
	<path class="st5" d="M34.224,14.897h-0.206l-0.029,0.016c-0.642,0.063-1.257,0.416-2.11,1.192l-9.219,8.391l-1.208-0.957
		c-0.467-0.39-0.952-0.588-1.442-0.588c-0.494,0-0.971,0.191-1.453,0.581l-1.217,0.964l-9.218-8.391
		c-0.853-0.776-1.468-1.129-2.111-1.192l-0.029-0.016H5.777H3.994l-0.233-0.003l-0.045,0.034l-0.193,0.834h-0.02v0.165h0.02
		l0.401,1.728c0.181,0.781,0.484,1.286,0.719,1.515l14.356,11.376c0.684,0.576,1.309,0.565,2.008,0L35.359,19.17
		c0.236-0.229,0.538-0.734,0.72-1.515l0.4-1.728h0.018v-0.165h-0.018l-0.2-0.865h-0.059H34.224z"/>
	<linearGradient id="SVGID_6_" gradientUnits="userSpaceOnUse" x1="19.7352" y1="25.0373" x2="19.7352" y2="-2.9938">
		<stop  offset="0" style="stop-color:#ACE0F9"/>
		<stop  offset="0.0474" style="stop-color:#95D0F0"/>
		<stop  offset="0.1363" style="stop-color:#6FB7E1"/>
		<stop  offset="0.2326" style="stop-color:#4FA2D5"/>
		<stop  offset="0.3362" style="stop-color:#3590CB"/>
		<stop  offset="0.4497" style="stop-color:#2183C3"/>
		<stop  offset="0.5785" style="stop-color:#1379BD"/>
		<stop  offset="0.7354" style="stop-color:#0A74BA"/>
		<stop  offset="1" style="stop-color:#0872B9"/>
	</linearGradient>
	<path class="st6" d="M34.205,31.229H5.227V7.743c0,0,0.014-2.397,2.559-2.397c2.015,0,17.381,0,23.709,0
		c3.286-0.156,2.71,2.69,2.71,2.69V31.229L34.205,31.229z"/>
	<path class="st7" d="M34.205,15.644l-0.215,0.016c-0.642,0.066-1.257,0.415-2.11,1.194l-9.219,8.058c0,0-2.132-1.77-2.621-1.77
		c-0.495,0-2.699,1.77-2.699,1.77l-9.218-8.058c-0.853-0.779-1.468-1.128-2.111-1.194l-0.029-0.016H5.777h-0.55v18.847h28.978
		V15.644z"/>
	<linearGradient id="SVGID_7_" gradientUnits="userSpaceOnUse" x1="11.2215" y1="9.7291" x2="11.2215" y2="18.8194">
		<stop  offset="0.3022" style="stop-color:#838182"/>
		<stop  offset="1" style="stop-color:#FFFFFF"/>
	</linearGradient>
	<path class="st8" d="M3.605,15.921l-0.019,0.094v22.691c0,0,15.605-11.568,15.296-11.849L7.645,16.627
		c-0.972-0.884-1.437-1.019-1.857-1.019l-0.011-0.006H3.994v-0.003l-0.437,0.324L3.605,15.921z"/>
	<linearGradient id="SVGID_8_" gradientUnits="userSpaceOnUse" x1="28.7661" y1="9.7301" x2="28.7661" y2="18.8201">
		<stop  offset="0.3022" style="stop-color:#838182"/>
		<stop  offset="1" style="stop-color:#FFFFFF"/>
	</linearGradient>
	<path class="st9" d="M36.219,15.603h-1.995l-0.01,0.006c-0.42,0-0.886,0.134-1.859,1.019L21.121,26.858
		c-0.311,0.281,15.296,11.849,15.296,11.849V16.053L36.219,15.603z"/>
	<linearGradient id="SVGID_9_" gradientUnits="userSpaceOnUse" x1="21.1981" y1="27.598" x2="36.4972" y2="27.598">
		<stop  offset="0" style="stop-color:#CDCBCA"/>
		<stop  offset="0.2045" style="stop-color:#D1CFCE"/>
		<stop  offset="0.4274" style="stop-color:#DDDCDC"/>
		<stop  offset="0.6582" style="stop-color:#F0F1F1"/>
		<stop  offset="0.7253" style="stop-color:#F7F8F9"/>
		<stop  offset="0.8626" style="stop-color:#E8E8E9"/>
		<stop  offset="1" style="stop-color:#BFBCBB"/>
	</linearGradient>
	<path class="st10" d="M36.497,15.908h-2.19l-0.011,0.006c-0.42,0-0.885,0.136-1.858,1.031L21.203,27.296
		c-0.309,0.285,15.295,11.991,15.295,11.991V15.908L36.497,15.908z"/>
	<linearGradient id="SVGID_10_" gradientUnits="userSpaceOnUse" x1="16.1045" y1="27.598" x2="3.3002" y2="27.598">
		<stop  offset="0" style="stop-color:#CDCBCA"/>
		<stop  offset="0.7253" style="stop-color:#F7F8F9"/>
		<stop  offset="0.8626" style="stop-color:#E8E8E9"/>
		<stop  offset="1" style="stop-color:#BFBCBB"/>
	</linearGradient>
	<path class="st11" d="M3.503,15.908h2.192l0.009,0.006c0.422,0,0.886,0.136,1.859,1.031L18.8,27.296
		c0.308,0.285-15.297,11.991-15.297,11.991V15.908L3.503,15.908z"/>
	<linearGradient id="SVGID_11_" gradientUnits="userSpaceOnUse" x1="14.1378" y1="26.6542" x2="5.2476" y2="26.6542">
		<stop  offset="0" style="stop-color:#DFDFDD"/>
		<stop  offset="0.8901" style="stop-color:#F7F8F9"/>
		<stop  offset="0.989" style="stop-color:#E8E8E9"/>
	</linearGradient>
	<path class="st12" d="M5.388,35.509V17.8H5.62c0.087,0.05,0.293,0.189,0.665,0.532l9.728,8.962
		C13.929,28.989,9.742,32.217,5.388,35.509L5.388,35.509z"/>
	
		<linearGradient id="SVGID_12_" gradientUnits="userSpaceOnUse" x1="10653.167" y1="27.5993" x2="10644.2764" y2="27.5993" gradientTransform="matrix(-1 0 0 1 10677.9961 -0.001)">
		<stop  offset="0" style="stop-color:#DFDFDD"/>
		<stop  offset="0.8901" style="stop-color:#F7F8F9"/>
		<stop  offset="0.989" style="stop-color:#E8E8E9"/>
	</linearGradient>
	<path class="st13" d="M33.579,36.452V18.745h-0.23c-0.088,0.05-0.293,0.189-0.667,0.532l-9.727,8.963
		C25.039,29.933,29.226,33.161,33.579,36.452L33.579,36.452z"/>
	<linearGradient id="SVGID_13_" gradientUnits="userSpaceOnUse" x1="20" y1="23.8083" x2="20" y2="35.8353">
		<stop  offset="0" style="stop-color:#DFDFDF"/>
		<stop  offset="0.9725" style="stop-color:#838182"/>
	</linearGradient>
	<path class="st14" d="M36.497,38.786l-0.418-1.809c-0.181-0.78-0.484-1.284-0.72-1.517L21.006,24.087
		c-0.686-0.575-1.31-0.565-2.008,0L4.642,35.461c-0.235,0.233-0.538,0.737-0.719,1.517l-0.42,1.809v0.501h32.994V38.786z"/>
	<linearGradient id="SVGID_14_" gradientUnits="userSpaceOnUse" x1="20" y1="23.5818" x2="20" y2="39.2672">
		<stop  offset="0.5" style="stop-color:#F3F4F5"/>
		<stop  offset="0.7857" style="stop-color:#F3F4F5"/>
		<stop  offset="0.9505" style="stop-color:#D7D7D6"/>
		<stop  offset="1" style="stop-color:#A19F9F"/>
	</linearGradient>
	<path class="st15" d="M36.497,39.203l-0.418-1.807c-0.181-0.782-0.484-1.286-0.72-1.518L21.006,24.502
		c-0.686-0.575-1.31-0.566-2.008,0L4.642,35.878c-0.235,0.232-0.538,0.736-0.719,1.518l-0.42,1.807v0.085h32.994V39.203z"/>
	<path class="st16" d="M36.079,37.894c-0.181-0.78-0.484-1.286-0.72-1.518L21.006,24.999c-0.699-0.564-1.324-0.574-2.008,0
		L4.642,36.376c-0.235,0.232-0.538,0.737-0.719,1.518l-0.324,1.394H3.503v-0.085l0.42-1.807c0.181-0.782,0.484-1.286,0.719-1.518
		l14.356-11.375c0.684-0.575,1.309-0.566,2.008,0l14.354,11.375c0.236,0.232,0.538,0.736,0.72,1.518l0.418,1.807v0.085h-0.094
		L36.079,37.894z"/>
	
		<linearGradient id="SVGID_15_" gradientUnits="userSpaceOnUse" x1="20.0007" y1="-4410.2944" x2="20.0007" y2="-4399.3506" gradientTransform="matrix(1 0 0 -1 0 -4372.5977)">
		<stop  offset="0.0989" style="stop-color:#F0EFEF"/>
		<stop  offset="0.5275" style="stop-color:#FFFFFF"/>
		<stop  offset="0.7198" style="stop-color:#E7E4E4"/>
	</linearGradient>
	<path class="st17" d="M20.001,26.573L7.117,36.783c-0.021,0.036-0.047,0.088-0.076,0.159h25.917
		c-0.028-0.071-0.055-0.124-0.076-0.159L20.001,26.573L20.001,26.573z"/>
</g>
<g>
	<defs>
		<polygon id="SVGID_16_" points="12.259,20.468 9.306,17.858 8.835,7.587 29.636,7.33 29.737,18.693 27.602,20.577 		"/>
	</defs>
	<clipPath id="SVGID_17_">
		<use xlink:href="#SVGID_16_"  style="overflow:visible;"/>
	</clipPath>
	<g class="st18">
		<path class="st19" d="M9.742,8.666h6.56v1.939h-4.191v2.762h3.944v1.94h-3.944v5.096H9.742V8.666z"/>
		<path class="st19" d="M19.9,8.666l1.546,4.538h0.032l1.644-4.538h2.565l-3.042,7.117v4.621h-2.367v-4.621l-3.043-7.117H19.9z"/>
		<path class="st19" d="M26.999,20.404V8.666h2.367v11.738H26.999z"/>
	</g>
	<g class="st20">
		<linearGradient id="SVGID_18_" gradientUnits="userSpaceOnUse" x1="12.698" y1="10.8243" x2="12.869" y2="18.9553">
			<stop  offset="0" style="stop-color:#FFFFFF"/>
			<stop  offset="1" style="stop-color:#E6E6E6"/>
		</linearGradient>
		<path class="st21" d="M9.487,8.238h6.56v1.94h-4.193v2.762H15.8v1.939h-3.946v5.096H9.487V8.238z"/>
		<linearGradient id="SVGID_19_" gradientUnits="userSpaceOnUse" x1="21.2559" y1="10.6436" x2="21.4269" y2="18.7751">
			<stop  offset="0" style="stop-color:#FFFFFF"/>
			<stop  offset="1" style="stop-color:#E6E6E6"/>
		</linearGradient>
		<path class="st22" d="M19.643,8.238l1.545,4.538h0.034l1.644-4.538h2.565l-3.043,7.119v4.619h-2.367v-4.619L16.98,8.238H19.643z"
			/>
		<linearGradient id="SVGID_20_" gradientUnits="userSpaceOnUse" x1="27.8502" y1="10.5054" x2="28.0212" y2="18.6364">
			<stop  offset="0" style="stop-color:#FFFFFF"/>
			<stop  offset="1" style="stop-color:#E6E6E6"/>
		</linearGradient>
		<path class="st23" d="M26.742,19.977V8.238h2.367v11.738H26.742z"/>
	</g>
</g>
</svg>
