<?xml version="1.0" encoding="utf-8"?>
<!-- Generator: Adobe Illustrator 20.0.0, SVG Export Plug-In . SVG Version: 6.00 Build 0)  -->
<svg version="1.1" id="Layer_1" xmlns="http://www.w3.org/2000/svg" xmlns:xlink="http://www.w3.org/1999/xlink" x="0px" y="0px"
	 viewBox="0 0 40 40" style="enable-background:new 0 0 40 40;" xml:space="preserve">
<style type="text/css">
	.st0{fill:#BBBCBE;}
	.st1{fill:#A6A8AB;}
	.st2{fill:url(#SVGID_1_);}
	.st3{fill:url(#SVGID_2_);}
	.st4{fill:url(#SVGID_3_);}
	.st5{fill:url(#SVGID_4_);}
	.st6{fill:url(#SVGID_5_);}
	.st7{fill:url(#SVGID_6_);}
	.st8{fill:url(#SVGID_7_);}
	.st9{fill:url(#SVGID_8_);}
	.st10{fill:url(#SVGID_9_);}
	.st11{fill:url(#SVGID_10_);}
</style>
<path class="st0" d="M24.463,21.506c0.805-0.597,1.356-1.37,1.475-1.677c0.266-0.669-0.923-1.583-0.923-1.583l-0.731-0.623
	l6.294-7.837l3.182-2.036l2.509-4.144l-2.256-1.925l-3.699,3.125L28.8,8.272l-6.286,7.837l-0.729-0.623c0,0-1.087-1.029-1.706-0.665
	c-0.188,0.109-0.54,0.43-0.888,0.883l-0.711-0.782l-0.743,0.712l-0.262-0.284l0.638-0.614c-0.468-0.512-0.829-0.911-1.121-1.304
	c-0.325-0.436-0.567-0.893-0.684-1.404c-0.225-1.038-0.067-2.087,0.068-4.277c0.07-1.285-0.439-2.56-1.345-3.504
	c-0.595-0.621-1.355-1.1-2.223-1.354c-1.694-0.484-2.883-0.267-4.093,0.236l3.435,2.915c0.213,0.184,0.315,0.467,0.263,0.741
	l-0.697,3.772c-0.057,0.31-0.294,0.558-0.6,0.626l-3.613,0.829c-0.242,0.056-0.499-0.01-0.685-0.17L3.394,8.931
	c-0.221,2.303,0.502,4.344,1.694,5.586c0.561,0.585,1.22,0.995,1.937,1.206c0.906,0.262,1.611,0.198,2.372,0.093
	c0.748-0.097,1.57-0.276,2.52-0.006c0.356,0.117,0.568,0.282,0.849,0.481c0.271,0.202,0.554,0.438,0.813,0.666
	c0.523,0.455,0.964,0.882,0.97,0.888l0.033,0.031l0.115,0.13l0.643-0.617l0.261,0.287l-0.541,0.516l2.043,2.246
	c-0.295,0.314-0.673,0.61-1.189,0.882c-2.181,1.143-3.515,1.659-5.167,3.595l-5.781,6.768c0,0-2.246,2.624,0.255,4.749l1.697,1.45
	c2.487,2.137,4.732-0.49,4.732-0.49l5.78-6.768c1.654-1.937,1.954-3.334,2.743-5.668c0.099-0.291,0.21-0.547,0.332-0.773
	L31.96,36.776l0.014,0.019l0.018,0.018c0.884,0.925,2.361,0.974,3.3,0.111l0.039-0.039c0.928-0.888,0.984-2.359,0.111-3.307
	L24.463,21.506z M35.114,36.421c-0.681,0.802-1.884,0.898-2.687,0.217c-0.802-0.684-0.9-1.886-0.216-2.687
	c0.68-0.802,1.884-0.9,2.684-0.219C35.697,34.414,35.796,35.618,35.114,36.421z"/>
<path class="st1" d="M6.085,38.855l-1.696-1.45c-1.153-0.952-1.652-2.227-1.631-3.301l0,0c0.04-1.938,1.174-3.148,1.235-3.255l0,0
	l5.78-6.768c1.775-2.098,3.397-2.781,5.424-3.835l0,0l-0.46-0.507l-0.99-0.873l-0.094-0.107l-0.014-0.014
	c-0.013-0.011-0.03-0.027-0.05-0.045l0,0c-0.05-0.047-0.119-0.112-0.202-0.192l0,0c-0.172-0.158-0.402-0.371-0.65-0.586l0,0
	c-0.248-0.216-0.506-0.434-0.713-0.586l0,0c-0.319-0.229-0.361-0.258-0.46-0.296l0,0c-0.239-0.07-0.461-0.091-0.703-0.091l0,0
	c-0.376-0.004-0.791,0.068-1.292,0.137l0,0c-0.378,0.052-0.791,0.102-1.255,0.102l0,0c-0.502,0-1.057-0.061-1.651-0.237l0,0
	c-0.946-0.278-1.798-0.819-2.497-1.549l0,0c-1.312-1.374-2.09-3.39-2.092-5.651l0,0c0-0.312,0.017-0.626,0.047-0.943l0,0
	l0.235-2.445l5.105,4.342l3.056-0.701l0.587-3.169l-4.811-4.08l1.928-0.806c0.83-0.352,1.758-0.613,2.805-0.61l0,0
	c0.669,0,1.378,0.103,2.142,0.32l0,0c1.097,0.321,2.049,0.926,2.787,1.7l0,0c1.069,1.114,1.71,2.597,1.71,4.161l0,0
	c0,0.099,0,0.196-0.007,0.312l0,0c-0.089,1.411-0.18,2.35-0.18,3.002l0,0c0.002,0.375,0.029,0.648,0.084,0.908l0,0
	c0.067,0.299,0.208,0.584,0.463,0.925l0,0c0.115,0.158,0.255,0.325,0.421,0.516l0,0l0.789,0.664c0.06-0.042,0.117-0.081,0.179-0.12
	l0,0c0.331-0.203,0.691-0.268,0.973-0.267l0,0c0.817,0.031,1.275,0.359,1.654,0.593l0,0c0.114,0.079,0.217,0.157,0.301,0.224l0,0
	l5.353-6.676l1.564-3.584L34.019,0l3.909,3.337L34.703,8.67l-3.26,2.083l-5.378,6.701c0.106,0.1,0.239,0.226,0.378,0.379l0,0
	c0.303,0.373,0.764,0.821,0.814,1.787l0,0c0,0.212-0.036,0.446-0.125,0.673l0,0c-0.184,0.418-0.461,0.849-0.867,1.29l0,0
	l10.118,11.129c0.638,0.695,0.959,1.583,0.959,2.46l0,0c0,0.958-0.381,1.926-1.151,2.662l0,0l-0.036,0.031
	c-0.696,0.638-1.583,0.956-2.457,0.956l0,0c-0.956,0-1.92-0.379-2.659-1.148l0,0l-0.042-0.047l0.011,0.012L20.978,26.605
	c-0.552,1.673-1.097,3.133-2.573,4.85l0,0l-5.784,6.768c-0.104,0.074-1.348,1.71-3.655,1.778l0,0c-0.011,0-0.02,0-0.029,0l0,0
	C8.014,40,6.981,39.638,6.085,38.855L6.085,38.855z M18.846,20.449l-0.81,0.864c-0.393,0.422-0.901,0.81-1.53,1.14l0,0
	c-2.274,1.198-3.294,1.559-4.785,3.292l0,0L5.94,32.514c0.003,0.001-0.013,0.015-0.073,0.098l0,0
	C5.805,32.699,5.72,32.83,5.636,32.99l0,0c-0.172,0.32-0.318,0.744-0.313,1.115l0,0c0.018,0.413,0.092,0.784,0.731,1.352l0,0
	l1.698,1.449c0.529,0.445,0.884,0.521,1.216,0.527l0,0c0.687,0.045,1.564-0.689,1.695-0.862l0,0
	c0.012-0.013,0.012-0.015,0.011-0.013l0,0l5.782-6.767c1.478-1.749,1.678-2.81,2.508-5.248l0,0c0.117-0.351,0.255-0.674,0.413-0.967
	l0,0l0.857-1.599l10.625,11.684c0.104-0.191,0.227-0.372,0.374-0.541l0,0c0.346-0.408,0.777-0.71,1.245-0.896l0,0l-8.962-9.856
	l0.949-0.863l0.765,1.027l-0.765-1.027l-0.949,0.863l-0.948-1.047l1.131-0.843c0.367-0.265,0.696-0.631,0.887-0.88l0,0
	c-0.083-0.099-0.19-0.2-0.264-0.262l0,0c-0.065-0.058-0.085-0.073-0.139-0.116l0,0l-1.672-1.432l0,0l-1.604-1.371
	c0,0-0.01-0.009-0.054-0.049l0,0c-0.047-0.036-0.114-0.091-0.191-0.149l0,0c-0.044-0.034-0.094-0.067-0.143-0.096l0,0
	c-0.095,0.097-0.208,0.224-0.317,0.364l0,0l-0.936,1.204l-0.849-0.935l-0.738,0.703l-1.998-2.17l0.655-0.626
	c-0.128-0.155-0.251-0.307-0.369-0.466l0,0c-0.397-0.531-0.741-1.159-0.91-1.899l0,0c-0.104-0.486-0.143-0.968-0.143-1.464l0,0
	c0.003-0.867,0.101-1.794,0.182-3.147l0,0c0.004-0.059,0.005-0.116,0.005-0.167l0,0c0.004-0.852-0.359-1.726-1-2.389l0,0
	c-0.443-0.466-1.007-0.821-1.646-1.01l0,0c-0.29-0.081-0.551-0.136-0.792-0.173l0,0l1.317,1.116
	c0.475,0.406,0.727,0.984,0.727,1.581l0,0c0,0.122-0.009,0.237-0.032,0.375l0,0l-0.703,3.777c-0.149,0.8-0.758,1.452-1.567,1.633
	l0,0l-3.623,0.83c-0.157,0.034-0.311,0.052-0.453,0.048l0,0c-0.489,0-0.96-0.168-1.343-0.489l0,0l-0.96-0.817
	c0.247,0.665,0.594,1.22,0.99,1.629l0,0c0.421,0.44,0.882,0.72,1.363,0.862l0,0c0.358,0.103,0.636,0.134,0.934,0.134l0,0
	c0.268,0,0.559-0.031,0.917-0.078l0,0c0.406-0.051,0.957-0.161,1.63-0.163l0,0c0.426-0.001,0.906,0.048,1.453,0.206l0,0
	c0.57,0.184,0.953,0.484,1.218,0.672l0,0c0.313,0.235,0.616,0.489,0.891,0.73l0,0c0.094,0.082,0.184,0.161,0.274,0.24l0,0
	l0.702-0.674l1.997,2.171l-0.547,0.522L18.846,20.449L18.846,20.449z M33.179,34.785c-0.097,0.118-0.144,0.247-0.144,0.398l0,0
	c0,0.182,0.075,0.351,0.221,0.478l0,0c0.118,0.099,0.257,0.146,0.404,0.148l0,0c0.18-0.004,0.346-0.071,0.475-0.216l0,0v-0.001
	c0.1-0.125,0.146-0.261,0.147-0.409l0,0c-0.001-0.179-0.074-0.352-0.217-0.473l0,0c-0.125-0.105-0.258-0.15-0.406-0.151l0,0
	C33.48,34.56,33.31,34.632,33.179,34.785L33.179,34.785z M31.368,5.59l-1.312,3.005l2.76-1.761l1.792-2.964l-0.599-0.51L31.368,5.59
	L31.368,5.59z"/>
<linearGradient id="SVGID_1_" gradientUnits="userSpaceOnUse" x1="16.8854" y1="3.6155" x2="24.8829" y2="25.1552">
	<stop  offset="0.0989" style="stop-color:#A0A2A4"/>
	<stop  offset="0.2074" style="stop-color:#BCBEBF"/>
	<stop  offset="0.3187" style="stop-color:#D2D2D3"/>
	<stop  offset="0.4269" style="stop-color:#DFDFDF"/>
	<stop  offset="0.5275" style="stop-color:#E3E3E3"/>
	<stop  offset="0.5375" style="stop-color:#DCDCDC"/>
	<stop  offset="0.6125" style="stop-color:#ADAEAF"/>
	<stop  offset="0.6788" style="stop-color:#8B8C8E"/>
	<stop  offset="0.7334" style="stop-color:#77777A"/>
	<stop  offset="0.7696" style="stop-color:#6F7073"/>
</linearGradient>
<path class="st2" d="M14.55,17.845l17.41,18.93l0.014,0.019l0.018,0.018c0.884,0.925,2.361,0.974,3.3,0.111l0.039-0.039
	c0.928-0.888,0.984-2.359,0.111-3.307l-17.57-19.117L14.55,17.845z"/>
<linearGradient id="SVGID_2_" gradientUnits="userSpaceOnUse" x1="8.9791" y1="6.5518" x2="16.9769" y2="28.0922">
	<stop  offset="0.1029" style="stop-color:#6D6E70"/>
	<stop  offset="0.1456" style="stop-color:#7E7F81"/>
	<stop  offset="0.2656" style="stop-color:#AAAAAB"/>
	<stop  offset="0.3735" style="stop-color:#C9C9CA"/>
	<stop  offset="0.4645" style="stop-color:#DCDCDC"/>
	<stop  offset="0.5275" style="stop-color:#E3E3E3"/>
	<stop  offset="0.6094" style="stop-color:#CACBCD"/>
	<stop  offset="0.6988" style="stop-color:#B6B7BA"/>
	<stop  offset="0.7582" style="stop-color:#AEB0B3"/>
</linearGradient>
<path class="st3" d="M16.309,12.028c-0.225-1.038-0.067-2.087,0.068-4.277c0.07-1.285-0.439-2.56-1.345-3.504
	c-0.595-0.621-1.355-1.1-2.223-1.354c-1.694-0.484-2.883-0.267-4.093,0.236l3.435,2.915c0.213,0.184,0.315,0.467,0.263,0.741
	l-0.697,3.772c-0.057,0.31-0.294,0.558-0.6,0.626l-3.613,0.829c-0.242,0.056-0.499-0.01-0.685-0.17L3.394,8.931
	c-0.221,2.303,0.502,4.344,1.694,5.586c0.561,0.585,1.22,0.995,1.937,1.206c0.906,0.262,1.611,0.198,2.372,0.093
	c0.748-0.097,1.57-0.276,2.52-0.006c0.356,0.117,0.568,0.282,0.849,0.481c0.271,0.202,0.554,0.438,0.813,0.666
	c0.523,0.455,0.964,0.882,0.97,0.888l0.033,0.031l0.115,0.13l3.416-3.269c-0.468-0.512-0.829-0.911-1.121-1.304
	C16.668,12.996,16.426,12.54,16.309,12.028z"/>
<linearGradient id="SVGID_3_" gradientUnits="userSpaceOnUse" x1="20.5079" y1="20.6309" x2="34.8061" y2="37.0921">
	<stop  offset="0" style="stop-color:#BBBDBF"/>
	<stop  offset="0.1309" style="stop-color:#B2B4B6"/>
	<stop  offset="0.3461" style="stop-color:#9A9B9D"/>
	<stop  offset="0.6191" style="stop-color:#737375"/>
	<stop  offset="0.9362" style="stop-color:#3E3C3D"/>
	<stop  offset="1" style="stop-color:#323031"/>
</linearGradient>
<path class="st4" d="M15.055,17.078c-0.553-0.601-0.51-1.536,0.09-2.085l0,0c0.598-0.55,1.533-0.512,2.084,0.088l14.963,16.275
	c0.552,0.6,0.513,1.535-0.087,2.087l0,0c-0.597,0.552-1.534,0.51-2.086-0.089L15.055,17.078z"/>
<linearGradient id="SVGID_4_" gradientUnits="userSpaceOnUse" x1="26.177" y1="16.2175" x2="4.3546" y2="37.0997">
	<stop  offset="0" style="stop-color:#8BC53F"/>
	<stop  offset="0.2711" style="stop-color:#69AF3F"/>
	<stop  offset="0.5641" style="stop-color:#4C9B3F"/>
	<stop  offset="0.8173" style="stop-color:#3A8F3F"/>
	<stop  offset="1" style="stop-color:#348B3F"/>
</linearGradient>
<path class="st5" d="M25.015,18.246c0,0,1.189,0.914,0.923,1.583c-0.151,0.391-0.992,1.535-2.176,2.114
	c-1.18,0.584-2.799,0.681-3.589,3.011c-0.789,2.334-1.089,3.731-2.743,5.668l-5.78,6.768c0,0-2.245,2.627-4.732,0.49l-1.697-1.45
	c-2.5-2.125-0.255-4.749-0.255-4.749l5.781-6.768c1.652-1.936,2.986-2.452,5.167-3.595c2.179-1.145,2.022-2.761,2.415-4.015
	c0.391-1.259,1.386-2.27,1.75-2.481c0.619-0.365,1.706,0.665,1.706,0.665L25.015,18.246z"/>
<linearGradient id="SVGID_5_" gradientUnits="userSpaceOnUse" x1="11.3578" y1="28.69" x2="13.6014" y2="30.6076">
	<stop  offset="0.0989" style="stop-color:#F0EFEF"/>
	<stop  offset="0.5275" style="stop-color:#FFFFFF"/>
	<stop  offset="0.7198" style="stop-color:#E7E4E4"/>
</linearGradient>
<path class="st6" d="M17.628,25.897c0.53-0.622,0.458-1.552-0.163-2.085l0,0c-0.621-0.528-1.552-0.455-2.08,0.166l-8.052,9.427
	c-0.532,0.622-0.459,1.55,0.164,2.082l0,0c0.619,0.529,1.552,0.456,2.082-0.167L17.628,25.897z"/>
<linearGradient id="SVGID_6_" gradientUnits="userSpaceOnUse" x1="22.4276" y1="-85.5084" x2="22.1447" y2="-85.5084" gradientTransform="matrix(-0.7603 -0.6495 -0.6495 0.7603 -14.9016 99.757)">
	<stop  offset="0.0989" style="stop-color:#F0EFEF"/>
	<stop  offset="0.5275" style="stop-color:#FFFFFF"/>
	<stop  offset="0.7198" style="stop-color:#E7E4E4"/>
</linearGradient>
<path class="st7" d="M24.721,19.391c0.114-0.135,0.1-0.335-0.035-0.449l0,0c-0.133-0.115-0.336-0.099-0.45,0.035L22.5,21.01
	c-0.114,0.133-0.1,0.333,0.035,0.449l0,0c0.136,0.115,0.335,0.097,0.45-0.036L24.721,19.391z"/>
<linearGradient id="SVGID_7_" gradientUnits="userSpaceOnUse" x1="23.9739" y1="-85.5085" x2="23.6911" y2="-85.5085" gradientTransform="matrix(-0.7603 -0.6495 -0.6495 0.7603 -14.9016 99.757)">
	<stop  offset="0.0989" style="stop-color:#F0EFEF"/>
	<stop  offset="0.5275" style="stop-color:#FFFFFF"/>
	<stop  offset="0.7198" style="stop-color:#E7E4E4"/>
</linearGradient>
<path class="st8" d="M23.545,18.388c0.116-0.136,0.099-0.336-0.035-0.451l0,0c-0.135-0.112-0.335-0.099-0.449,0.034l-1.735,2.035
	c-0.116,0.135-0.101,0.333,0.032,0.449l0,0c0.136,0.113,0.334,0.098,0.451-0.036L23.545,18.388z"/>
<linearGradient id="SVGID_8_" gradientUnits="userSpaceOnUse" x1="25.5184" y1="-85.5071" x2="25.2348" y2="-85.5071" gradientTransform="matrix(-0.7603 -0.6495 -0.6495 0.7603 -14.9016 99.757)">
	<stop  offset="0.0989" style="stop-color:#F0EFEF"/>
	<stop  offset="0.5275" style="stop-color:#FFFFFF"/>
	<stop  offset="0.7198" style="stop-color:#E7E4E4"/>
</linearGradient>
<path class="st9" d="M22.37,17.382c0.118-0.134,0.1-0.334-0.036-0.447l0,0c-0.131-0.116-0.331-0.1-0.448,0.036l-1.737,2.032
	c-0.114,0.134-0.097,0.334,0.035,0.45l0,0c0.136,0.115,0.336,0.097,0.453-0.034L22.37,17.382z"/>
<linearGradient id="SVGID_9_" gradientUnits="userSpaceOnUse" x1="27.0643" y1="-85.5086" x2="26.782" y2="-85.5086" gradientTransform="matrix(-0.7603 -0.6495 -0.6495 0.7603 -14.9016 99.757)">
	<stop  offset="0.0989" style="stop-color:#F0EFEF"/>
	<stop  offset="0.5275" style="stop-color:#FFFFFF"/>
	<stop  offset="0.7198" style="stop-color:#E7E4E4"/>
</linearGradient>
<path class="st10" d="M21.195,16.38c0.117-0.133,0.099-0.336-0.034-0.45l0,0c-0.136-0.114-0.336-0.097-0.448,0.034l-1.737,2.036
	c-0.114,0.132-0.099,0.336,0.035,0.449l0,0c0.133,0.114,0.336,0.098,0.448-0.036L21.195,16.38z"/>
<linearGradient id="SVGID_10_" gradientUnits="userSpaceOnUse" x1="28.6404" y1="14.0481" x2="32.6539" y2="-8.3445">
	<stop  offset="0" style="stop-color:#DCDCDD"/>
	<stop  offset="0.1606" style="stop-color:#ADADAE"/>
	<stop  offset="0.3198" style="stop-color:#858586"/>
	<stop  offset="0.4762" style="stop-color:#676768"/>
	<stop  offset="0.6288" style="stop-color:#515152"/>
	<stop  offset="0.776" style="stop-color:#444445"/>
	<stop  offset="0.9118" style="stop-color:#404041"/>
</linearGradient>
<polygon class="st11" points="24.285,17.623 30.579,9.786 33.761,7.75 36.27,3.606 34.014,1.681 30.315,4.806 28.8,8.272 
	22.513,16.109 "/>
<path class="st1" d="M19.858,25.974c0.021-0.036,0.396-3.197,3.4-3.857l0,0c-0.001-0.013,0.271-0.054,0.724-0.299l0,0
	c0.454-0.245,1.05-0.669,1.598-1.389l0,0l1.009,0.761c-1.347,1.782-2.979,2.147-3.074,2.169l0,0c-1.02,0.206-1.594,0.859-1.958,1.53
	l0,0c-0.36,0.661-0.445,1.261-0.442,1.263l0,0v0.002L19.858,25.974L19.858,25.974z"/>
<path class="st1" d="M15.854,19.882c-0.003-0.008,0.003,0.002,0.077-0.049l0,0c0.078-0.058,0.201-0.162,0.339-0.337l0,0
	c0.276-0.346,0.624-0.977,0.775-2.094l0,0c0.012-0.118,0.165-1.293,1.561-2.918l0,0l0.964,0.823
	c-0.618,0.719-0.933,1.302-1.094,1.691l0,0c-0.164,0.388-0.167,0.521-0.169,0.546l0,0c-0.344,2.68-1.795,3.457-1.954,3.504l0,0
	v0.003L15.854,19.882L15.854,19.882z"/>
</svg>
