<?xml version="1.0" encoding="utf-8"?>
<!-- Generator: Adobe Illustrator 23.0.6, SVG Export Plug-In . SVG Version: 6.00 Build 0)  -->
<svg version="1.1" id="Layer_1" xmlns="http://www.w3.org/2000/svg" xmlns:xlink="http://www.w3.org/1999/xlink" x="0px" y="0px"
	 viewBox="0 0 180 131" style="enable-background:new 0 0 180 131;" xml:space="preserve">
<style type="text/css">
	.st0{fill:#3678BC;}
	.st1{fill:#FFFFFF;}
	.st2{fill-rule:evenodd;clip-rule:evenodd;fill:#231F20;}
	.st3{fill:none;stroke:#EB008B;stroke-width:0.3483;stroke-miterlimit:10;}
	.st4{fill:#231F20;}
</style>
<g>
	<g>
		<path class="st0" d="M0.02,100.52c0,1.42,1.24,2.57,2.77,2.57h40.71l-3.14,9.43l11.48-2.95l-1.32,11.78l10.62-5.27l1.16,11.8
			l9.3-7.36l3.58,11.3l7.56-9.14L88.6,133l5.49-10.51l7.87,8.87l3.19-11.42l9.55,7.04l0.75-11.83l10.8,4.9l-1.73-11.73l11.58,2.55
			l-2.89-7.76h44.04c1.53,0,2.77-1.15,2.77-2.57H0.02z"/>
		<path class="st0" d="M180.02,32.27L180.02,32.27c0-1.42-1.25-2.56-2.77-2.56h-44.06l3.16-9.5l-11.48,2.95l1.32-11.78l-10.62,5.27
			l-1.16-11.8l-9.29,7.36l-3.58-11.3l-7.56,9.14L88.11-0.26l-5.49,10.51l-7.87-8.87L71.56,12.8l-9.55-7.04L61.27,17.6l-10.8-4.9
			l1.73,11.73l-11.58-2.55l2.91,7.83H2.79c-1.53,0-2.77,1.15-2.77,2.56h0v68.24h180V32.27z"/>
	</g>
	<g>
		<g>
			<path class="st1" d="M173.12,34.85H6.85c-1.06,0-1.92,0.83-1.92,1.86V63.7c0,1.03,0.86,1.86,1.92,1.86h166.27
				c1.06,0,1.92-0.84,1.92-1.86V36.71C175.05,35.69,174.18,34.85,173.12,34.85z"/>
			<path class="st1" d="M173.03,67.18H6.76c-1.06,0-1.92,0.84-1.92,1.86v26.98c0,1.03,0.86,1.86,1.92,1.86h166.27
				c1.06,0,1.92-0.83,1.92-1.86V69.04C174.95,68.01,174.09,67.18,173.03,67.18z"/>
		</g>
		<path class="st2" d="M176.48,63.7V36.71c0-1.82-1.51-3.3-3.36-3.3H6.85c-1.85,0-3.36,1.48-3.36,3.3V63.7
			c0,1.08,0.53,2.03,1.35,2.63c-0.87,0.6-1.45,1.59-1.45,2.71v26.98c0,1.82,1.51,3.3,3.36,3.3h166.27c1.85,0,3.36-1.48,3.36-3.3
			V69.04c0-1.08-0.53-2.03-1.35-2.63C175.91,65.81,176.48,64.82,176.48,63.7z M174.95,96.02c0,1.03-0.86,1.86-1.92,1.86H6.75
			c-1.06,0-1.92-0.83-1.92-1.86V69.04c0-1.03,0.86-1.86,1.92-1.86h166.27c1.06,0,1.92,0.84,1.92,1.86V96.02z M175.05,63.7
			c0,1.03-0.86,1.86-1.92,1.86H6.85c-1.06,0-1.92-0.84-1.92-1.86V36.71c0-1.03,0.86-1.86,1.92-1.86h166.27
			c1.06,0,1.92,0.83,1.92,1.86V63.7z"/>
		<g>
			<path class="st3" d="M151.52,62.06"/>
			<path class="st4" d="M34.45,36.2v28.02h26.83V36.2H34.45z"/>
			<path class="st4" d="M62.44,36.2v28.02h26.82V36.2H62.44z"/>
			<path class="st4" d="M90.61,36.2v28.02h26.82V36.2H90.61z"/>
			<path class="st4" d="M118.78,36.2v28.02h26.83V36.2H118.78z"/>
			<path class="st4" d="M6.28,36.2v28.02H33.1V36.2H6.28z"/>
			<path class="st1" d="M20.31,60.05c-5.56,0-8.53-4.11-8.53-9.66c0-6.03,3.53-9.66,8.55-9.66c4.6,0,6.42,1.98,7.7,5.51l-4.71,1.85
				c-0.67-1.75-1.31-2.85-3.02-2.85c-2.17,0-3.11,2.17-3.11,5.15c0,2.87,0.91,5.15,3.16,5.15c1.63,0,2.33-0.88,3.34-2.66l4.39,2.34
				C26.84,57.67,24.75,60.05,20.31,60.05z"/>
			<path class="st1" d="M49.48,52.12h-3.1l0.35-1.23c0.67-2.38,0.97-3.42,1.21-4.67c0.24,1.26,0.53,2.27,1.2,4.67L49.48,52.12z
				 M57.38,59.54l-6.8-18.72h-5.24l-6.79,18.72h5.56l1.02-3.31h5.62l1.02,3.31H57.38z"/>
			<path class="st1" d="M78.47,47.14c0,1.34-0.67,2.09-2.36,2.09h-3.05v-4.1h3.13C77.83,45.13,78.47,45.96,78.47,47.14z
				 M84.01,59.63l-3.75-7.14c2.06-0.93,3.37-2.67,3.37-5.48c0-4.44-2.92-6.1-7.31-6.1h-8.38v18.72h5.11v-6.32h2.09l3.05,6.32H84.01z
				"/>
			<polygon class="st1" points="101.76,45.31 101.76,47.92 107.62,47.92 107.62,52.31 101.76,52.31 101.76,59.63 96.6,59.63 
				96.6,40.91 111.42,40.91 111.42,45.31 			"/>
			<path class="st1" d="M133.55,52.27h-3.1l0.35-1.23c0.67-2.38,0.96-3.42,1.2-4.68c0.24,1.26,0.54,2.27,1.21,4.68L133.55,52.27z
				 M141.44,59.69l-6.79-18.72h-5.24l-6.8,18.72h5.57l1.02-3.31h5.62l1.02,3.31H141.44z"/>
			<path class="st4" d="M146.76,36.16v28.02h26.82V36.16H146.76z M157.55,63.46l0.47-0.65c0.76-1.17,1.52-2.45,1.99-3.43
				c0.5,1.01,1.23,2.26,1.96,3.43l0.42,0.65C160.79,63.46,159.14,63.46,157.55,63.46z M172.87,63.46c-0.17,0-1.73,0-4,0l-5.64-8.02
				l6.47-9.1h-6.44l-1.14,1.81c-0.73,1.17-1.52,2.42-1.99,3.41c-0.44-0.99-1.23-2.24-1.96-3.41l-1.14-1.81h-6.59l6.47,9.21
				l-5.71,7.92c-2.11,0-3.54,0-3.7,0c0-0.69,0-25.89,0-26.58c0.69,0,24.69,0,25.38,0C172.87,37.57,172.87,62.77,172.87,63.46z"/>
			<path class="st4" d="M6.14,68.27v28.02h26.82V68.27H6.14z M32.24,68.99c0,0.69,0,25.89,0,26.58c-0.69,0-24.69,0-25.38,0
				c0-0.69,0-25.89,0-26.58C7.55,68.99,31.55,68.99,32.24,68.99z"/>
			<path class="st4" d="M34.35,68.52v28.02h26.83V68.52H34.35z"/>
			<path class="st4" d="M62.34,68.52v28.02h26.83V68.52H62.34z"/>
			<path class="st4" d="M90.51,68.52v28.02h26.82V68.52H90.51z"/>
			<path class="st4" d="M118.68,68.52v28.02h26.82V68.52H118.68z"/>
			<path class="st4" d="M146.91,68.73v28.02h26.82V68.73H146.91z"/>
			<path class="st4" d="M25.98,92.03v-3.45h-4.07V72.21h-4.34c-0.03,0.53-0.17,0.98-0.4,1.33c-0.24,0.36-0.57,0.64-0.99,0.85
				c-0.36,0.18-0.85,0.31-1.45,0.39c-0.6,0.08-1.21,0.12-1.82,0.12v3.25h4.17v10.42h-4.17v3.45H25.98z"/>
			<path class="st1" d="M56.36,82.59c-0.02,3.15-0.8,5.55-2.35,7.2c-1.57,1.68-3.63,2.54-6.15,2.57c-2.5-0.03-4.52-0.87-6.06-2.52
				c-1.57-1.65-2.36-4.05-2.37-7.21c0.02-3.18,0.82-5.6,2.4-7.26c1.54-1.65,3.57-2.48,6.1-2.5c2.53,0,4.55,0.83,6.09,2.48
				C55.56,77.01,56.34,79.42,56.36,82.59z M51.12,82.64c-0.03-3.46-1.12-5.19-3.26-5.21c-2.11,0.02-3.18,1.74-3.19,5.16
				c0.03,3.46,1.12,5.19,3.26,5.21C50.04,87.8,51.1,86.08,51.12,82.64z"/>
			<path class="st1" d="M82.8,91.83h-4.84l-0.87-4.1c-0.68-3.38-1.11-5.99-1.29-7.82c-0.17,1.84-0.61,4.44-1.29,7.82l-0.87,4.1
				h-4.77l-4.51-18.88h5.39l0.51,3.15c0.51,2.96,0.89,5.69,1.13,8.22c0.31-2.49,0.78-5.22,1.41-8.19l0.65-3.18h4.8l0.66,3.18
				c0.62,2.97,1.09,5.7,1.4,8.19c0.25-2.52,0.63-5.26,1.13-8.22l0.51-3.15h5.34L82.8,91.83z"/>
			<path class="st1" d="M107.76,91.83l-4.37-6.23c-1.12-1.63-2.07-3.11-2.85-4.42c0.09,0.47,0.14,1.19,0.16,2.16
				c0,0.98,0,1.88,0,2.73v5.77h-4.85V72.95h4.48l4.02,5.58c0.47,0.63,1.01,1.42,1.62,2.36c0.59,0.93,1,1.63,1.22,2.1
				c-0.02-0.21-0.02-0.52-0.02-0.94c-0.02-0.38-0.04-0.81-0.08-1.28c-0.03-0.97-0.05-1.85-0.05-2.66v-5.16h4.85v18.88H107.76z"/>
			<polygon class="st1" points="125.04,91.83 125.04,72.95 139.04,72.95 139.04,77.35 130.05,77.35 130.05,79.85 135.45,79.85 
				135.45,84.2 130.05,84.2 130.05,87.43 139.22,87.43 139.22,91.83 			"/>
			<path class="st1" d="M162.5,91.83l-3-6.39h-2.04v6.39h-4.98V72.95h8.18c2.18-0.03,3.91,0.43,5.2,1.37
				c1.27,0.97,1.91,2.56,1.93,4.77c-0.05,2.79-1.15,4.64-3.29,5.53l3.65,7.21H162.5z M162.75,79.24c0.02-1.31-0.73-1.99-2.23-2.02
				h-3.07v4.11h2.99C162,81.31,162.77,80.62,162.75,79.24z"/>
		</g>
	</g>
	<g>
		<path class="st1" d="M179.44,37.47c0,0.67-0.51,1.19-1.19,1.19s-1.19-0.52-1.19-1.19c0-0.67,0.51-1.19,1.19-1.19
			S179.44,36.8,179.44,37.47z M177.25,37.47c0,0.57,0.42,1.02,1,1.02c0.57,0,1-0.45,1-1.02c0-0.57-0.43-1.02-1-1.02
			C177.67,36.45,177.25,36.9,177.25,37.47z M177.99,38.16h-0.17v-1.37h0.53c0.31,0,0.45,0.13,0.45,0.38c0,0.24-0.16,0.35-0.34,0.38
			l0.41,0.61h-0.2l-0.39-0.61h-0.28V38.16z M178.21,37.4c0.21,0,0.41-0.01,0.41-0.24c0-0.19-0.16-0.24-0.33-0.24h-0.31v0.48H178.21z
			"/>
	</g>
</g>
</svg>
