<svg xmlns="http://www.w3.org/2000/svg" xmlns:xlink="http://www.w3.org/1999/xlink" viewBox="0 0 125 80"><defs><radialGradient id="radial-gradient" cx="62.88867" cy="39.82629" r="32.00001" gradientUnits="userSpaceOnUse"><stop offset="0.96174" stop-color="#fff"/><stop offset="0.99091" stop-color="#e3e3e3"/><stop offset="1" stop-color="#d9d9d9"/></radialGradient><radialGradient id="radial-gradient-2" cx="62.88867" cy="39.82629" r="32.17153" xlink:href="#radial-gradient"/><radialGradient id="radial-gradient-3" cx="61.27145" cy="26.80566" r="44.53035" gradientUnits="userSpaceOnUse"><stop offset="0" stop-color="#f2f2f2"/><stop offset="0.47315" stop-color="#f0f0f0"/><stop offset="0.64336" stop-color="#e9e9e9"/><stop offset="0.69825" stop-color="#e5e5e5"/><stop offset="0.86465" stop-color="#d9d9d9"/></radialGradient><radialGradient id="radial-gradient-4" cx="64.35766" cy="18.00034" r="51.97043" gradientUnits="userSpaceOnUse"><stop offset="0" stop-color="#fff"/><stop offset="0.55186" stop-color="#fdfdfd"/><stop offset="0.75039" stop-color="#f6f6f6"/><stop offset="0.89162" stop-color="#ebebeb"/><stop offset="0.9361" stop-color="#e5e5e5"/></radialGradient><radialGradient id="radial-gradient-5" cx="63.15407" cy="17.54873" r="54.42784" gradientUnits="userSpaceOnUse"><stop offset="0" stop-color="#f7f7f7"/><stop offset="0.59416" stop-color="#f5f5f5"/><stop offset="0.8079" stop-color="#eee"/><stop offset="0.9361" stop-color="#e5e5e5"/></radialGradient><radialGradient id="radial-gradient-6" cx="65.59802" cy="46.1481" fx="48.472295212130646" fy="39.01152371968582" r="32.13677" gradientUnits="userSpaceOnUse"><stop offset="0.01877" stop-color="#f2f2f2"/><stop offset="0.25717" stop-color="#ececec"/><stop offset="0.57518" stop-color="#dbdbdb"/><stop offset="0.60751" stop-color="#d9d9d9"/><stop offset="0.64806" stop-color="#d3d3d3"/><stop offset="0.70055" stop-color="#c3c3c3"/><stop offset="0.75962" stop-color="#a8a8a8"/><stop offset="0.8235" stop-color="#838383"/><stop offset="0.89127" stop-color="#535353"/><stop offset="0.96123" stop-color="#1a1a1a"/><stop offset="0.99"/></radialGradient><linearGradient id="linear-gradient" x1="82.03853" y1="13.86453" x2="84.69438" y2="13.86453" gradientUnits="userSpaceOnUse"><stop offset="0.02396" stop-color="#e5e5e5"/><stop offset="0.20388" stop-color="#e0e0e0"/><stop offset="0.40434" stop-color="#d3d3d3"/><stop offset="0.61466" stop-color="#bdbdbd"/><stop offset="0.83033" stop-color="#9e9e9e"/><stop offset="1" stop-color="gray"/></linearGradient><linearGradient id="linear-gradient-2" x1="69.40174" y1="45.5768" x2="56.91381" y2="25.60466" gradientUnits="userSpaceOnUse"><stop offset="0" stop-color="#d9d9d9"/><stop offset="0.30457" stop-color="#d6d6d6"/><stop offset="0.53042" stop-color="#cdcdcd"/><stop offset="0.7309" stop-color="#bdbdbd"/><stop offset="0.91555" stop-color="#a6a6a6"/><stop offset="1" stop-color="#999"/></linearGradient><linearGradient id="linear-gradient-3" x1="38.79802" y1="44.85959" x2="86.97932" y2="44.85959" gradientUnits="userSpaceOnUse"><stop offset="0.005" stop-color="#4c4c4c"/><stop offset="0.89783" stop-color="#636363"/><stop offset="1" stop-color="#666"/></linearGradient><radialGradient id="radial-gradient-7" cx="63.0806" cy="36.56362" fx="37.39958741788476" r="25.68114" gradientTransform="translate(111.92427 -26.60069) rotate(89.9019) scale(1 1.33881)" gradientUnits="userSpaceOnUse"><stop offset="0.77833" stop-color="#fff"/><stop offset="0.77984" stop-color="#e2e2e2"/><stop offset="0.78215" stop-color="#bcbcbc"/><stop offset="0.78472" stop-color="#9a9a9a"/><stop offset="0.78753" stop-color="#7e7e7e"/><stop offset="0.79067" stop-color="#676767"/><stop offset="0.79428" stop-color="#565656"/><stop offset="0.79864" stop-color="#494949"/><stop offset="0.80454" stop-color="#424242"/><stop offset="0.81867" stop-color="#404040"/><stop offset="0.82979" stop-color="#4d4d4d" stop-opacity="0.93377"/><stop offset="0.84146" stop-color="#727272" stop-opacity="0.73685"/><stop offset="0.85334" stop-color="#b1b1b1" stop-opacity="0.41045"/><stop offset="0.86432" stop-color="#fff" stop-opacity="0"/><stop offset="0.88252" stop-color="#fff" stop-opacity="0.14937"/><stop offset="0.93985" stop-color="#fff" stop-opacity="0.6021"/><stop offset="0.97934" stop-color="#fff" stop-opacity="0.88829"/><stop offset="0.99754" stop-color="#fff"/></radialGradient><linearGradient id="linear-gradient-4" x1="83.78103" y1="14.18277" x2="82.86655" y2="13.41922" gradientUnits="userSpaceOnUse"><stop offset="0.02396" stop-color="#fff"/><stop offset="0.17548" stop-color="#fafafa"/><stop offset="0.36223" stop-color="#ebebeb"/><stop offset="0.56741" stop-color="#d2d2d2"/><stop offset="0.78428" stop-color="#afafaf"/><stop offset="1" stop-color="#858585"/></linearGradient><linearGradient id="linear-gradient-5" x1="88.87591" y1="20.74076" x2="88.87793" y2="17.91026" gradientUnits="userSpaceOnUse"><stop offset="0.03367" stop-color="#d9d9d9"/><stop offset="0.20045" stop-color="#d4d4d4"/><stop offset="0.40594" stop-color="#c5c5c5"/><stop offset="0.63176" stop-color="#acacac"/><stop offset="0.87054" stop-color="#898989"/><stop offset="1" stop-color="#737373"/></linearGradient><linearGradient id="linear-gradient-6" x1="94.08224" y1="24.04614" x2="94.10286" y2="8.06574" gradientUnits="userSpaceOnUse"><stop offset="0" stop-color="#d9d9d9"/><stop offset="0.3878" stop-color="#d4d4d4"/><stop offset="0.86456" stop-color="#c5c5c5"/><stop offset="1" stop-color="#bfbfbf"/></linearGradient><linearGradient id="linear-gradient-7" x1="79.16035" y1="8.63523" x2="94.45951" y2="8.63523" gradientUnits="userSpaceOnUse"><stop offset="0.00395" stop-color="#f0f0f0"/><stop offset="1" stop-color="#c9c9c9"/></linearGradient><radialGradient id="radial-gradient-8" cx="61.47753" cy="38.02008" fx="28.79861505938773" r="32.67895" gradientTransform="matrix(0.28225, 0.95934, -1.07015, 0.31485, 84.81278, -32.92858)" gradientUnits="userSpaceOnUse"><stop offset="0.40235" stop-color="#e5e5e5"/><stop offset="0.56348" stop-color="#e3e3e3"/><stop offset="0.63731" stop-color="#dbdbdb"/><stop offset="0.69333" stop-color="#cfcfcf"/><stop offset="0.7404" stop-color="#bdbdbd"/><stop offset="0.78184" stop-color="#a5a5a5"/><stop offset="0.81932" stop-color="#888"/><stop offset="0.85303" stop-color="#666"/><stop offset="0.88367" stop-color="#404040"/></radialGradient><radialGradient id="radial-gradient-9" cx="62.88869" cy="39.8263" r="24.31184" gradientUnits="userSpaceOnUse"><stop offset="0.9225" stop-color="#b2b2b2"/><stop offset="0.93583" stop-color="#c3c3c3"/><stop offset="0.96036" stop-color="#ddd"/><stop offset="0.9825" stop-color="#ededed"/><stop offset="1" stop-color="#f2f2f2"/></radialGradient><linearGradient id="linear-gradient-8" x1="83.5974" y1="14.39498" x2="83.03563" y2="12.88631" gradientUnits="userSpaceOnUse"><stop offset="0.38195" stop-color="#fff"/><stop offset="0.46489" stop-color="#e4e4e4"/><stop offset="0.64459" stop-color="#aeaeae"/><stop offset="0.80011" stop-color="#878787"/><stop offset="0.92373" stop-color="#6f6f6f"/><stop offset="1" stop-color="#666"/></linearGradient><linearGradient id="linear-gradient-9" x1="88.82017" y1="19.28515" x2="89.60101" y2="20.16078" gradientUnits="userSpaceOnUse"><stop offset="0.00867" stop-color="#666"/><stop offset="0.40049" stop-color="#4a4a4a"/><stop offset="0.74416" stop-color="#393939"/><stop offset="1" stop-color="#333"/></linearGradient><radialGradient id="radial-gradient-10" cx="62.73259" cy="41.0181" r="36.55368" gradientUnits="userSpaceOnUse"><stop offset="0.96037" stop-color="#262626"/><stop offset="0.975" stop-color="#414141"/><stop offset="0.9804" stop-color="#4c4c4c"/></radialGradient><linearGradient id="linear-gradient-10" x1="93.70485" y1="23.60197" x2="93.63979" y2="22.50763" gradientUnits="userSpaceOnUse"><stop offset="0" stop-color="#262626"/><stop offset="0.77033" stop-color="#3f3f3f"/><stop offset="1" stop-color="#474747"/></linearGradient><linearGradient id="linear-gradient-11" x1="93.725" y1="15.91752" x2="94.45951" y2="15.91752" gradientUnits="userSpaceOnUse"><stop offset="0.005" stop-color="#737373"/><stop offset="0.30846" stop-color="#6e6e6e"/><stop offset="0.68147" stop-color="#5f5f5f"/><stop offset="1" stop-color="#4c4c4c"/></linearGradient><linearGradient id="linear-gradient-12" x1="86.80993" y1="8.06608" x2="86.80993" y2="8.97502" gradientUnits="userSpaceOnUse"><stop offset="0" stop-color="#c9c9c9"/><stop offset="1" stop-color="#fff"/></linearGradient><linearGradient id="linear-gradient-13" x1="78.81499" y1="9.78936" x2="79.75841" y2="8.47854" gradientUnits="userSpaceOnUse"><stop offset="0" stop-color="gray"/><stop offset="0.13625" stop-color="#868686"/><stop offset="0.32203" stop-color="#989898"/><stop offset="0.53636" stop-color="#b4b4b4"/><stop offset="0.77017" stop-color="#dcdcdc"/><stop offset="0.94741" stop-color="#fff"/></linearGradient><radialGradient id="radial-gradient-11" cx="62.62339" cy="41.01401" r="36.86856" gradientUnits="userSpaceOnUse"><stop offset="0.95278" stop-color="#262626"/><stop offset="0.96144" stop-color="#383838"/><stop offset="0.97245" stop-color="#4c4c4c"/></radialGradient><radialGradient id="radial-gradient-12" cx="64.3422" cy="45.39805" fx="44.912885448904106" r="30.50394" gradientUnits="userSpaceOnUse"><stop offset="0.01877" stop-color="#f2f2f2"/><stop offset="0.25663" stop-color="#ececec"/><stop offset="0.57392" stop-color="#dbdbdb"/><stop offset="0.60618" stop-color="#d9d9d9"/><stop offset="0.64684" stop-color="#d3d3d3"/><stop offset="0.70031" stop-color="#c3c3c3"/><stop offset="0.76089" stop-color="#a7a7a7"/><stop offset="0.82676" stop-color="#818181"/><stop offset="0.89689" stop-color="#515151"/><stop offset="0.96948" stop-color="#161616"/><stop offset="0.99436"/></radialGradient><radialGradient id="radial-gradient-13" cx="62.77632" cy="37.3292" fy="10.35143509054829" r="28.6898" gradientTransform="translate(0.12399 2.79632) rotate(0.2064) scale(1 0.91904)" gradientUnits="userSpaceOnUse"><stop offset="0.82986" stop-color="#fff"/><stop offset="0.8318" stop-color="#e2e2e2"/><stop offset="0.83477" stop-color="#bcbcbc"/><stop offset="0.83808" stop-color="#9a9a9a"/><stop offset="0.8417" stop-color="#7e7e7e"/><stop offset="0.84573" stop-color="#676767"/><stop offset="0.85037" stop-color="#565656"/><stop offset="0.85598" stop-color="#494949"/><stop offset="0.86356" stop-color="#424242"/><stop offset="0.88173" stop-color="#404040"/><stop offset="0.89411" stop-color="#484848" stop-opacity="0.95726"/><stop offset="0.9024" stop-color="#636363" stop-opacity="0.81831"/><stop offset="0.90948" stop-color="#909090" stop-opacity="0.58222"/><stop offset="0.91586" stop-color="#cfcfcf" stop-opacity="0.25079"/><stop offset="0.91953" stop-color="#fff" stop-opacity="0"/><stop offset="0.93019" stop-color="#fff" stop-opacity="0.14937"/><stop offset="0.96376" stop-color="#fff" stop-opacity="0.6021"/><stop offset="0.98688" stop-color="#fff" stop-opacity="0.88829"/><stop offset="0.99754" stop-color="#fff"/></radialGradient><radialGradient id="radial-gradient-14" cx="62.88867" cy="39.82626" r="24.53212" xlink:href="#radial-gradient-9"/><linearGradient id="linear-gradient-14" x1="54.81625" y1="8.48729" x2="89.96022" y2="33.46124" gradientUnits="userSpaceOnUse"><stop offset="0" stop-color="#fff" stop-opacity="0"/><stop offset="0.41019" stop-color="#fff" stop-opacity="0"/><stop offset="0.47776" stop-color="#fdfdfd" stop-opacity="0.02461"/><stop offset="0.55472" stop-color="#f9f9f9" stop-opacity="0.09664"/><stop offset="0.63629" stop-color="#f1f1f1" stop-opacity="0.2162"/><stop offset="0.72107" stop-color="#e6e6e6" stop-opacity="0.38347"/><stop offset="0.80837" stop-color="#d9d9d9" stop-opacity="0.59858"/><stop offset="0.89647" stop-color="#c8c8c8" stop-opacity="0.85769"/><stop offset="0.93978" stop-color="#bfbfbf"/><stop offset="0.96311" stop-color="silver" stop-opacity="0.99008"/><stop offset="0.97172" stop-color="#c2c2c2" stop-opacity="0.95425"/><stop offset="0.9779" stop-color="#c6c6c6" stop-opacity="0.89187"/><stop offset="0.98292" stop-color="#ccc" stop-opacity="0.80275"/><stop offset="0.98722" stop-color="#d3d3d3" stop-opacity="0.68665"/><stop offset="0.99104" stop-color="#dcdcdc" stop-opacity="0.5435"/><stop offset="0.99449" stop-color="#e7e7e7" stop-opacity="0.37289"/><stop offset="0.99757" stop-color="#f3f3f3" stop-opacity="0.18163"/><stop offset="1" stop-color="#fff" stop-opacity="0"/></linearGradient><linearGradient id="linear-gradient-15" x1="73.90875" y1="14.67416" x2="75.78147" y2="35.58628" gradientUnits="userSpaceOnUse"><stop offset="0.41782" stop-color="#fff" stop-opacity="0"/><stop offset="0.64773" stop-color="#fefefe" stop-opacity="0.00981"/><stop offset="0.73055" stop-color="#fcfcfc" stop-opacity="0.04536"/><stop offset="0.7896" stop-color="#f8f8f8" stop-opacity="0.10729"/><stop offset="0.83736" stop-color="#f2f2f2" stop-opacity="0.1958"/><stop offset="0.87827" stop-color="#ebebeb" stop-opacity="0.31112"/><stop offset="0.91449" stop-color="#e2e2e2" stop-opacity="0.45356"/><stop offset="0.94722" stop-color="#d7d7d7" stop-opacity="0.62315"/><stop offset="0.97632" stop-color="#cbcbcb" stop-opacity="0.81331"/><stop offset="1" stop-color="#bfbfbf"/></linearGradient><linearGradient id="linear-gradient-16" x1="60.09861" y1="29.49378" x2="65.12278" y2="48.09804" gradientUnits="userSpaceOnUse"><stop offset="0" stop-color="#fff"/><stop offset="0.21454" stop-color="#fafafa"/><stop offset="0.45197" stop-color="#ededed"/><stop offset="0.70032" stop-color="#d7d7d7"/><stop offset="0.95473" stop-color="#b8b8b8"/><stop offset="1" stop-color="#b2b2b2"/></linearGradient><linearGradient id="linear-gradient-17" x1="66.19331" y1="46.59319" x2="54.21719" y2="25.84994" gradientTransform="translate(2.6837 -1.175)" xlink:href="#linear-gradient-2"/><linearGradient id="linear-gradient-18" x1="66.91865" y1="56.84035" x2="54.24513" y2="35.96891" gradientTransform="translate(2.6837 -1.175)" gradientUnits="userSpaceOnUse"><stop offset="0" stop-color="#bfbfbf"/><stop offset="0.34046" stop-color="#bcbcbc"/><stop offset="0.5929" stop-color="#b3b3b3"/><stop offset="0.8163" stop-color="#a3a3a3"/><stop offset="1" stop-color="#8f8f8f"/></linearGradient><linearGradient id="linear-gradient-19" x1="60.23517" y1="46.34042" x2="60.2" y2="45.72402" gradientTransform="translate(2.6837 -1.175)" gradientUnits="userSpaceOnUse"><stop offset="0" stop-color="#d9d9d9"/><stop offset="1" stop-color="#ccc"/></linearGradient><linearGradient id="linear-gradient-20" x1="38.79974" y1="44.85959" x2="86.90197" y2="44.85959" gradientUnits="userSpaceOnUse"><stop offset="0.00871" stop-color="#999"/><stop offset="0.09688" stop-color="#d4d4d4"/><stop offset="0.16734" stop-color="#fff"/><stop offset="0.83381" stop-color="#fff"/><stop offset="0.93547" stop-color="#c2c2c2"/><stop offset="1" stop-color="#999"/></linearGradient><linearGradient id="linear-gradient-21" x1="60.20525" y1="36.22156" x2="60.20525" y2="35.60075" gradientTransform="translate(2.6837 -1.175)" gradientUnits="userSpaceOnUse"><stop offset="0" stop-color="#e5e5e5"/><stop offset="1" stop-color="#ccc"/></linearGradient><radialGradient id="radial-gradient-15" cx="61.53409" cy="39.48764" fx="50.93652992741673" fy="3.4342119446808184" r="37.57869" gradientTransform="translate(0.17009 2.3354) rotate(0.26331) scale(1 0.93371)" gradientUnits="userSpaceOnUse"><stop offset="0.51284" stop-color="#fff"/><stop offset="0.58715" stop-color="#fcfcfc"/><stop offset="0.64618" stop-color="#f2f2f2"/><stop offset="0.69998" stop-color="#e1e1e1"/><stop offset="0.75066" stop-color="#c9c9c9"/><stop offset="0.79919" stop-color="#ababab"/><stop offset="0.84606" stop-color="#858585"/><stop offset="0.89077" stop-color="#5a5a5a"/><stop offset="0.92498" stop-color="#333"/></radialGradient><linearGradient id="linear-gradient-22" x1="83.90771" y1="14.9462" x2="82.96749" y2="12.6742" gradientUnits="userSpaceOnUse"><stop offset="0" stop-color="#fff"/><stop offset="0.35364" stop-color="#c9c9c9"/><stop offset="0.73972" stop-color="#959595"/><stop offset="0.92842" stop-color="gray"/></linearGradient><linearGradient id="linear-gradient-23" x1="88.6517" y1="19.13524" x2="89.14024" y2="19.52673" gradientUnits="userSpaceOnUse"><stop offset="0.03341" stop-color="#666"/><stop offset="0.99058" stop-color="#404040"/></linearGradient><radialGradient id="radial-gradient-16" cx="62.90992" cy="40.17089" r="35.95719" gradientUnits="userSpaceOnUse"><stop offset="0.95865" stop-color="#707070"/><stop offset="0.97058" stop-color="#595959"/><stop offset="0.97258" stop-color="#656565"/><stop offset="0.98621" stop-color="#b2b2b2"/></radialGradient><linearGradient id="linear-gradient-24" x1="93.58318" y1="22.6998" x2="93.58064" y2="22.98554" gradientUnits="userSpaceOnUse"><stop offset="0" stop-color="#a6a6a6"/><stop offset="1" stop-color="#595959"/></linearGradient><linearGradient id="linear-gradient-25" x1="93.61122" y1="15.91752" x2="93.83876" y2="15.91752" gradientUnits="userSpaceOnUse"><stop offset="0" stop-color="#b2b2b2"/><stop offset="0.52619" stop-color="#a2a2a2"/><stop offset="1" stop-color="#999"/></linearGradient><linearGradient id="linear-gradient-26" x1="86.80995" y1="8.55096" x2="86.80995" y2="9.19636" gradientUnits="userSpaceOnUse"><stop offset="0.27597" stop-color="#d9d9d9"/><stop offset="0.41318" stop-color="#e4e4e4"/><stop offset="0.63948" stop-color="#fff"/></linearGradient><linearGradient id="linear-gradient-27" x1="79.89343" y1="8.9306" x2="79.89636" y2="9.572" gradientUnits="userSpaceOnUse"><stop offset="0" stop-color="#e5e5e5"/><stop offset="0.25871" stop-color="#e2e2e2"/><stop offset="0.47684" stop-color="#d7d7d7"/><stop offset="0.68023" stop-color="#c6c6c6"/><stop offset="0.87356" stop-color="#adadad"/><stop offset="1" stop-color="#999"/></linearGradient><radialGradient id="radial-gradient-17" cx="62.45463" cy="40.38545" r="35.95151" gradientUnits="userSpaceOnUse"><stop offset="0.77457" stop-color="#737373"/><stop offset="0.95028" stop-color="#b0b0b0"/><stop offset="0.99081" stop-color="#bfbfbf"/></radialGradient><radialGradient id="radial-gradient-18" cx="62.88867" cy="39.82628" fx="37.759153176925054" r="25.13203" gradientTransform="matrix(-0.26069, -0.96542, 1.13163, -0.30557, 34.21451, 112.71015)" gradientUnits="userSpaceOnUse"><stop offset="0.44694" stop-color="#fff"/><stop offset="0.56913" stop-color="#fcfcfc"/><stop offset="0.64603" stop-color="#f4f4f4"/><stop offset="0.71046" stop-color="#e5e5e5"/><stop offset="0.76801" stop-color="#d0d0d0"/><stop offset="0.82096" stop-color="#b6b6b6"/><stop offset="0.87053" stop-color="#949494"/><stop offset="0.91752" stop-color="#6d6d6d"/><stop offset="0.96126" stop-color="#414141"/><stop offset="0.98466" stop-color="#262626"/></radialGradient><radialGradient id="radial-gradient-19" cx="1927.33422" cy="1583.77027" r="3.36868" gradientTransform="matrix(0.89599, 4.32211, -10.68792, 2.21566, 15262.98923, -11799.37902)" gradientUnits="userSpaceOnUse"><stop offset="0" stop-color="#fff"/><stop offset="0.31997" stop-color="#f9f9f9"/><stop offset="0.72803" stop-color="#eaeaea"/><stop offset="1" stop-color="#dbdbdb"/></radialGradient></defs><g style="isolation:isolate"><g id="Layer_2" data-name="Layer 2"><path d="M87.58215,20.643l.06141.07927A31.25327,31.25327,0,1,1,82.02617,15.097l.07922.06157-.06686-.97212a31.99864,31.99864,0,1,0,6.51495,6.524Z" fill="url(#radial-gradient)"/><path d="M87.58215,20.643l.06141.07927A31.25327,31.25327,0,1,1,82.02617,15.097l.07922.06157-.06686-.97212a31.99864,31.99864,0,1,0,6.51495,6.524Z" fill="url(#radial-gradient-2)"/><path d="M39.31714,34.73616a24.11828,24.11828,0,0,1,47.143,0Zm23.57151,29.197A24.12778,24.12778,0,0,1,39.31714,44.91645h47.143A24.12771,24.12771,0,0,1,62.88865,63.93317Zm24.8448-43.28055,2.42845-2.42749a34.76746,34.76746,0,0,1,3.16133,4.72142l.51553-.00025V8.88874H79.78115V9.3972a34.77629,34.77629,0,0,1,4.74274,3.18291l-2.42795,2.427A31.38134,31.38134,0,0,0,40.70021,62.01478,31.38148,31.38148,0,0,0,87.73345,20.65262Z" fill="url(#radial-gradient-3)"/><path d="M39.31714,34.73616a24.11828,24.11828,0,0,1,47.143,0Zm23.57151,29.197A24.12778,24.12778,0,0,1,39.31714,44.91645h47.143A24.12771,24.12771,0,0,1,62.88865,63.93317Zm24.8448-43.28055,2.42845-2.42749a34.76746,34.76746,0,0,1,3.16133,4.72142l.51553-.00025V8.88874H79.78115V9.3972a34.77629,34.77629,0,0,1,4.74274,3.18291l-2.42795,2.427A31.38134,31.38134,0,0,0,40.70021,62.01478,31.38148,31.38148,0,0,0,87.73345,20.65262Z" fill="url(#radial-gradient-4)" style="mix-blend-mode:multiply"/><path d="M39.31714,34.73616a24.11828,24.11828,0,0,1,47.143,0Zm23.57151,29.197A24.12778,24.12778,0,0,1,39.31714,44.91645h47.143A24.12771,24.12771,0,0,1,62.88865,63.93317Zm24.8448-43.28055,2.42845-2.42749a34.76746,34.76746,0,0,1,3.16133,4.72142l.51553-.00025V8.88874H79.78115V9.3972a34.77629,34.77629,0,0,1,4.74274,3.18291l-2.42795,2.427A31.38134,31.38134,0,0,0,40.70021,62.01478,31.38148,31.38148,0,0,0,87.73345,20.65262Z" fill="url(#radial-gradient-5)" style="mix-blend-mode:multiply"/><path d="M84.98658,34.42575a22.75208,22.75208,0,0,0-44.19583,0l-1.856.62081-.13669.11378.02679-.13581a24.54108,24.54108,0,0,1,48.12773,0l.02678.13581-.14015-.11378Zm0,10.80111a22.752,22.752,0,0,1-44.19581,0l-1.856-.6208-.13669-.11375.02679.13581a24.54106,24.54106,0,0,0,48.12773,0l.02678-.13581-.14016.11375Z" fill="url(#radial-gradient-6)"/><polygon points="83.585 12.641 82.039 14.186 82.105 15.159 84.694 12.571 83.585 12.641" fill="url(#linear-gradient)"/><polygon points="40.791 34.426 84.987 34.426 86.839 35.047 86.979 35.16 38.798 35.16 38.935 35.047 40.791 34.426" fill="url(#linear-gradient-2)"/><polygon points="40.791 45.227 84.987 45.227 86.839 44.606 86.979 44.492 38.798 44.492 38.935 44.606 40.791 45.227" fill="url(#linear-gradient-3)"/><path d="M86.97934,35.16034l-.02678-.13581a24.54107,24.54107,0,0,0-48.12773,0l-.02679.13581.13669-.11378,1.856-.62081a22.75208,22.75208,0,0,1,44.19583,0l1.85261.62081ZM84.98658,45.22686a22.752,22.752,0,0,1-44.19581,0l-1.856-.6208-.13669-.11375.02679.13581a24.54106,24.54106,0,0,0,48.12773,0l.02678-.13581-.14016.11375Zm1.99276-10.06652-.02678-.13581a24.54107,24.54107,0,0,0-48.12773,0l-.02679.13581.13669-.11378,1.856-.62081a22.75208,22.75208,0,0,1,44.19583,0l1.85261.62081ZM84.98658,45.22686a22.752,22.752,0,0,1-44.19581,0l-1.856-.6208-.13669-.11375.02679.13581a24.54106,24.54106,0,0,0,48.12773,0l.02678-.13581-.14016.11375Z" fill="url(#radial-gradient-7)" style="mix-blend-mode:multiply"/><polygon points="83.585 12.641 82.039 14.186 82.105 15.159 84.694 12.571 83.585 12.641" fill="url(#linear-gradient-4)" style="mix-blend-mode:multiply"/><polygon points="90.172 18.055 87.582 20.643 88.553 20.71 90.1 19.164 90.172 18.055" fill="url(#linear-gradient-5)"/><polygon points="93.725 9.003 93.725 22.833 94.46 23.567 94.46 8.268 93.725 9.003" fill="url(#linear-gradient-6)"/><polygon points="94.46 8.268 79.16 8.268 79.895 9.003 93.725 9.003 94.46 8.268" fill="url(#linear-gradient-7)"/><path d="M87.58215,20.643l.06141.07927A31.25327,31.25327,0,1,1,82.02617,15.097l.07922.06157-.06686-.97212a31.99864,31.99864,0,1,0,6.51495,6.524Z" fill="url(#radial-gradient-8)" style="mix-blend-mode:multiply"/><path d="M84.98658,34.42575a22.75208,22.75208,0,0,0-44.19583,0l-1.856.62081-.13669.11378.02679-.13581a24.54108,24.54108,0,0,1,48.12773,0l.02678.13581-.14015-.11378Zm0,10.80111a22.752,22.752,0,0,1-44.19581,0l-1.856-.6208-.13669-.11375.02679.13581a24.54106,24.54106,0,0,0,48.12773,0l.02678-.13581-.14016.11375Z" fill="url(#radial-gradient-9)" style="mix-blend-mode:multiply"/><polygon points="83.585 12.641 82.039 14.186 82.105 15.159 84.694 12.571 83.585 12.641" fill="url(#linear-gradient-8)" style="mix-blend-mode:multiply"/><polygon points="90.172 18.055 87.582 20.643 88.553 20.71 90.1 19.164 90.172 18.055" fill="url(#linear-gradient-9)" style="mix-blend-mode:multiply"/><path d="M93.39,22.83278A35.01368,35.01368,0,0,0,90.251,18.15434l-.07932-.09983-.07133,1.11a34.27563,34.27563,0,0,1,2.84576,4.40292Z" fill="url(#radial-gradient-10)"/><polygon points="93.725 22.833 93.39 22.833 92.946 23.567 94.46 23.567 93.725 22.833" fill="url(#linear-gradient-10)"/><polygon points="93.725 9.003 93.725 22.833 94.46 23.567 94.46 8.268 93.725 9.003" fill="url(#linear-gradient-11)" style="mix-blend-mode:multiply"/><polygon points="94.46 8.268 79.16 8.268 79.895 9.003 93.725 9.003 94.46 8.268" fill="url(#linear-gradient-12)" style="mix-blend-mode:multiply"/><polygon points="79.16 8.268 79.16 9.776 79.895 9.33 79.895 9.003 79.16 8.268" fill="url(#linear-gradient-13)"/><path d="M79.16036,9.77571a34.21092,34.21092,0,0,1,4.4247,2.86509l1.10932-.07027-.0996-.07938A35.01494,35.01494,0,0,0,79.8949,9.33043Z" fill="url(#radial-gradient-11)"/><path d="M62.88867,64.35838a24.53191,24.53191,0,1,1,17.34686-7.18521A24.37176,24.37176,0,0,1,62.88867,64.35838Zm16.08018-8.4519a22.74083,22.74083,0,1,0-16.08017,6.66061A22.59193,22.59193,0,0,0,78.96885,55.90648Z" fill="url(#radial-gradient-12)"/><path d="M62.88869,64.2431a24.41677,24.41677,0,1,1,17.26544-7.15148A24.2574,24.2574,0,0,1,62.88869,64.2431Zm16.08016-8.33662a22.74083,22.74083,0,1,0-16.08017,6.66061A22.59193,22.59193,0,0,0,78.96885,55.90648Z" fill="url(#radial-gradient-13)" style="mix-blend-mode:multiply"/><path d="M62.88867,64.35838a24.53191,24.53191,0,1,1,17.34686-7.18521A24.37176,24.37176,0,0,1,62.88867,64.35838Zm16.08018-8.4519a22.74083,22.74083,0,1,0-16.08017,6.66061A22.59193,22.59193,0,0,0,78.96885,55.90648Z" fill="url(#radial-gradient-14)" style="mix-blend-mode:multiply"/><path d="M62.88869,15.29526A24.54956,24.54956,0,0,1,86.95256,35.02453l.02678.13581-.14015-.11378-1.85261-.62081A22.76184,22.76184,0,0,0,62.88867,17.08547Z" fill="url(#linear-gradient-14)"/><path d="M62.88869,15.29526A24.54956,24.54956,0,0,1,86.95256,35.02453l.02678.13581-.14015-.11378-1.85261-.62081A22.76184,22.76184,0,0,0,62.88867,17.08547Z" fill="url(#linear-gradient-15)" style="mix-blend-mode:multiply"/><path d="M86.84119,44.60606a24.79758,24.79758,0,0,0,0-9.5595H38.93671a24.79732,24.79732,0,0,0,0,9.5595Z" fill="#182871"/><path d="M86.84119,44.60606a24.79758,24.79758,0,0,0,0-9.5595H38.93671a24.79732,24.79732,0,0,0,0,9.5595Z" fill="url(#linear-gradient-16)" style="mix-blend-mode:multiply"/><path d="M84.98858,34.42575H40.79275l-1.856.62081H86.84119Z" fill="url(#linear-gradient-17)"/><path d="M86.83918,44.60606H38.93473l1.856.6208H84.98657Z" fill="url(#linear-gradient-18)"/><path d="M86.83918,44.60606H38.93473l1.856.6208H84.98657Z" fill="url(#linear-gradient-19)" style="mix-blend-mode:multiply"/><polygon points="38.8 44.492 86.981 44.492 86.841 44.606 84.988 45.227 40.792 45.227 38.936 44.606 38.8 44.492" fill="url(#linear-gradient-20)" style="mix-blend-mode:multiply"/><path d="M84.98858,34.42575H40.79275l-1.856.62081H86.84119Z" fill="url(#linear-gradient-21)" style="mix-blend-mode:multiply"/><path d="M87.43059,20.63366a31.14773,31.14773,0,1,1-5.31649-5.323l-.01816-.30355A31.38134,31.38134,0,0,0,40.70021,62.01478,31.38148,31.38148,0,0,0,87.73345,20.65262Z" fill="url(#radial-gradient-15)"/><polygon points="84.865 12.561 82.114 15.311 82.096 15.007 84.524 12.58 84.865 12.561" fill="url(#linear-gradient-22)"/><polygon points="90.162 18.225 87.733 20.653 87.431 20.634 90.181 17.884 90.162 18.225" fill="url(#linear-gradient-23)"/><path d="M93.32323,22.94655a34.76746,34.76746,0,0,0-3.16133-4.72142l.0194-.3411A34.99861,34.99861,0,0,1,93.457,22.71872Z" fill="url(#radial-gradient-16)"/><polygon points="93.839 22.946 93.323 22.947 93.457 22.719 93.611 22.719 93.839 22.946" fill="url(#linear-gradient-24)"/><polygon points="93.839 8.889 93.839 22.946 93.611 22.719 93.611 9.116 93.839 8.889" fill="url(#linear-gradient-25)"/><polygon points="93.611 9.116 80.009 9.116 79.781 8.889 93.839 8.889 93.611 9.116" fill="url(#linear-gradient-26)"/><polygon points="80.009 9.116 80.009 9.263 79.781 9.397 79.781 8.889 80.009 9.116" fill="url(#linear-gradient-27)"/><path d="M80.00869,9.26286a34.99335,34.99335,0,0,1,4.85631,3.298l-.34111.01928A34.77629,34.77629,0,0,0,79.78115,9.3972Z" fill="url(#radial-gradient-17)"/><path d="M62.88867,64.47109a24.64472,24.64472,0,1,1,17.42652-7.21827A24.48339,24.48339,0,0,1,62.88867,64.47109Zm17.26561-7.37917a24.4173,24.4173,0,1,0-17.26561,7.15163A24.25743,24.25743,0,0,0,80.15428,57.09192Z" fill="url(#radial-gradient-18)"/><path id="Text_V_Shadow_Left" data-name="Text V Shadow Left" d="M41.17273,37.51006l-.37678.37678a.12034.12034,0,0,0,.0854.03562h1.20522l.0004.00068.2446-.41308Z" fill="#a3a9c6"/><path id="Text_O2_Highlight" data-name="Text O2 Highlight" d="M80.47379,42.89721c2.48592,0,4.09219-1.18657,4.09219-3.0229,0-1.89028-1.57384-3.03408-4.10743-3.03408-2.52453,0-4.06221,1.1438-4.06221,3.03408C76.39634,41.71064,77.97843,42.89721,80.47379,42.89721Zm.0061-5.06393.02467.00049c.925.01985,1.322,1.05615,1.30693,2.07465-.01789,1.21279-.54356,1.98026-1.36453,1.97716l-.02171-.00024c-.78354-.01381-1.31687-.849-1.29634-2.02419C79.14524,38.92589,79.50875,37.83417,80.47989,37.83328Z" fill="#a3a9c6"/><path id="Text_O2_Shadow_Outer" data-name="Text O2 Shadow Outer" d="M77.60077,42.15563a2.62164,2.62164,0,0,1-1.11039-2.1822c0-1.87559,1.55841-3.04053,4.06723-3.04053a4.24615,4.24615,0,0,1,3.5806,1.4166,4.16993,4.16993,0,0,0-3.67966-1.53965c-2.52453,0-4.09248,1.17418-4.09248,3.06446A2.65819,2.65819,0,0,0,77.60077,42.15563Z"/><path id="Text_O2_Shadow_Inner" data-name="Text O2 Shadow Inner" d="M81.80776,39.90842c-.01976,1.16134-.57933,1.97244-1.3608,1.97244l-.02171-.00019c-.77322-.01381-1.30173-.82338-1.29574-1.97422l-.00127.0398c-.02143,1.21024.53411,2.06527,1.35057,2.07957l.02289.00019c.814,0,1.397-.83517,1.4176-2.03106.01651-.9249-.30279-1.86361-1.03964-2.0865A2.01629,2.01629,0,0,1,81.80776,39.90842Z"/><path id="Text_V2_Shadow_Right" data-name="Text V2 Shadow Right" d="M76.53843,37.408H73.48931l-.4783.47834a.121.121,0,0,0,.0858.03563l.96955-.00009-1.79092,3.31259L70.459,37.92236l1.21291-.00053a.12178.12178,0,0,0,.12135-.12138l-.00018-.74943a.12033.12033,0,0,0-.03479-.08422l-.54355.54321-2.64238.00005L70.95484,41.674l-1.00621,1.00573a.22053.22053,0,0,0,.1254.04835s2.76913.00245,2.83586.00245l.05866-.00009a.22511.22511,0,0,0,.17916-.10683l2.54194-4.70178,1.20552.00063a.12174.12174,0,0,0,.12147-.12132l.00019-.75012a.12085.12085,0,0,0-.03567-.08564Z" fill="#a3a9c6"/><path id="Text_V2_Shadow_Left" data-name="Text V2 Shadow Left" d="M66.39624,37.51006l-.377.37678a.12036.12036,0,0,0,.0854.03562H67.31l.00029.00068.24451-.41308Z" fill="#a3a9c6"/><polygon id="Text_V2_Highlight_Right" data-name="Text V2 Highlight Right" points="74.066 37.922 74.266 37.8 74.905 37.408 75.218 37.408 72.62 42.13 72.275 41.488 72.275 41.234 74.066 37.922"/><path id="Text_V2_Highlight_Top" data-name="Text V2 Highlight Top" d="M76.53843,37.408l.44273-.44257a.12031.12031,0,0,0-.0857-.03572H73.09671a.12169.12169,0,0,0-.12137.12136l.0001.74959a.12115.12115,0,0,0,.03557.08568l.4783-.47834Z"/><path id="Text_V2_Highlight_Left" data-name="Text V2 Highlight Left" d="M68.5724,37.51006,71.21478,37.51l.54355-.54321a.12054.12054,0,0,0-.08659-.03714h-5.5658a.122.122,0,0,0-.12156.12136l-.00089.75a.12074.12074,0,0,0,.03577.08579l.377-.37678h1.15855l-.24451.41308,2.584,4.69851a.19415.19415,0,0,0,.05436.05808l.07586-.073.93035-.9327Z"/><path id="Text_L_Shadow_Right" data-name="Text L Shadow Right" d="M67.51331,40.01042l-.44105.44115v1.61671H63.2681l.3471-.34711h0l.00088-3.80087h1.18381a.107.107,0,0,0,.12137-.12132v-.74746a.121.121,0,0,0-.03578-.08574l-.44213.44217H62.22051v4.80419H60.067l-.47593.47575a.12126.12126,0,0,0,.08569.03567l7.751-.0006a.1218.1218,0,0,0,.12136-.12135l-.0002-2.50539A.12163.12163,0,0,0,67.51331,40.01042Z" fill="#a3a9c6"/><path id="Text_L_Shadow_Left" data-name="Text L Shadow Left" d="M60.06842,37.408l-.47673.47663a.1207.1207,0,0,0,.08571.03572h1.19853l.51259-.51235Z" fill="#a3a9c6"/><path id="Text_L_Highlight_Right" data-name="Text L Highlight Right" d="M67.07226,42.06828V40.45157l.44105-.44115a.12129.12129,0,0,0-.08569-.03567H66.6835a.11656.11656,0,0,0-.11616.117A1.61749,1.61749,0,0,1,64.846,41.72107l-1.23077.0001-.3471.34711Z"/><path id="Text_L_Highlight_Left" data-name="Text L Highlight Left" d="M62.22051,42.21214V37.408h2.22284l.44213-.44217a.12093.12093,0,0,0-.08559-.03563l-5.12318-.00049a.12167.12167,0,0,0-.12128.12136l.0005.748a.121.121,0,0,0,.03576.0856l.47673-.47663h1.3201l-.51259.51235h0l.00137,3.80264H59.6768a.12176.12176,0,0,0-.12137.12136v.75778a.12119.12119,0,0,0,.03568.08581l.47593-.47575Z"/><path id="Text_O_Highlight" data-name="Text O Highlight" d="M55.25677,42.89721c2.48581,0,4.092-1.18657,4.092-3.0229,0-1.89028-1.57365-3.03408-4.10734-3.03408-2.52425,0-4.06213,1.1438-4.06213,3.03408C51.1793,41.71064,52.7614,42.89721,55.25677,42.89721Zm.006-5.06393.02468.00049c.925.01985,1.32206,1.05615,1.307,2.07465-.018,1.21279-.54355,1.98026-1.36463,1.97716l-.0217-.00024c-.78345-.01381-1.31677-.849-1.29634-2.02419C53.9282,38.92589,54.29172,37.83417,55.26275,37.83328Z" fill="#a3a9c6"/><path id="Text_V_Shadow_Right" data-name="Text V Shadow Right" d="M51.31512,37.408H48.266l-.47829.47834a.12073.12073,0,0,0,.08569.03563l.96956-.00009-1.79387,3.31259-1.81325-3.31206,1.2126-.00053a.12181.12181,0,0,0,.12146-.12138L46.5697,37.051a.12023.12023,0,0,0-.03468-.08422l-.54356.54321-2.64247.00005L45.73153,41.674l-1.00622,1.00573a.22027.22027,0,0,0,.12539.04835s2.76915.00245,2.83577.00245l.05867-.00009a.22484.22484,0,0,0,.17916-.10683l2.54194-4.70178,1.20562.00063a.12172.12172,0,0,0,.12145-.12132l.0002-.75012a.12119.12119,0,0,0-.03568-.08564Z" fill="#a3a9c6"/><polygon id="Text_V_Highlight_Right" data-name="Text V Highlight Right" points="48.843 37.922 49.04 37.801 49.664 37.408 49.995 37.408 47.399 42.128 47.049 41.488 47.049 41.234 48.843 37.922"/><path id="Text_V_Highlight_Top" data-name="Text V Highlight Top" d="M51.31512,37.408l.44271-.44257a.121.121,0,0,0-.08578-.03572H47.87329a.12168.12168,0,0,0-.12136.12136l.0001.74959a.12078.12078,0,0,0,.03567.08568L48.266,37.408Z"/><path id="Text_V_Highlight_Left" data-name="Text V Highlight Left" d="M43.349,37.51006,45.99146,37.51l.54356-.54321a.12083.12083,0,0,0-.08678-.03714H40.88252a.12191.12191,0,0,0-.12147.12136l-.00088.75a.12071.12071,0,0,0,.03578.08579l.37678-.37678h1.15884l-.2446.41308,2.58389,4.69851a.19578.19578,0,0,0,.05445.05808L45.73153,41.674Z"/><path id="Text_O_Shadow_Inner" data-name="Text O Shadow Inner" d="M56.59063,39.90842c-.01975,1.16134-.57942,1.97244-1.3608,1.97244l-.0217-.00019c-.77312-.01381-1.30165-.82338-1.29574-1.97422l-.00118.0398c-.02163,1.21024.53411,2.06527,1.35047,2.07957l.0228.00019c.81419,0,1.39715-.83517,1.41779-2.03106.0165-.9249-.30279-1.86361-1.03963-2.0865A2.01659,2.01659,0,0,1,56.59063,39.90842Z"/><path id="Text_O_Shadow_Outer" data-name="Text O Shadow Outer" d="M52.38375,42.15563a2.62164,2.62164,0,0,1-1.11039-2.1822c0-1.87559,1.55841-3.04053,4.06713-3.04053a4.24648,4.24648,0,0,1,3.58069,1.4166,4.17035,4.17035,0,0,0-3.67975-1.53965c-2.52425,0-4.09239,1.17418-4.09239,3.06446A2.65815,2.65815,0,0,0,52.38375,42.15563Z"/><path id="Text_Face" data-name="Text Face" d="M80.4735,42.77594c-2.45871,0-3.98607-1.12769-3.98607-2.94319,0-1.76258,1.55862-2.90152,3.97083-2.90152,2.42156,0,3.98637,1.13894,3.98637,2.90152C84.44463,41.64825,82.923,42.77594,80.4735,42.77594Zm-.02221-.78088c1.05987-.00011,1.456-1.15648,1.4732-2.147.02183-1.24654-.56064-2.12782-1.4165-2.143l-.0229-.00019c-.85163,0-1.46112.86019-1.48206,2.0917-.01917,1.07944.41324,2.17646,1.42241,2.198Zm-25.19522.78088c-2.459,0-3.98655-1.12769-3.98655-2.94319,0-1.76258,1.55881-2.90152,3.971-2.90152,2.422,0,3.98685,1.13894,3.98685,2.90152C59.2274,41.64825,57.70563,42.77594,55.25607,42.77594Zm-.0223-.78088c1.05929-.00011,1.45533-1.15648,1.47263-2.147a2.81526,2.81526,0,0,0-.3418-1.477,1.25048,1.25048,0,0,0-1.07422-.666l-.0231-.00019c-.85134,0-1.46083.86015-1.48215,2.0917-.019,1.07954.414,2.17655,1.42279,2.198Zm17.55466.6142-2.76394-.00256L67.38173,37.801h-1.277l.00107-.75h5.56591l.00021.74949-1.4177.00063,2.02119,3.68732,1.94719-3.60039.04323-.08762-1.169.00016-.0001-.74959h3.79875l-.00029.75-1.278-.0006L73.0174,42.60907l-.229.00019Zm-25.22647,0-2.76364-.00256L42.15556,37.801H40.87889l.0002-.75h5.566l.00039.74949-1.4171.00063,2.0207,3.68732,1.99111-3.6879-1.16955,0V37.051H51.6692l-.00029.75-1.27815-.0006-2.59962,4.80862-.22918.00019Zm12.11484-.765h1.32188L60.9973,37.799h-1.32l-.0005-.748,5.12309.0005V37.799H63.49472l-.00089,4.04346,1.34655-.0001A1.72319,1.72319,0,0,0,66.683,40.09622h.74462l.0002,2.50539-7.751.00047Z" fill="url(#radial-gradient-19)"/></g></g></svg>