<svg id="Layer_16" data-name="Layer 16" xmlns="http://www.w3.org/2000/svg" viewBox="0 0 125 80"><defs><style>.cls-1{fill:#231f20;}</style></defs><title>Nissan</title><path class="cls-1" d="M11.23,37.2a8.51,8.51,0,0,1,16.07,0v0h2.55v-.31L28.8,36.8a1,1,0,0,1-1-.74l0-.08a9.42,9.42,0,0,0-17,0l0,.09a1.06,1.06,0,0,1-1,.73l-1.06.12v.31h2.56Z"/><path class="cls-1" d="M27.31,42.77v0a8.47,8.47,0,0,1-8,5.71h0a8.45,8.45,0,0,1-8-5.71v0H8.66v.31l1.06.12a1.06,1.06,0,0,1,1,.73l0,.09a9.44,9.44,0,0,0,8.52,5.4h0A9.45,9.45,0,0,0,27.78,44l0-.09a1,1,0,0,1,1-.74l1.06-.12v-.31Z"/><rect class="cls-1" x="12.54" y="38.69" width="0.58" height="2.62"/><polygon class="cls-1" points="11.26 41.31 11.26 38.69 10.68 38.69 10.68 40.64 8.75 38.69 8 38.69 8 41.31 8.58 41.31 8.58 39.34 10.53 41.31 11.26 41.31"/><path class="cls-1" d="M24.24,38.69,22.6,41.31h.7l.29-.47H25.5l.29.47h.71l-1.64-2.62Zm1,1.66H23.89l.66-1.06Z"/><path class="cls-1" d="M21.13,40.76H18.68v.54h2.55a.78.78,0,0,0,.71-.81.77.77,0,0,0-.67-.79H19.53l-.17,0a.23.23,0,0,1-.17-.23.23.23,0,0,1,.17-.22.37.37,0,0,1,.17,0h2.23v-.53h-2.5a.77.77,0,0,0,0,1.53h1.87a.26.26,0,0,1,0,.51"/><path class="cls-1" d="M16.78,40.76H14.33v.54h2.55a.78.78,0,0,0,.71-.81.77.77,0,0,0-.67-.79H15.18l-.17,0a.23.23,0,0,1-.17-.23.23.23,0,0,1,.17-.22.37.37,0,0,1,.17,0h2.23v-.53h-2.5a.77.77,0,0,0,0,1.53h1.87a.26.26,0,0,1,0,.51"/><polygon class="cls-1" points="30.52 41.31 30.52 38.69 29.94 38.69 29.94 40.64 28 38.69 27.26 38.69 27.26 41.31 27.84 41.31 27.84 39.34 29.78 41.31 30.52 41.31"/><path class="cls-1" d="M28.61,48v.65h-.1V48h-.29V47.9h.68V48Z"/><path class="cls-1" d="M29.73,47.9a3.71,3.71,0,0,1,.15.74h-.11a5.75,5.75,0,0,0-.11-.6l-.21.52h-.07a4.41,4.41,0,0,0-.21-.51,5.91,5.91,0,0,0-.11.59H29a7,7,0,0,1,.15-.74h.11c.07.13.13.3.21.48.09-.24.15-.37.2-.48Z"/><path class="cls-1" d="M39,37.4a5.1,5.1,0,0,1,1.53.22V38.7a4.5,4.5,0,0,0-1.42-.24,2,2,0,0,0-1.35.41,1.65,1.65,0,0,0,0,2.34A2.06,2.06,0,0,0,39,41.6a5.8,5.8,0,0,0,1.45-.25v1.14a7.72,7.72,0,0,1-1.54.17A3.37,3.37,0,0,1,36.8,42,2.35,2.35,0,0,1,36,40a2.58,2.58,0,0,1,.25-1.17A2.14,2.14,0,0,1,36.9,38a3.13,3.13,0,0,1,1-.47A3.57,3.57,0,0,1,39,37.4Z"/><path class="cls-1" d="M45.32,41h-3a.61.61,0,0,0,.25.45.92.92,0,0,0,.44.22,1.94,1.94,0,0,0,.49,0,5.49,5.49,0,0,0,1.62-.27v.92a5.58,5.58,0,0,1-1.65.29,2.59,2.59,0,0,1-1.74-.53,2,2,0,0,1-.62-1.59A1.85,1.85,0,0,1,41.73,39a2.4,2.4,0,0,1,1.58-.53,2.09,2.09,0,0,1,1.5.5,2,2,0,0,1,.51,1.47Zm-3-.74h1.81a1,1,0,0,0-.21-.63.72.72,0,0,0-.58-.23A.9.9,0,0,0,42.3,40.26Z"/><path class="cls-1" d="M47.06,38.56l.14.44a2.82,2.82,0,0,1,1.59-.52V39.6a3,3,0,0,0-1.5.4v2.57H46.11v-4Z"/><path class="cls-1" d="M52,38.56v.94H50.73v1.56a.78.78,0,0,0,.12.47.63.63,0,0,0,.48.16,2.16,2.16,0,0,0,.65-.11v.93a2.66,2.66,0,0,1-.9.15A1.82,1.82,0,0,1,50,42.34a1.3,1.3,0,0,1-.41-1.07V39.5h-.68v-.94h.72l.14-1h1v1Z"/><path class="cls-1" d="M53.94,38H52.62V37h1.32Zm-.07,4.58H52.69v-4h1.18Z"/><path class="cls-1" d="M56.69,36.92a2.44,2.44,0,0,1,.85.14V38a1.53,1.53,0,0,0-.6-.12.81.81,0,0,0-.5.11.49.49,0,0,0-.12.38v.18h1.24v.94H56.32v3.07H55.14V39.5h-.82v-.94h.82v-.25a1.26,1.26,0,0,1,.44-1.05A1.79,1.79,0,0,1,56.69,36.92ZM59.19,38H57.88V37h1.31Zm-.07,4.58H58v-4h1.17Z"/><path class="cls-1" d="M64.15,41h-3a.68.68,0,0,0,.25.45,1,1,0,0,0,.44.22,2,2,0,0,0,.5,0,5.59,5.59,0,0,0,1.62-.27v.92a5.63,5.63,0,0,1-1.65.29,2.55,2.55,0,0,1-1.74-.53,2,2,0,0,1-.63-1.59A1.86,1.86,0,0,1,60.57,39a2.38,2.38,0,0,1,1.58-.53,2.06,2.06,0,0,1,1.49.5,2,2,0,0,1,.51,1.47Zm-3-.74h1.8a.89.89,0,0,0-.21-.63.71.71,0,0,0-.58-.23A.89.89,0,0,0,61.14,40.26Z"/><path class="cls-1" d="M69.17,37.17v5.4H68.3l-.11-.35a2.43,2.43,0,0,1-1.36.43,2.13,2.13,0,0,1-1.51-.57,2,2,0,0,1-.61-1.53A1.92,1.92,0,0,1,65.33,39a2.29,2.29,0,0,1,1.55-.52,2.4,2.4,0,0,1,1.11.28V37.17Zm-3.23,3.37a1.08,1.08,0,0,0,.31.85,1.16,1.16,0,0,0,.8.29,1.6,1.6,0,0,0,.94-.31V39.73a1.84,1.84,0,0,0-1-.28,1.09,1.09,0,0,0-.79.28A1.07,1.07,0,0,0,65.94,40.54Z"/><path class="cls-1" d="M72.14,37.49H74.5c1.48,0,2.22.61,2.22,1.84a1.87,1.87,0,0,1-.2.88,1.49,1.49,0,0,1-.54.57,2.84,2.84,0,0,1-.7.3,3.33,3.33,0,0,1-.78.09H73.35v1.4H72.14Zm1.21,1v1.63h1a1.42,1.42,0,0,0,.79-.18.75.75,0,0,0,.28-.67.67.67,0,0,0-.29-.62,1.57,1.57,0,0,0-.8-.16Z"/><path class="cls-1" d="M78.45,38.56l.13.44a2.82,2.82,0,0,1,1.59-.52V39.6a3,3,0,0,0-1.5.4v2.57H77.49v-4Z"/><path class="cls-1" d="M84.83,41h-3a.68.68,0,0,0,.25.45,1,1,0,0,0,.44.22,2,2,0,0,0,.5,0,5.59,5.59,0,0,0,1.62-.27v.92a5.63,5.63,0,0,1-1.65.29,2.6,2.6,0,0,1-1.75-.53,2,2,0,0,1-.62-1.59A1.86,1.86,0,0,1,81.25,39a2.37,2.37,0,0,1,1.57-.53,2.07,2.07,0,0,1,1.5.5,2,2,0,0,1,.51,1.47Zm-3-.74h1.8a.89.89,0,0,0-.21-.63.72.72,0,0,0-.58-.23A.89.89,0,0,0,81.82,40.26Z"/><path class="cls-1" d="M88.44,40.83h-3V39.69h3Z"/><path class="cls-1" d="M90.79,37.56a3,3,0,0,1,1-.16,3,3,0,0,1,1,.16,3.3,3.3,0,0,1,.87.46,2.3,2.3,0,0,1,.64.82A2.61,2.61,0,0,1,94.51,40a3,3,0,0,1-.23,1.24,2,2,0,0,1-.62.83,2.79,2.79,0,0,1-.87.46,3.54,3.54,0,0,1-2,0,2.79,2.79,0,0,1-.87-.46,2,2,0,0,1-.61-.83A3,3,0,0,1,89,40a2.69,2.69,0,0,1,.24-1.15,2.08,2.08,0,0,1,.64-.81A2.81,2.81,0,0,1,90.79,37.56Zm2,1.32a1.58,1.58,0,0,0-2.1,0A1.47,1.47,0,0,0,90.3,40a1.56,1.56,0,0,0,.44,1.21,1.47,1.47,0,0,0,1,.4,1.45,1.45,0,0,0,1-.4A1.56,1.56,0,0,0,93.25,40,1.48,1.48,0,0,0,92.82,38.88Z"/><path class="cls-1" d="M100.51,38.56h1.24c0,.21-.12.49-.23.85s-.26.86-.5,1.51a15.29,15.29,0,0,1-.69,1.65H99.05a20.75,20.75,0,0,1-.78-2.27,17.66,17.66,0,0,1-.78,2.27H96.2c-.22-.46-.45-1-.69-1.66s-.39-1.15-.49-1.5-.17-.63-.22-.85H96c.07.33.18.81.35,1.44a15.26,15.26,0,0,0,.46,1.51,9,9,0,0,0,.34-1c.12-.42.23-.84.33-1.27s.16-.66.16-.67h1.19l.15.67c.11.43.22.85.34,1.27s.23.75.33,1a14.91,14.91,0,0,0,.47-1.51C100.32,39.37,100.44,38.89,100.51,38.56Z"/><path class="cls-1" d="M104.94,38.48a1.57,1.57,0,0,1,1.1.36,1.66,1.66,0,0,1,.39,1.24v2.49h-1.18V40.23a.9.9,0,0,0-.16-.59.68.68,0,0,0-.53-.19,1.93,1.93,0,0,0-1.15.38v2.74h-1.18v-4h1l.13.42A3,3,0,0,1,104.94,38.48Z"/><path class="cls-1" d="M111.46,41h-3a.64.64,0,0,0,.25.45.92.92,0,0,0,.44.22,1.94,1.94,0,0,0,.49,0,5.6,5.6,0,0,0,1.63-.27v.92a5.64,5.64,0,0,1-1.66.29,2.59,2.59,0,0,1-1.74-.53,2,2,0,0,1-.62-1.59,1.85,1.85,0,0,1,.64-1.53,2.4,2.4,0,0,1,1.58-.53,2.07,2.07,0,0,1,1.5.5,2,2,0,0,1,.51,1.47Zm-3-.74h1.81a1,1,0,0,0-.21-.63.72.72,0,0,0-.58-.23A.9.9,0,0,0,108.44,40.26Z"/><path class="cls-1" d="M116.48,37.17v5.4h-.88l-.11-.35a2.4,2.4,0,0,1-1.35.43,2.12,2.12,0,0,1-1.51-.57,2,2,0,0,1-.61-1.53,1.91,1.91,0,0,1,.61-1.55,2.31,2.31,0,0,1,1.55-.52,2.47,2.47,0,0,1,1.12.28V37.17Zm-3.23,3.37a1.08,1.08,0,0,0,.31.85,1.13,1.13,0,0,0,.79.29,1.63,1.63,0,0,0,1-.31V39.73a1.85,1.85,0,0,0-1-.28,1.05,1.05,0,0,0-.78.28A1,1,0,0,0,113.25,40.54Z"/></svg>