<svg xmlns="http://www.w3.org/2000/svg" viewBox="0 0 125 80"><defs><style>.cls-1{fill:#231f20;}.cls-2{fill:none;stroke:#231f20;stroke-miterlimit:10;}</style></defs><title>Audi Stacked copy</title><g id="Layer_3" data-name="Layer 3"><path class="cls-1" d="M30.3,37.13A15.15,15.15,0,0,0,34.68,36a4.27,4.27,0,0,0,2.67-3.67c0-2.79-3.91-5-9.52-5s-9.52,2.17-9.52,5A4.27,4.27,0,0,0,21,36a15.31,15.31,0,0,0,4.4,1.15L27.83,30l2.47,7.11Zm-2.47-8.21-4,5.39c-1.37-.12-3.74-1-3.74-2.57,0-2,3.44-3.82,7.79-3.82,4.56,0,7.79,1.84,7.79,3.82,0,1.56-2.36,2.44-3.73,2.56-.38-.49-4.06-5.38-4.06-5.38"/><path class="cls-1" d="M15.07,41.62v3.43s-1.21-3.21-1.24-3.3a.21.21,0,0,0-.22-.13H12.44V45.8h.79V42.41l1.23,3.26a.2.2,0,0,0,.21.13h1.19V41.62Z"/><path class="cls-1" d="M19.2,41.62V45.8h.92V44h1.66v-.76H20.12v-.87H21.8v-.77Z"/><polygon class="cls-1" points="40.52 41.62 40.52 42.43 41.55 42.43 41.55 45.8 42.49 45.8 42.49 42.43 43.52 42.43 43.52 41.62 40.52 41.62"/><rect class="cls-1" x="25.05" y="41.62" width="0.99" height="4.18"/><rect class="cls-1" x="36.36" y="41.62" width="0.99" height="4.18"/><rect class="cls-1" x="46.67" y="41.62" width="0.99" height="4.18"/><rect class="cls-1" x="8" y="41.62" width="0.99" height="4.18"/><path class="cls-1" d="M32.93,41.62h-.78v3.43s-1.22-3.21-1.25-3.3a.21.21,0,0,0-.22-.13H29.51V45.8h.79V42.41l1.23,3.26a.2.2,0,0,0,.2.13h1.2Z"/><line class="cls-2" x1="60.52" y1="27.37" x2="60.52" y2="52.65"/><path class="cls-1" d="M78.23,38.11a2.08,2.08,0,0,1-.86-.75,2,2,0,0,1-.32-1.16A2,2,0,0,1,77.37,35a2.18,2.18,0,0,1,.86-.76A2.58,2.58,0,0,1,79.37,34a3.25,3.25,0,0,1,1.44.37l-.18.32a2.37,2.37,0,0,0-.56-.23,2.82,2.82,0,0,0-.7-.1,2.2,2.2,0,0,0-.94.22,1.82,1.82,0,0,0-.71.64,1.84,1.84,0,0,0,0,1.92,1.88,1.88,0,0,0,.71.63,2.07,2.07,0,0,0,.95.22,2.45,2.45,0,0,0,.75-.12,2.22,2.22,0,0,0,.59-.25l.17.32a3,3,0,0,1-.66.28,2.71,2.71,0,0,1-.86.13A2.58,2.58,0,0,1,78.23,38.11Z"/><path class="cls-1" d="M85.42,38v.36H82.33V34.08h3v.36H82.72V36h1.52v.35H82.72V38Z"/><path class="cls-1" d="M89.72,38.31l-1.83-1.72H87.3v1.72h-.39V34.08h1.38a2,2,0,0,1,1.2.34A1.16,1.16,0,0,1,89.74,36a1.33,1.33,0,0,1-.55.44,1.74,1.74,0,0,1-.77.16l1.86,1.72ZM87.3,36.26h1a1.38,1.38,0,0,0,.64-.13,1,1,0,0,0,.41-.33.84.84,0,0,0-.19-1.11,1.56,1.56,0,0,0-1-.25H87.3Z"/><path class="cls-1" d="M94.78,34.44h-1.6v3.87h-.39V34.44H91.16v-.36h3.62Z"/><path class="cls-1" d="M96.15,34.08h.39v4.23h-.39Z"/><path class="cls-1" d="M98.72,34.44v1.61h1.83v.35H98.72v1.91h-.4V34.08h3.12v.36Z"/><path class="cls-1" d="M102.77,34.08h.4v4.23h-.4Z"/><path class="cls-1" d="M108,38v.36H105V34.08h3v.36h-2.66V36h1.53v.35h-1.53V38Z"/><path class="cls-1" d="M112.06,34.35a1.92,1.92,0,0,1,.81.73,2.08,2.08,0,0,1,.28,1.09,2.12,2.12,0,0,1-.28,1.1,2,2,0,0,1-.81.76,2.53,2.53,0,0,1-1.22.28h-1.31V34.08h1.31A2.64,2.64,0,0,1,112.06,34.35Zm-.25,3.37a1.81,1.81,0,0,0,.7-.64,1.79,1.79,0,0,0,.25-.92,1.69,1.69,0,0,0-.25-.9,1.59,1.59,0,0,0-.68-.6,2.21,2.21,0,0,0-1-.22h-.9V38h.9A2.13,2.13,0,0,0,111.81,37.72Z"/><path class="cls-1" d="M75.92,41.41a1.29,1.29,0,0,1,.55.51,1.34,1.34,0,0,1,.19.72,1.36,1.36,0,0,1-.19.72,1.29,1.29,0,0,1-.55.51,2,2,0,0,1-.88.18H73.83v1.4h-.39V41.22H75A1.87,1.87,0,0,1,75.92,41.41Zm0,2a1,1,0,0,0,0-1.52,1.42,1.42,0,0,0-1-.3h-1.1V43.7h1.1A1.42,1.42,0,0,0,75.93,43.4Z"/><path class="cls-1" d="M81,45.45l-1.83-1.72h-.59v1.72h-.39V41.22h1.38a2,2,0,0,1,1.2.34A1.16,1.16,0,0,1,81,43.13a1.35,1.35,0,0,1-.55.44,1.74,1.74,0,0,1-.77.16l1.86,1.72ZM78.54,43.4h1a1.38,1.38,0,0,0,.64-.13,1,1,0,0,0,.41-.33.84.84,0,0,0-.19-1.11,1.56,1.56,0,0,0-1-.25h-.94Z"/><path class="cls-1" d="M86,45.09v.36H82.92V41.22h3v.36H83.31v1.53h1.53v.36H83.31v1.62Z"/><path class="cls-1" d="M87.36,43.55h1.87v.35H87.36Z"/><path class="cls-1" d="M91.87,45.22a2.24,2.24,0,0,1-.8-.79,2.23,2.23,0,0,1,0-2.2,2.21,2.21,0,0,1,.8-.78,2.29,2.29,0,0,1,2.23,0,2.21,2.21,0,0,1,.8.78,2.23,2.23,0,0,1,0,2.2,2.25,2.25,0,0,1-3,.79Zm2-.32a1.84,1.84,0,0,0,.66-.67,1.74,1.74,0,0,0,0-1.8,1.74,1.74,0,0,0-.66-.66,1.73,1.73,0,0,0-1.79,0,1.74,1.74,0,0,0-.66.66,1.75,1.75,0,0,0,0,1.8,1.92,1.92,0,0,0,.66.67,1.73,1.73,0,0,0,1.79,0Z"/><path class="cls-1" d="M96.16,41.22h.41l1.16,3.61L99,41.35h.26l1.32,3.48,1.16-3.61h.41l-1.38,4.23h-.36l-1.28-3.39-1.28,3.39h-.35Z"/><path class="cls-1" d="M103.47,41.22h.29l2.86,3.54V41.22H107v4.23h-.29L103.86,42v3.5h-.39Z"/><path class="cls-1" d="M111.89,45.09v.36H108.8V41.22h3v.36h-2.65v1.53h1.52v.36h-1.52v1.62Z"/><path class="cls-1" d="M115.91,41.48a1.94,1.94,0,0,1,.81.74,2.06,2.06,0,0,1,.28,1.09,2.12,2.12,0,0,1-.29,1.1,2,2,0,0,1-.8.76,2.64,2.64,0,0,1-1.22.28h-1.31V41.22h1.31A2.77,2.77,0,0,1,115.91,41.48Zm-.25,3.38a1.78,1.78,0,0,0,.69-.64,1.81,1.81,0,0,0,0-1.82,1.65,1.65,0,0,0-.69-.61,2.31,2.31,0,0,0-1-.21h-.89v3.51h.89A2.2,2.2,0,0,0,115.66,44.86Z"/></g></svg>