<svg id="Layer_16" data-name="Layer 16" xmlns="http://www.w3.org/2000/svg" viewBox="0 0 125 80"><defs><style>.cls-1{fill:#17224e;}</style></defs><title>VW_Vertical</title><path class="cls-1" d="M62.73,47.81a15,15,0,0,1-14.9-14.94,14.6,14.6,0,0,1,.94-5.22l8.72,17.54c.11.23.25.42.53.42a.57.57,0,0,0,.52-.42l4-9c0-.09.09-.18.18-.18s.14.09.18.18l4,9c.11.23.26.42.53.42s.42-.19.53-.42l8.72-17.54a14.6,14.6,0,0,1,.94,5.22,15,15,0,0,1-14.9,14.94m0-18.32c-.09,0-.14-.09-.18-.19l-4.7-10.53a14.4,14.4,0,0,1,9.75,0L62.91,29.3c0,.1-.09.19-.18.19M58,40.29c-.09,0-.14-.09-.18-.18L50.2,24.82a15.33,15.33,0,0,1,5.36-5L61,31.92a.4.4,0,0,0,.42.28H64a.38.38,0,0,0,.41-.28L69.9,19.78a15.41,15.41,0,0,1,5.36,5L67.67,40.11c0,.09-.09.18-.18.18s-.14-.09-.18-.18l-2.86-6.53A.38.38,0,0,0,64,33.3H61.42a.4.4,0,0,0-.42.28l-2.85,6.53c0,.09-.09.18-.18.18m4.76,9A16.47,16.47,0,1,0,46.27,32.87,16.45,16.45,0,0,0,62.73,49.33"/><path class="cls-1" d="M9.75,59.31c0,1.7.79,2.85,2.25,2.85a4.31,4.31,0,0,0,1.88-.42l.45,1.32A5.5,5.5,0,0,1,12,63.6c-2.59,0-4-1.73-4-4.29S9.41,55,12,55a5.64,5.64,0,0,1,2.33.53l-.45,1.33A4.31,4.31,0,0,0,12,56.46C10.54,56.46,9.75,57.6,9.75,59.31Zm11,.61a8.35,8.35,0,0,1-.08,1H16.75a1.33,1.33,0,0,0,1.46,1.32,5.59,5.59,0,0,0,1.86-.36l.37,1.17a5.57,5.57,0,0,1-2.35.5A3.1,3.1,0,0,1,18,57.41,2.42,2.42,0,0,1,20.72,59.92Zm-1.49-.14A1.08,1.08,0,0,0,18,58.59,1.29,1.29,0,0,0,16.75,60h2.47A1.09,1.09,0,0,0,19.23,59.78Zm4.32-1.49h0l-.23-.7H22v5.83h1.63V59.37a1.53,1.53,0,0,1,1.27-.57,3.1,3.1,0,0,1,.58.05l.14-1.37a3,3,0,0,0-.58-.07A1.71,1.71,0,0,0,23.55,58.29Zm5.36-2H27.28v1.35L26.22,58v.89h1.06v3c0,1.17.6,1.71,1.9,1.71a6,6,0,0,0,1.36-.18V62.09a3.88,3.88,0,0,1-.94.17.61.61,0,0,1-.69-.67V58.84h1.67V57.59H28.91Zm3.71-1.45a.9.9,0,1,0,0,1.79.9.9,0,1,0,0-1.79Zm-.82,8.63h1.63V57.59H31.8Zm5.35-6.53c0-.53.17-.65.6-.65a5.57,5.57,0,0,1,.79.08V55a6.47,6.47,0,0,0-1-.08,1.75,1.75,0,0,0-2,1.92v.77l-1,.36v.89h1v4.58h1.63V58.84H38.6V57.59H37.15Zm3.35-2.1a.9.9,0,1,0,1,.89A.88.88,0,0,0,40.5,54.79Zm-.83,8.63h1.64V57.59H39.67Zm8.53-3.5a8.35,8.35,0,0,1-.08,1H44.23a1.33,1.33,0,0,0,1.46,1.32,5.54,5.54,0,0,0,1.86-.36l.38,1.17a5.62,5.62,0,0,1-2.36.5,3.1,3.1,0,0,1-.09-6.19A2.42,2.42,0,0,1,48.2,59.92Zm-1.48-.14a1.08,1.08,0,0,0-1.22-1.19A1.3,1.3,0,0,0,44.23,60h2.48A1.09,1.09,0,0,0,46.72,59.78ZM53.4,55H55v8.46H53.82l-.23-.52h0a3,3,0,0,1-1.85.7c-1.68,0-2.55-1.41-2.55-3.1s.87-3.09,2.55-3.09a2.64,2.64,0,0,1,1.65.6h0Zm0,4.14a2.43,2.43,0,0,0-1.17-.35c-1,0-1.39.71-1.39,1.75s.42,1.76,1.39,1.76a2.34,2.34,0,0,0,1.17-.36ZM65,57.6A2.25,2.25,0,0,1,62.45,60h-2v3.42h-.6V55.2h2.55C64.09,55.2,65,56,65,57.6Zm-.63,0c0-1.22-.69-1.83-2-1.83H60.5v3.66h1.87C63.7,59.43,64.39,58.82,64.39,57.6Zm2.56.58h0l-.08-.59H66.4v5.83H67V58.88A1.65,1.65,0,0,1,68.43,58,2,2,0,0,1,69,58l.1-.54a2.53,2.53,0,0,0-.64-.09A1.73,1.73,0,0,0,67,58.18Zm8,1.63a5,5,0,0,1-.08.8H70.44c0,1.42.7,2.44,2.18,2.44a2.81,2.81,0,0,0,1.74-.58l.26.46a3.16,3.16,0,0,1-2,.67c-1.94,0-2.76-1.36-2.76-3.12s1-3.07,2.63-3.07A2.27,2.27,0,0,1,74.9,59.81Zm-.6,0A1.68,1.68,0,0,0,72.48,58c-1.12,0-1.89.8-2,2.14h3.83A1.84,1.84,0,0,0,74.3,59.78Zm2.11.61H79.3v-.51H76.41Zm11.14-1.08c0,2.47-1,4.29-3.41,4.29s-3.41-1.82-3.41-4.29,1-4.29,3.41-4.29S87.55,56.83,87.55,59.31Zm-.63,0c0-2.06-.64-3.71-2.78-3.71s-2.78,1.65-2.78,3.71S82,63,84.14,63,86.92,61.36,86.92,59.31Zm8.44,3.3h0l-1.79-5H93l-1.79,5h0l-1.8-5h-.58v.07l2.09,5.76h.6l1.79-5.1h0l1.79,5.1h.6l2.09-5.76v-.07h-.58Zm6.43-5.2a3.5,3.5,0,0,0-2.06.71h0l-.06-.53h-.47v5.83h.58V58.67a3.33,3.33,0,0,1,2-.72c1.05,0,1.57.58,1.57,1.85v3.62h.58V59.71C103.89,58.21,103.17,57.41,101.79,57.41Zm8.87,2.4a4.08,4.08,0,0,1-.09.8H106.2c0,1.42.7,2.44,2.17,2.44a2.76,2.76,0,0,0,1.74-.58l.27.46a3.17,3.17,0,0,1-2,.67c-1.93,0-2.75-1.36-2.75-3.12s1-3.07,2.63-3.07A2.27,2.27,0,0,1,110.66,59.81Zm-.61,0A1.68,1.68,0,0,0,108.24,58c-1.12,0-1.89.8-2,2.14H110C110.05,60,110.05,59.86,110.05,59.78ZM117,55v8.46h-.46l-.07-.54h0a3.1,3.1,0,0,1-2,.72c-1.72,0-2.35-1.41-2.35-3.1s.63-3.09,2.35-3.09a3,3,0,0,1,2,.69h0V55Zm-.58,3.8a2.68,2.68,0,0,0-1.93-.81c-1.39,0-1.83,1.14-1.83,2.55s.44,2.55,1.83,2.55a2.64,2.64,0,0,0,1.93-.81Z"/></svg>