<svg id="Layer_16" data-name="Layer 16" xmlns="http://www.w3.org/2000/svg" viewBox="0 0 125 80"><defs><style>.cls-1{fill:#e91d25;}.cls-2{fill:#fff;}</style></defs><title>Toyota</title><path d="M40.5,47.63V42.17h1.66v5.25a1.89,1.89,0,1,0,3.77,0V42.17h1.64v5.46A3.2,3.2,0,0,1,44,51a3.2,3.2,0,0,1-3.53-3.35"/><path d="M48.52,50.34l.37-1.22a3.44,3.44,0,0,0,2,.71c.57,0,.93-.21.93-.64s-.49-.6-1.33-.87-1.82-.68-1.82-1.82,1-2,2.39-2a4.1,4.1,0,0,1,2,.53l-.28,1.17a3.62,3.62,0,0,0-1.76-.55c-.5,0-.88.2-.88.59s.51.6,1.15.77c1.26.32,2,.78,2,1.88S52.44,51,50.85,51a4.29,4.29,0,0,1-2.33-.64"/><path d="M58.64,47.05a1.43,1.43,0,0,0-1.42-1.32,1.57,1.57,0,0,0-1.52,1.32Zm1.55,1H55.65a1.71,1.71,0,0,0,1.89,1.61,3.33,3.33,0,0,0,2-.65l.38,1.2a4.3,4.3,0,0,1-2.53.73,3.22,3.22,0,0,1-.16-6.44c1.79,0,3,1.33,3,3.32Zm0,0"/><path d="M66.05,47.76a1.73,1.73,0,0,0-1.78-1.82,1.82,1.82,0,0,0,0,3.64,1.74,1.74,0,0,0,1.8-1.82m1.48-6.1v9.21H66v-1A2.21,2.21,0,0,1,63.94,51a3.23,3.23,0,0,1,0-6.44,2.31,2.31,0,0,1,2.06,1V41.66Zm0,0"/><path d="M79.19,42.17l-3.14,8.69h-1.8l-3.14-8.69h1.78l2.28,6.75,2.26-6.75Zm0,0"/><path d="M83.16,47.05a1.44,1.44,0,0,0-1.42-1.32,1.57,1.57,0,0,0-1.52,1.32Zm1.55,1H80.17a1.71,1.71,0,0,0,1.89,1.61,3.38,3.38,0,0,0,2-.65l.38,1.2A4.3,4.3,0,0,1,81.9,51a3.11,3.11,0,0,1-3.28-3.21,3.07,3.07,0,0,1,3.12-3.23c1.78,0,3,1.33,3,3.32Zm0,0"/><path d="M91.7,46.92v3.94H90.17V47.51c0-1.09-.4-1.61-1.26-1.61a1.5,1.5,0,0,0-1.55,1.65v3.31H85.83v-9.2h1.53v4a2.37,2.37,0,0,1,2.15-1.12c1.43,0,2.19.83,2.19,2.39"/><path d="M93.16,44.67h1.53v6.19H93.16Zm-.16-2a.94.94,0,0,1,1.88,0,.94.94,0,1,1-1.88,0"/><path d="M95.78,47.79A3.12,3.12,0,0,1,99,44.54a3.85,3.85,0,0,1,2.1.6l-.46,1.3a2.67,2.67,0,0,0-1.53-.51,1.84,1.84,0,0,0,0,3.67,3.31,3.31,0,0,0,1.69-.54l.38,1.27A3.9,3.9,0,0,1,99,51a3.06,3.06,0,0,1-3.22-3.19"/><path d="M102.13,49.16v-7.5h1.53v7.25c0,.52.21.72.58.72a1.73,1.73,0,0,0,.57-.12l.17,1.21a2.66,2.66,0,0,1-1.17.26c-1,0-1.68-.56-1.68-1.82"/><path d="M109.84,47.05a1.43,1.43,0,0,0-1.42-1.32,1.56,1.56,0,0,0-1.51,1.32Zm1.56,1h-4.54a1.7,1.7,0,0,0,1.88,1.61,3.38,3.38,0,0,0,2-.65l.38,1.2a4.36,4.36,0,0,1-2.54.73,3.22,3.22,0,0,1-.16-6.44c1.79,0,3,1.33,3,3.32Zm0,0"/><path d="M112.12,50.34l.37-1.22a3.42,3.42,0,0,0,2,.71c.56,0,.93-.21.93-.64s-.49-.6-1.34-.87-1.82-.68-1.82-1.82,1-2,2.4-2a4.1,4.1,0,0,1,2,.53l-.28,1.17a3.65,3.65,0,0,0-1.76-.55c-.51,0-.89.2-.89.59s.52.6,1.15.77c1.26.32,2,.78,2,1.88S116,51,114.45,51a4.29,4.29,0,0,1-2.33-.64"/><path d="M40.06,33.5A4.34,4.34,0,0,1,44.62,29a5.1,5.1,0,0,1,2.86.84L47,31.36a3.87,3.87,0,0,0-2.27-.79,2.92,2.92,0,0,0,0,5.83,4.29,4.29,0,0,0,2.47-.83L47.62,37a5,5,0,0,1-3.06.93,4.28,4.28,0,0,1-4.5-4.45"/><path d="M52.86,34a1.45,1.45,0,0,0-1.42-1.32A1.57,1.57,0,0,0,49.92,34Zm1.55,1H49.87a1.7,1.7,0,0,0,1.88,1.61,3.32,3.32,0,0,0,2-.65l.38,1.2A4.32,4.32,0,0,1,51.6,38a3.1,3.1,0,0,1-3.28-3.2,3.07,3.07,0,0,1,3.12-3.23c1.78,0,3,1.32,3,3.31Zm0,0"/><path d="M59.36,31.65l-.25,1.47a2.14,2.14,0,0,0-.64-.12c-1,0-1.42.67-1.42,1.9v2.93H55.53V31.64h1.52v1a1.6,1.6,0,0,1,1.51-1.13,2.19,2.19,0,0,1,.8.15"/><path d="M60.77,35.92v-3h-1V31.64h1V29.9l1.53-.19v1.93H64v1.28H62.3v2.79c0,.59.27.86.73.86a2.37,2.37,0,0,0,1.07-.33l.24,1.23a3,3,0,0,1-1.67.48c-1.19,0-1.9-.66-1.9-2"/><path d="M65.11,31.64h1.53v6.19H65.11Zm-.16-2a.94.94,0,0,1,1.87,0,.94.94,0,1,1-1.87,0"/><path d="M72.68,31.64h1.53v6.19H72.68Zm-.16-2a.94.94,0,1,1,.94.94.93.93,0,0,1-.94-.94m-4,3.26h-1V31.64h1v-.81c0-1.66.85-2.29,2-2.29a3.26,3.26,0,0,1,1.37.31l-.28,1.28a2,2,0,0,0-.79-.22c-.48,0-.76.27-.76,1v.75h1.45v1.28H70.09v4.91H68.56Zm0,0"/><path d="M79.89,34a1.44,1.44,0,0,0-1.42-1.32A1.57,1.57,0,0,0,77,34Zm1.55,1H76.9a1.71,1.71,0,0,0,1.89,1.61,3.31,3.31,0,0,0,2-.65l.38,1.2a4.3,4.3,0,0,1-2.53.73,3.1,3.1,0,0,1-3.28-3.2,3.07,3.07,0,0,1,3.12-3.23c1.78,0,3,1.32,3,3.31Zm0,0"/><path d="M87.3,34.73a1.74,1.74,0,0,0-1.79-1.82,1.83,1.83,0,0,0,0,3.65,1.75,1.75,0,0,0,1.8-1.83m1.48-6.1v9.21H87.25v-1A2.22,2.22,0,0,1,85.18,38a3,3,0,0,1-3-3.22,3,3,0,0,1,3-3.21,2.3,2.3,0,0,1,2.07,1V28.63Zm0,0"/><rect class="cls-1" x="8" y="26.97" width="26.06" height="26.06"/><path class="cls-2" d="M21.37,45.2c.91-.37,1.74-2.18,1.74-5.23v-.1c2.55-.35,4.33-1.33,4.41-2.65a4,4,0,0,1,.91,2.57c0,2.88-3.16,5.27-7.06,5.41m-7.75-5.41a4,4,0,0,1,.92-2.57c.07,1.32,1.86,2.3,4.41,2.65V40c0,3.19.81,4.88,1.72,5.23-3.89-.14-7.05-2.54-7.05-5.41m2-3.17c.1-.39.68-.84,1.62-1.2a11.24,11.24,0,0,1,3.43-.62c-.91.33-1.46,1.9-1.65,3.76-2.73-.3-3.58-1.21-3.4-1.94m5.42,2c-.46,0-.89,0-1.28,0,.2-1.54.76-2.43,1.28-2.43s1.07.89,1.28,2.43c-.39,0-.82,0-1.28,0M22.4,40c0,2.35-.71,3.33-1.37,3.33s-1.37-1-1.37-3.33v0c.44,0,.9,0,1.37,0s.93,0,1.37,0v0m4-3.35c.19.73-.66,1.64-3.4,1.94-.18-1.86-.73-3.43-1.64-3.76a11.11,11.11,0,0,1,3.41.61c1,.36,1.54.82,1.63,1.21M21,34.08c-4.92,0-8.69,2.54-8.69,5.92S16,45.92,21,45.92s8.68-2.65,8.68-5.92S26,34.08,21,34.08"/></svg>