<svg xmlns="http://www.w3.org/2000/svg" viewBox="0 0 125 80"><defs><style>.cls-1{fill:none;stroke:#231f20;stroke-width:1.19px;}.cls-2{fill:#231f20;}.cls-3{fill:#6e6e6f;}.cls-4,.cls-5{fill:#b5121b;}.cls-5{fill-rule:evenodd;}</style></defs><title>Kia_Horizontal</title><g id="Layer_12" data-name="Layer 12"><line class="cls-1" x1="49.39" y1="25.73" x2="49.39" y2="54.27"/><path class="cls-2" d="M64.1,37.35a6.71,6.71,0,0,1-2.36.4q-4.34,0-4.33-4.19,0-4,4.33-4a6.49,6.49,0,0,1,2.36.4v1.35a5.65,5.65,0,0,0-2.25-.45c-1.93,0-2.9.89-2.9,2.67a2.56,2.56,0,0,0,2.9,2.89A5.65,5.65,0,0,0,64.1,36v1.35Z"/><polygon class="cls-2" points="71.01 29.65 71.01 30.93 67.21 30.93 67.21 32.95 70.82 32.95 70.82 34.29 67.19 34.29 67.19 36.4 71.09 36.4 71.09 37.69 65.73 37.69 65.73 29.65 71.01 29.65 71.01 29.65"/><path class="cls-2" d="M72.46,37.68v-8h3.66c1.64,0,2.46.72,2.46,2.15,0,1-.64,1.78-1.92,2.41l2.55,3.48H77.28l-2.45-3.5v-.68c1.46-.25,2.19-.8,2.19-1.66,0-.6-.33-.89-1-.89H74v6.72Z"/><polygon class="cls-2" points="85.45 29.65 85.45 30.94 83.15 30.94 83.15 37.69 81.66 37.69 81.66 30.94 79.35 30.94 79.35 29.65 85.45 29.65 85.45 29.65"/><polygon class="cls-2" points="88.25 29.65 88.25 37.69 86.75 37.69 86.75 29.65 88.25 29.65 88.25 29.65"/><polygon class="cls-2" points="95.21 29.65 95.21 30.93 91.41 30.93 91.41 32.95 95.02 32.95 95.02 34.29 91.39 34.29 91.39 37.69 89.93 37.69 89.93 29.65 95.21 29.65 95.21 29.65"/><polygon class="cls-2" points="98.07 29.65 98.07 37.69 96.58 37.69 96.58 29.65 98.07 29.65 98.07 29.65"/><polygon class="cls-2" points="105.04 29.65 105.04 30.93 101.24 30.93 101.24 32.95 104.85 32.95 104.85 34.29 101.22 34.29 101.22 36.4 105.12 36.4 105.12 37.69 99.76 37.69 99.76 29.65 105.04 29.65 105.04 29.65"/><path class="cls-2" d="M110,36.4c1.67,0,2.5-1,2.5-2.95a2.21,2.21,0,0,0-2.5-2.51h-1.77V36.4Zm-3.26,1.29v-8h3.49q3.77,0,3.76,3.8,0,4.24-3.76,4.24Z"/><path class="cls-3" d="M58.74,49.23a6.92,6.92,0,0,0,1.81.31c1.53,0,2.29-.85,2.29-2.55a2,2,0,0,0-2.28-2.27,14.42,14.42,0,0,0-1.82.14v4.37Zm-.59-4.79a12.06,12.06,0,0,1,2.43-.25A2.5,2.5,0,0,1,63.42,47c0,2.07-1,3.1-2.86,3.1a8.17,8.17,0,0,1-1.82-.28v2.41h-.59V44.44Z"/><path class="cls-3" d="M64.94,50.1V44.19h.42l.07.76A1.77,1.77,0,0,1,67,44.19v.48a1.58,1.58,0,0,0-1.49.74V50.1Z"/><path class="cls-3" d="M68.51,46.75h3.87c.09-1.37-.51-2.06-1.8-2.06a1.89,1.89,0,0,0-2.07,2.06Zm4.42.53H68.51q0,2.31,2.73,2.31a7,7,0,0,0,1.57-.17v.51a9.35,9.35,0,0,1-1.9.17c-2,0-3-1-3-3s.94-2.89,2.83-2.89q2.59,0,2.18,3.09Z"/><polygon class="cls-3" points="77.18 46.89 77.18 47.4 74.37 47.4 74.37 46.89 77.18 46.89 77.18 46.89"/><path class="cls-3" d="M81.23,49.59c1.48,0,2.22-.82,2.22-2.47s-.74-2.42-2.22-2.42S79,45.51,79,47.12s.74,2.47,2.22,2.47Zm-2.81-2.44c0-2,.93-3,2.81-3s2.81,1,2.81,3-.94,2.94-2.81,2.94-2.81-1-2.81-2.94Z"/><polygon class="cls-3" points="85 44.2 85.6 44.2 86.87 49.38 88.74 44.2 89.18 44.2 91.1 49.27 92.4 44.2 92.98 44.2 91.44 50.1 90.82 50.1 88.96 45.07 87.13 50.1 86.49 50.1 85 44.2 85 44.2"/><path class="cls-3" d="M94.22,50.1V44.19h.42l.07.76a5.84,5.84,0,0,1,2.55-.76,1.68,1.68,0,0,1,1.93,1.87v4H98.6V46c0-.88-.49-1.32-1.48-1.32a4.57,4.57,0,0,0-2.31.75V50.1Z"/><path class="cls-3" d="M101.3,46.75h3.87c.09-1.37-.51-2.06-1.8-2.06a1.89,1.89,0,0,0-2.07,2.06Zm4.43.53H101.3c0,1.54.91,2.31,2.74,2.31a6.9,6.9,0,0,0,1.56-.17v.51a9.35,9.35,0,0,1-1.9.17q-3,0-3-3c0-1.92,1-2.89,2.83-2.89q2.59,0,2.19,3.09Z"/><path class="cls-3" d="M111.85,45.06a7.19,7.19,0,0,0-1.88-.3A2,2,0,0,0,107.79,47c0,1.72.72,2.58,2.18,2.58a9.37,9.37,0,0,0,1.88-.22V45.06Zm.59,4.68a8.33,8.33,0,0,1-2.64.36c-1.76,0-2.64-1-2.64-3.07s.93-2.84,2.8-2.84a8,8,0,0,1,1.89.29V42.06h.59v7.68Z"/><polygon class="cls-3" points="115.03 41.96 115.03 42.14 114.49 42.14 114.49 43.67 114.27 43.67 114.27 42.14 113.74 42.14 113.74 41.96 115.03 41.96 115.03 41.96"/><polygon class="cls-3" points="115.21 43.67 115.21 41.96 115.49 41.96 116.12 43.39 116.73 41.96 117 41.96 117 43.67 116.8 43.67 116.8 42.29 116.2 43.67 116.02 43.67 115.41 42.29 115.41 43.67 115.21 43.67 115.21 43.67"/><path class="cls-4" d="M25,31.75C15.59,31.75,8,35.55,8,40.25s7.59,8.51,17,8.51,17-3.81,17-8.51S34.31,31.75,25,31.75Zm0,15.93c-8.25,0-15-3.33-15-7.43s6.72-7.43,15-7.43,15,3.33,15,7.43S33.2,47.68,25,47.68Z"/><path class="cls-5" d="M23.3,36.44h.27a.16.16,0,0,1,.17.17v7.77a.18.18,0,0,0,.19.18h2a.19.19,0,0,0,.19-.18V36.1a.19.19,0,0,0-.19-.18H23.3s0,0,0,0v.43S23.27,36.44,23.3,36.44Z"/><path class="cls-5" d="M27.89,44.56h2a.26.26,0,0,0,.24-.18L31.83,39s0-.08.09-.08S32,39,32,39l1.72,5.36a.26.26,0,0,0,.24.18h2a.15.15,0,0,0,.13-.06.16.16,0,0,0,0-.16L33.34,36c0-.11-.15-.12-.24-.12H29.91s-.05,0-.05,0v.43a.06.06,0,0,0,.05,0h.23c.11,0,.17.06.17.15a.16.16,0,0,1,0,.09l-2.56,7.66a.16.16,0,0,0,0,.16A.16.16,0,0,0,27.89,44.56Z"/><path class="cls-5" d="M14.29,36.44a.17.17,0,0,1,.17.17v7.77a.18.18,0,0,0,.18.18h2a.18.18,0,0,0,.18-.18V41.11c0-.07,0-.11.09-.11s.1,0,.13.08h0l2.33,3.28a.42.42,0,0,0,.32.19H22a.17.17,0,0,0,.13-.28l-3-4.21,0,0s0,0,0,0,0,0,0,0a.21.21,0,0,1,0-.1h0l2.49-3.68a.19.19,0,0,0,0-.18.16.16,0,0,0-.14-.08H19.29a.46.46,0,0,0-.33.19L17,38.86c-.05.09-.11.09-.13.09h0a.09.09,0,0,1-.09-.09V36.1a.18.18,0,0,0-.18-.18H14a0,0,0,0,0,0,0v.43a.05.05,0,0,0,0,0Z"/></g></svg>