<svg xmlns="http://www.w3.org/2000/svg" viewBox="0 0 125 80"><defs><style>.cls-1{fill:none;}.cls-2{fill:#1e1e57;}.cls-3{fill:#fff;}</style></defs><title>FordBlueAdvantage</title><g id="Layer_5" data-name="Layer 5"><rect class="cls-1" x="9.65" y="23.27" width="109" height="33.46"/><path class="cls-2" d="M33.7,28.08c-10.68,0-19.24,3.2-19.24,7.21s8.63,7.22,19.24,7.22,19.24-3.24,19.24-7.22S44.31,28.08,33.7,28.08Z"/><path class="cls-3" d="M45,33.22s0-.07-.06-.07H44c-.08,0-.11,0-.15.07-.11.22-1.47,2.25-1.72,2.65,0,.06-.09.05-.1,0a.87.87,0,0,0-.55-.63,1.31,1.31,0,0,0-.73-.08,2.57,2.57,0,0,0-1.19.56c-.53.4-1,.92-1.57,1.3-.32.21-.76.39-1.06.12a.91.91,0,0,1,.17-1.22c.05,0,.1,0,.09,0a.53.53,0,0,0,.15.51.58.58,0,0,0,.65.07.82.82,0,0,0,.45-.65.73.73,0,0,0-.68-.84,1.34,1.34,0,0,0-1,.35,2,2,0,0,0-.38.43s-.09,0-.08,0c0-.56-.22-.87-.68-.88a1.75,1.75,0,0,0-1,.42,11.5,11.5,0,0,0-.91.93s-.07,0-.08,0a1.87,1.87,0,0,0-.27-1,.22.22,0,0,0-.29-.07,1.75,1.75,0,0,0-.35.2.21.21,0,0,0-.06.22,2.55,2.55,0,0,1-.09,1.7,1.86,1.86,0,0,1-1.07,1.06.7.7,0,0,1-.82-.22,1.42,1.42,0,0,1,.24-1.57,3.12,3.12,0,0,1,1.39-1,.08.08,0,0,0,.06-.11c0-.09-.08-.2-.09-.26s-.18-.14-.35-.13a3.2,3.2,0,0,0-1,.35,3.6,3.6,0,0,0-1.5,1.86,2.32,2.32,0,0,1-.28.51,6,6,0,0,1-.62.61.1.1,0,0,0,0,.12,1.4,1.4,0,0,0,.24.32s.11,0,.14,0a3.32,3.32,0,0,0,.61-.55c0-.06.1,0,.12.05a1.37,1.37,0,0,0,.87.93,2.17,2.17,0,0,0,2.26-.8,9.8,9.8,0,0,0,.7-.9,8.68,8.68,0,0,1,1.37-1.5c.23-.17.49-.3.62-.21s.15.23,0,.54c-.62,1.13-1.53,2.46-1.7,2.78,0,.06,0,.1.06.1h.94s.07,0,.1-.06c.47-.74.92-1.45,1.4-2.18,0,0,0,0,0,0a1.23,1.23,0,0,0,.15.56.87.87,0,0,0,.73.41,1.42,1.42,0,0,0,.58-.13,2,2,0,0,0,.49-.26c.07,0,.08,0,.08.05a1.4,1.4,0,0,0,.61,1.58,1.77,1.77,0,0,0,1.92-.58s.09,0,.1.06a.81.81,0,0,0,.22.5c.37.38,1.13.23,1.88-.36a9.54,9.54,0,0,0,1.45-1.46.06.06,0,0,0,0-.09l-.24-.22a.09.09,0,0,0-.11,0,11.86,11.86,0,0,1-1.5,1.38c-.21.14-.53.26-.68.06a.35.35,0,0,1,0-.33C42,37.77,44.86,33.48,45,33.22Zm-3.73,3.6a.12.12,0,0,0,.09.08s0,0,0,.05a3.9,3.9,0,0,1-.38.63,2.39,2.39,0,0,1-.48.52c-.29.24-.68.49-1,.32a.46.46,0,0,1-.2-.44,2.25,2.25,0,0,1,.59-1.4c.46-.57,1-.87,1.31-.71s.23.57.08.89A.07.07,0,0,0,41.28,36.82Z"/><path class="cls-3" d="M24.57,39.26a2,2,0,0,1-2.09-1.76A2.3,2.3,0,0,1,23,35.86,2.39,2.39,0,0,1,24.24,35a.52.52,0,0,1,.42.09.24.24,0,0,1,0,.38,2.18,2.18,0,0,0-1,.88,1.06,1.06,0,0,0,.06,1.11c.42.64,1.59.66,2.69-.36a9.22,9.22,0,0,0,.76-.77,17.08,17.08,0,0,0,1.28-1.64,0,0,0,0,0,0,0h0a1.93,1.93,0,0,0-1.16.41.23.23,0,0,1-.32,0,.25.25,0,0,1,.1-.34,4.23,4.23,0,0,1,1.87-.59.11.11,0,0,0,.08,0c.27-.34.47-.65.75-1a7.91,7.91,0,0,1,.94-.91,4.32,4.32,0,0,1,.91-.6c.07,0,0-.07,0-.07a8.08,8.08,0,0,0-4.36-.09c-1,.36-1.42,1.15-1.21,1.67.15.37.64.43,1.09.21a2.48,2.48,0,0,0,1-.87c.14-.22.44-.06.28.31a2.66,2.66,0,0,1-2.19,1.79,1.28,1.28,0,0,1-1.36-1.33c0-1.48,1.65-2.45,3.39-2.6,2.08-.17,4.06.38,6.13.63A13.05,13.05,0,0,0,39,31a.24.24,0,0,1,.31.27c0,.28-.23.54-.75.83a3.79,3.79,0,0,1-1.88.43,20.49,20.49,0,0,1-4.57-.93c0,.07,0,.15,0,.19A7.17,7.17,0,0,0,30,34s0,0,0,0l1.26-.07c.07,0,.07,0,.07-.08a1,1,0,0,1,.32-.89.64.64,0,0,1,.84-.1.66.66,0,0,1,.1.84,1,1,0,0,1-.61.5s-.05,0,0,0,.32.24.34.29a.13.13,0,0,1,0,.16.17.17,0,0,1-.15.07.37.37,0,0,1-.16-.05,1.54,1.54,0,0,1-.43-.35c0-.05-.06-.05-.16-.05-.45,0-1.14.1-1.62.16-.11,0-.13,0-.15.07A19.26,19.26,0,0,1,27.14,38,3.37,3.37,0,0,1,24.57,39.26Zm7.18-5.52c0,.07,0,.08.06.07a.69.69,0,0,0,.4-.28c.08-.12.12-.3,0-.38a.23.23,0,0,0-.29,0,.61.61,0,0,0-.21.55h0"/><path class="cls-3" d="M33.7,41.88c-10.18,0-18.44-3-18.44-6.58s8.26-6.59,18.44-6.59,18.44,2.95,18.44,6.59S43.88,41.88,33.7,41.88Zm0-12.62c-9.82,0-17.79,2.71-17.79,6s8,6,17.79,6,17.79-2.71,17.79-6S43.53,29.26,33.7,29.26Z"/><path class="cls-2" d="M57.76,31.4h3.55c1.93,0,2.77.61,2.77,2A1.65,1.65,0,0,1,63,35.17c.93.24,1.33.85,1.33,2,0,1.68-1,2.19-3,2.19h-3.5Zm3.59,3.28c1.12,0,1.41-.44,1.41-1.1s-.37-1-1.41-1H59v2.12Zm0,3.49c1.09,0,1.57-.33,1.57-1.16s-.47-1.14-1.58-1.14H59v2.3Z"/><path class="cls-2" d="M65.25,37.67V31h1.23v6.5c0,.53.09.7.64.7h.23v1.09l-.66,0C65.67,39.33,65.25,38.91,65.25,37.67Z"/><path class="cls-2" d="M68.09,36.67V33.33h1.24V36.7c0,.9,0,1.58,1.47,1.58s1.45-.68,1.45-1.6V33.33h1.22v3.32c0,1.87-.37,2.78-2.67,2.78S68.09,38.53,68.09,36.67Z"/><path class="cls-2" d="M74.4,36.31c0-1.69.54-3.12,3-3.12S80,35,79.94,36.84H75.61c.07.94.45,1.53,1.78,1.53a2.85,2.85,0,0,0,1.89-.58l.66.87a3.85,3.85,0,0,1-2.55.78C74.89,39.44,74.4,38,74.4,36.31Zm1.21-.55h3.15c-.05-.86-.14-1.47-1.42-1.47S75.71,34.87,75.61,35.76Z"/><path class="cls-2" d="M60.27,42H61.6l3.18,8H63.44l-.58-1.52H59L58.39,50H57.1Zm2.13,5.26-1.49-3.71-1.48,3.71Z"/><path class="cls-2" d="M65,47c0-1.77.57-3.09,2.62-3.09,1.2,0,1.76.24,2,.66V41.71h1.25V50l-1,.1-.14-.64c-.36.47-1,.7-2.24.7C65.54,50.11,65,48.78,65,47Zm4.66,0c0-1.4-.44-1.91-1.8-1.91s-1.6.75-1.6,1.91.31,2,1.6,2S69.64,48.4,69.64,47Z"/><path class="cls-2" d="M71.55,44h1.32l1.73,4.55L76.34,44h1.3l-2.38,6H73.92Z"/><path class="cls-2" d="M77.81,48.29c0-1.7,1-2.19,3.91-2.19H82c0-.72-.22-1.05-1.4-1.05a3.53,3.53,0,0,0-1.74.5l-.65-1a4.86,4.86,0,0,1,2.51-.7c2.09,0,2.47.7,2.47,2.4v2c0,.54.05.63.57.63V50a3.06,3.06,0,0,1-.51,0c-.61,0-.9-.12-1.06-.62-.34.46-1,.71-2.23.71C78.22,50.11,77.81,49.3,77.81,48.29ZM82,47.43v-.31h-.23c-2.35,0-2.8.27-2.8,1.07,0,.56.26.86,1.21.86C81.48,49.05,82,48.55,82,47.43Z"/><path class="cls-2" d="M84.65,44.1l1-.08.11.53c.29-.36.87-.67,2.19-.67,1.86,0,2.15,1,2.15,2.49V50H88.83V46.62c0-.88-.08-1.5-1.32-1.5s-1.61.67-1.61,1.61V50H84.65Z"/><path class="cls-2" d="M90.78,44h1.07l.22-1.6,1-.2V44h1.53v1.13H93v3c0,.51.07.81.84.81h.69V50h-.93c-1.48,0-1.84-.54-1.84-1.73V45.15h-1Z"/><path class="cls-2" d="M95.23,48.29c0-1.7,1-2.19,3.9-2.19h.3c0-.72-.21-1.05-1.4-1.05a3.52,3.52,0,0,0-1.73.5l-.65-1a4.86,4.86,0,0,1,2.51-.7c2.09,0,2.47.7,2.47,2.4v2c0,.54,0,.63.57.63V50a3.14,3.14,0,0,1-.52,0c-.6,0-.89-.12-1.05-.62-.35.46-1,.71-2.23.71C95.64,50.11,95.23,49.3,95.23,48.29Zm4.2-.86v-.31h-.22c-2.35,0-2.8.27-2.8,1.07,0,.56.26.86,1.21.86C98.9,49.05,99.43,48.55,99.43,47.43Z"/><path class="cls-2" d="M103.83,47.76a.5.5,0,0,0-.11.3c0,.33.22.4,1.12.4,2.31,0,3,.35,3,1.6s-.89,1.86-3.1,1.86-2.92-.28-2.92-1.47A1.3,1.3,0,0,1,103,49.07a.85.85,0,0,1-.37-.8,1.55,1.55,0,0,1,.24-.84,1.67,1.67,0,0,1-.72-1.53c0-1.31.77-2,2.62-2h.15l2.67-.42v1h-.93a1.44,1.44,0,0,1,.74,1.41c0,1.33-.81,1.93-2.63,1.93A5,5,0,0,1,103.83,47.76Zm2.73,2.36c0-.54-.44-.66-1.79-.66-1.53,0-1.72.32-1.72.77s.43.73,1.72.73C106.22,51,106.56,50.67,106.56,50.12Zm-.4-4.22c0-.67-.43-1-1.4-1s-1.41.29-1.41,1,.37,1,1.41,1S106.16,46.57,106.16,45.9Z"/><path class="cls-2" d="M108.3,47c0-1.7.53-3.12,3-3.12s2.61,1.76,2.57,3.65h-4.33c.07.94.45,1.53,1.78,1.53a2.84,2.84,0,0,0,1.88-.58l.67.86a3.81,3.81,0,0,1-2.55.78C108.79,50.12,108.3,48.72,108.3,47Zm1.21-.55h3.15c0-.86-.14-1.47-1.42-1.47S109.6,45.56,109.51,46.45Z"/></g></svg>