<svg xmlns="http://www.w3.org/2000/svg" viewBox="0 0 125 80"><defs><style>.cls-1,.cls-2{fill:#003469;}.cls-2{fill-rule:evenodd;}</style></defs><title>Hyundai_Horizontal</title><g id="Layer_9" data-name="Layer 9"><polygon class="cls-1" points="116.67 42.75 8.01 42.75 8.01 42.48 116.67 42.48 116.67 42.75 116.67 42.75"/><path class="cls-1" d="M8,50.68a3.89,3.89,0,0,1,4-4.07,3.9,3.9,0,0,1,3.51,1.92l-1.12.83A2.56,2.56,0,0,0,12,48a2.68,2.68,0,0,0,0,5.35A2.57,2.57,0,0,0,14.36,52l1.12.82A3.9,3.9,0,0,1,12,54.74a3.89,3.89,0,0,1-4-4.06Z"/><path class="cls-1" d="M17.49,50.94h2.88A1.29,1.29,0,0,0,19,49.73a1.44,1.44,0,0,0-1.48,1.21Zm-1.5.7a2.92,2.92,0,0,1,3-3.11,2.72,2.72,0,0,1,2.84,2.89,6.37,6.37,0,0,1-.06.71H17.46a1.58,1.58,0,0,0,1.73,1.34,2.11,2.11,0,0,0,1.67-.88l.81,1a3.3,3.3,0,0,1-2.55,1.18A3,3,0,0,1,16,51.64Z"/><path class="cls-1" d="M22.85,48.67h1.46v.91a1.88,1.88,0,0,1,1.7-1h.17v1.39a1.72,1.72,0,0,0-1.87,1.15v3.51H22.85V48.67Z"/><path class="cls-1" d="M27.52,52.32V49.84h-1V48.67h1V47.16H29v1.51h1.37v1.17H29v2.55c0,.75.36,1,1.09,1h.28v1.17a2.84,2.84,0,0,1-.66.07c-1.43,0-2.17-.71-2.17-2.33Z"/><path class="cls-1" d="M31.32,48.67h1.46v5.91H31.32V48.67Zm0-2.52h1.49v1.52H31.3V46.15Z"/><path class="cls-1" d="M34.67,49.84h-.92V48.67h.92v-.35a1.87,1.87,0,0,1,2.06-2,4.15,4.15,0,0,1,.55,0v1.18H37c-.55,0-.91.22-.91.79v.34h1.16v1.17H36.12v4.74H34.67V49.84Z"/><path class="cls-1" d="M38.14,48.67H39.6v5.91H38.14V48.67Zm0-2.52h1.49v1.52H38.12V46.15Z"/><path class="cls-1" d="M42.13,50.94H45a1.29,1.29,0,0,0-1.4-1.21,1.44,1.44,0,0,0-1.48,1.21Zm-1.49.7a2.92,2.92,0,0,1,3-3.11,2.72,2.72,0,0,1,2.85,2.89,6.53,6.53,0,0,1-.07.71H42.11a1.57,1.57,0,0,0,1.72,1.34,2.15,2.15,0,0,0,1.68-.88l.8,1a3.27,3.27,0,0,1-2.55,1.18,3,3,0,0,1-3.12-3.09Z"/><path class="cls-1" d="M51.87,52.54V50.72a1.67,1.67,0,0,0-1.53-.89,1.8,1.8,0,0,0,0,3.59,1.68,1.68,0,0,0,1.53-.88Zm0,1.36a2.42,2.42,0,0,1-1.85.82,3.11,3.11,0,0,1,0-6.19,2.43,2.43,0,0,1,1.85.83V46.43h1.46v8.15H51.87V53.9Z"/><path class="cls-1" d="M60.24,50.35c.88,0,1.44-.29,1.44-1.13s-.56-1.14-1.44-1.14h-1.4v2.27Zm-2.89-3.58h3.07c1.66,0,2.79.78,2.79,2.45s-1.13,2.44-2.79,2.44H58.84v2.92H57.35V46.77Z"/><path class="cls-1" d="M64.13,48.67h1.46v.91a1.89,1.89,0,0,1,1.7-1h.17v1.39a1.72,1.72,0,0,0-1.87,1.15v3.51H64.13V48.67Z"/><path class="cls-1" d="M69.24,50.94h2.89a1.29,1.29,0,0,0-1.41-1.21,1.46,1.46,0,0,0-1.48,1.21Zm-1.49.7a2.92,2.92,0,0,1,3-3.11,2.72,2.72,0,0,1,2.85,2.89,4.73,4.73,0,0,1-.07.71H69.22a1.57,1.57,0,0,0,1.72,1.34,2.13,2.13,0,0,0,1.68-.88l.8,1a3.27,3.27,0,0,1-2.55,1.18,3,3,0,0,1-3.12-3.09Z"/><polygon class="cls-1" points="74.54 50.52 77.89 50.52 77.89 51.69 74.54 51.69 74.54 50.52 74.54 50.52"/><path class="cls-1" d="M80.38,50.68A2.45,2.45,0,1,0,82.82,48a2.44,2.44,0,0,0-2.44,2.68Zm-1.54,0a4,4,0,1,1,4,4.06,3.9,3.9,0,0,1-4-4.06Z"/><polygon class="cls-1" points="87.25 48.67 88.81 48.67 89.99 52.62 91.34 48.67 92.89 48.67 94.23 52.62 95.41 48.67 96.98 48.67 95.04 54.58 93.58 54.58 92.11 50.47 90.65 54.58 89.19 54.58 87.25 48.67 87.25 48.67"/><path class="cls-1" d="M97.71,48.67h1.46v.82a2.1,2.1,0,0,1,1.87-1c1.54,0,2.25,1,2.25,2.57v3.48h-1.46V51.26c0-.94-.44-1.43-1.3-1.43a1.39,1.39,0,0,0-1.36,1v3.72H97.71V48.67Z"/><path class="cls-1" d="M105.74,50.94h2.88a1.29,1.29,0,0,0-1.4-1.21,1.44,1.44,0,0,0-1.48,1.21Zm-1.49.7a2.92,2.92,0,0,1,3-3.11,2.72,2.72,0,0,1,2.85,2.89,6.53,6.53,0,0,1-.07.71h-4.28a1.57,1.57,0,0,0,1.72,1.34,2.11,2.11,0,0,0,1.67-.88l.81,1a3.28,3.28,0,0,1-2.55,1.18,3,3,0,0,1-3.12-3.09Z"/><path class="cls-1" d="M115.48,52.54V50.72a1.67,1.67,0,0,0-1.53-.89,1.8,1.8,0,0,0,0,3.59,1.68,1.68,0,0,0,1.53-.88Zm0,1.36a2.42,2.42,0,0,1-1.85.82,3.11,3.11,0,0,1,0-6.19,2.43,2.43,0,0,1,1.85.83V46.43h1.46v8.15h-1.46V53.9Z"/><path class="cls-2" d="M65.56,37.73h7.65c1.53,0,2.15-.44,2.12-2.64V26.8H73v7.8c0,.94-.12,1-.85,1H67.94V26.8H65.56V37.73Zm51.44,0h-2.37V26.81H117V37.73ZM77.71,26.8h7.65c1.09,0,2.14.16,2.11,2.36v8.57H85.1V30c0-.94-.11-1.14-.85-1.14H80.08v8.92H77.71V26.8Zm-22.13,0,3,4.47,2.94-4.47h2.89l-4.64,7v3.94H57.36V33.79l-4.67-7Zm-14.13,0h2.37v4.31h5.31V26.8h2.38V37.73H49.13V33.27H43.82v4.46H41.45V26.8Zm55.86,3a.94.94,0,0,0-1-1H92.22v6.82H96.3c.94,0,1-.6,1-1V29.82Zm2.4-.66v5.91c0,1.89-1.06,2.66-2.37,2.66H89.85V26.8h7.49a2.09,2.09,0,0,1,2.37,2.36m12.54-2.36V37.73h-2.37V34.59h-5.42v3.14h-2.38V29.16c0-1.51.62-2.36,2.38-2.36Zm-2.37,2h-4.46c-.75.05-1,.23-1,1.14v2.5h5.42V28.81Z"/><path class="cls-2" d="M31.81,27.45c1.85,1,3.95,2.79,3.73,5.16-.25,2.2-2.3,3.74-4.14,4.66a24.41,24.41,0,0,1-18.38.4c-1.87-.78-4-2.11-4.75-4.12A4.25,4.25,0,0,1,9.63,29c2.58-2.34,5.86-3.14,9.24-3.6a24.84,24.84,0,0,1,10.8,1.07,16.94,16.94,0,0,1,2.14.94m-3-.07c.14.07.29.09.37.22s-.07.25-.15.34a18.71,18.71,0,0,1-6,2.89,7.29,7.29,0,0,1-3.35.47,1.09,1.09,0,0,1-.69-.52,3.11,3.11,0,0,1,.45-2.39c.46-.9,1.28-2,2.42-2a24.53,24.53,0,0,1,6.93,1M17.41,27l0,.13a36.24,36.24,0,0,0-5.23,8.64c-.28.27-.55-.08-.8-.2-1.28-.83-2.43-2.19-2.1-3.79.53-2.1,2.69-3.21,4.49-4a16.61,16.61,0,0,1,3.34-.91c.12,0,.28,0,.34.1m15.22,2.3c1.09.89,2.06,2.1,1.73,3.57-.54,2.16-2.9,3.31-4.77,4.05a13.89,13.89,0,0,1-3.17.79c-.07,0-.18,0-.2-.1l0-.12a27.71,27.71,0,0,0,3.84-5.83c.49-.91.95-1.85,1.37-2.78a.46.46,0,0,1,.19-.13,2.28,2.28,0,0,1,1,.55m-8,4.62a4.28,4.28,0,0,1-.82,2.86,2.69,2.69,0,0,1-2.43,1.4,24.33,24.33,0,0,1-6.72-1,.37.37,0,0,1-.24-.17.3.3,0,0,1,.1-.32,20,20,0,0,1,6.49-3,6.42,6.42,0,0,1,2.7-.38,1.16,1.16,0,0,1,.92.68"/></g></svg>