<svg xmlns="http://www.w3.org/2000/svg" viewBox="0 0 125 80"><defs><style>.cls-1{fill:#c32033;}</style></defs><title>Audi Stacked</title><g id="Layer_3" data-name="Layer 3"><path d="M8.05,56.14a3.35,3.35,0,0,1,3.61-3.45,5.61,5.61,0,0,1,2.1.36v.82a5.27,5.27,0,0,0-2-.37,2.65,2.65,0,1,0,0,5.29,6.27,6.27,0,0,0,2.15-.32v.79a5.92,5.92,0,0,1-2.17.33C9.62,59.59,8.05,58.43,8.05,56.14Z"/><path d="M20,58.43v.73a4.91,4.91,0,0,1-2.15.43c-1.87,0-2.78-1.07-2.78-2.54a2.39,2.39,0,0,1,2.64-2.41,2.32,2.32,0,0,1,2.61,2.3,3.53,3.53,0,0,1,0,.36H16c.07,1,.7,1.55,2,1.55A5.07,5.07,0,0,0,20,58.43ZM16,56.6h3.44a1.58,1.58,0,0,0-1.72-1.26A1.57,1.57,0,0,0,16,56.6Z"/><path d="M22,54.75h.82l.07.86a2,2,0,0,1,1.78-1,2.68,2.68,0,0,1,.84.12v.82a3.44,3.44,0,0,0-.95-.11,1.81,1.81,0,0,0-1.65.92v3.08H22Z"/><path d="M26.16,54.75h1.06l.11-1.18h.76v1.18h2.27v.72H28.09V58c0,.65.33.86,1.08.86a3.07,3.07,0,0,0,1.12-.2v.71a3.93,3.93,0,0,1-1.39.23c-1.15,0-1.72-.42-1.72-1.48V55.47h-1Z"/><path d="M31.83,52.8h.92v1h-.92Zm0,2h.92v4.73h-.92Z"/><path d="M34.07,54.75h1.36v-.32c0-1.08.64-1.74,2.12-1.74a3.73,3.73,0,0,1,1.29.19v.72a4.41,4.41,0,0,0-1.28-.17c-.9,0-1.21.34-1.21,1.07v.25h4v4.73h-.92v-4H36.35v4h-.92v-4H34.07Zm5.41-2h.92v1h-.92Z"/><path d="M47,58.43v.73a4.88,4.88,0,0,1-2.15.43,2.44,2.44,0,0,1-2.77-2.54,2.39,2.39,0,0,1,2.64-2.41,2.32,2.32,0,0,1,2.61,2.3,3.53,3.53,0,0,1,0,.36H43c.06,1,.69,1.55,2,1.55A5,5,0,0,0,47,58.43ZM43,56.6h3.43a1.8,1.8,0,0,0-3.43,0Z"/><path d="M48.54,57.11c0-1.54,1-2.47,2.79-2.47a3.34,3.34,0,0,1,1.77.44V52.8H54v6.68h-.77l-.07-.41a3.57,3.57,0,0,1-1.89.52C49.61,59.59,48.54,58.69,48.54,57.11Zm4.56,1.31V55.81a3,3,0,0,0-1.64-.46c-1.28,0-2,.59-2,1.76s.7,1.77,2,1.77A3,3,0,0,0,53.1,58.42Z"/><path d="M59.19,54.75H60l.07.41a3.61,3.61,0,0,1,1.9-.52c1.67,0,2.74.89,2.74,2.47s-1,2.48-2.8,2.48a3.28,3.28,0,0,1-1.76-.44v2.28h-.91Zm4.53,2.36c0-1.17-.7-1.77-2-1.77a3,3,0,0,0-1.64.46v2.61a3,3,0,0,0,1.64.46C63,58.87,63.72,58.28,63.72,57.11Z"/><path d="M66.35,54.75h.82l.07.86a2,2,0,0,1,1.79-1,2.72,2.72,0,0,1,.84.12v.82a3.44,3.44,0,0,0-1-.11,1.84,1.84,0,0,0-1.66.92v3.08h-.91Z"/><path d="M75.59,58.43v.73a4.91,4.91,0,0,1-2.15.43c-1.87,0-2.78-1.07-2.78-2.54a2.39,2.39,0,0,1,2.64-2.41,2.32,2.32,0,0,1,2.61,2.3,3.53,3.53,0,0,1,0,.36H71.57c.07,1,.7,1.55,2,1.55A5.1,5.1,0,0,0,75.59,58.43Zm-4-1.83H75a1.8,1.8,0,0,0-3.44,0Z"/><path d="M77.09,56.28h3.2v.87h-3.2Z"/><path d="M81.52,57.11c0-1.4.89-2.47,2.85-2.47s2.86,1.06,2.86,2.48-.89,2.47-2.86,2.47S81.52,58.53,81.52,57.11Zm4.76,0c0-1.07-.6-1.77-1.91-1.77s-1.91.69-1.91,1.76.6,1.77,1.91,1.77S86.28,58.19,86.28,57.12Z"/><path d="M87.89,54.75h1l1.65,3.77,1.56-3.77H93l1.59,3.76,1.63-3.76h1l-2.22,4.73h-.85l-1.57-3.76L91,59.48h-.84Z"/><path d="M98.36,54.75h.76l.08.47a3.66,3.66,0,0,1,2.07-.58c1.19,0,2.22.41,2.22,1.81v3h-.92V56.61c0-.94-.5-1.25-1.49-1.25a3.65,3.65,0,0,0-1.81.49v3.63h-.91Z"/><path d="M110,58.43v.73a4.88,4.88,0,0,1-2.15.43,2.44,2.44,0,0,1-2.77-2.54,2.39,2.39,0,0,1,2.64-2.41,2.32,2.32,0,0,1,2.61,2.3,3.53,3.53,0,0,1,0,.36H106c.06,1,.69,1.55,2,1.55A5,5,0,0,0,110,58.43Zm-4-1.83h3.43a1.8,1.8,0,0,0-3.43,0Z"/><path d="M111.53,57.11c0-1.54,1-2.47,2.79-2.47a3.34,3.34,0,0,1,1.77.44V52.8H117v6.68h-.77l-.07-.41a3.57,3.57,0,0,1-1.89.52C112.6,59.59,111.53,58.69,111.53,57.11Zm4.56,1.31V55.81a3,3,0,0,0-1.64-.46c-1.28,0-2,.59-2,1.76s.7,1.77,2,1.77A3,3,0,0,0,116.09,58.42Z"/><path class="cls-1" d="M11.51,42.37h1.55l3.5,6.68H14.89l-.72-1.39H10.36l-.71,1.39H8Zm-.59,4.14h2.71l-1.36-2.7Z"/><path class="cls-1" d="M21.47,48.53a3,3,0,0,1-1.92.67c-1.22,0-2.33-.41-2.33-2.1V44.31h1.45v2.61c0,.79.36,1.17,1.23,1.17a2.79,2.79,0,0,0,1.49-.4V44.31h1.45v4.74H21.57Z"/><path class="cls-1" d="M24.24,46.68c0-1.56,1-2.51,2.81-2.51a3.38,3.38,0,0,1,1.8.46V42.37h1.44v6.68H29l-.1-.54a3,3,0,0,1-2,.69A2.41,2.41,0,0,1,24.24,46.68Zm4.61,1v-2a3.27,3.27,0,0,0-1.63-.37,1.31,1.31,0,0,0-1.5,1.4c0,.88.52,1.38,1.5,1.38A3.17,3.17,0,0,0,28.85,47.69Z"/><path class="cls-1" d="M31.83,42.37h1.45v1.25H31.83Zm0,1.94h1.45v4.74H31.83Z"/><path d="M36.35,18.57a5.9,5.9,0,0,0-3.74,1.33,5.91,5.91,0,0,0-7.47,0,5.91,5.91,0,0,0-7.47,0,5.93,5.93,0,1,0,0,9.2,5.91,5.91,0,0,0,7.47,0,5.91,5.91,0,0,0,7.47,0,5.93,5.93,0,1,0,3.74-10.53Zm-3.74,8.59a4.59,4.59,0,0,1,0-5.32,4.59,4.59,0,0,1,0,5.32Zm-7.47,0a4.54,4.54,0,0,1,0-5.32,4.59,4.59,0,0,1,0,5.32Zm-7.47,0a4.54,4.54,0,0,1-.86-2.66,4.6,4.6,0,0,1,.86-2.67,4.66,4.66,0,0,1,.85,2.67A4.6,4.6,0,0,1,17.67,27.16ZM9.34,24.5a4.58,4.58,0,0,1,4.59-4.59,4.52,4.52,0,0,1,2.79.95,5.92,5.92,0,0,0,0,7.28,4.52,4.52,0,0,1-2.79.95A4.58,4.58,0,0,1,9.34,24.5Zm9.27,3.64a5.92,5.92,0,0,0,0-7.28,4.52,4.52,0,0,1,2.79-.95,4.57,4.57,0,0,1,2.8.95,5.89,5.89,0,0,0,0,7.28,4.57,4.57,0,0,1-2.8.95A4.52,4.52,0,0,1,18.61,28.14Zm7.47,0a5.92,5.92,0,0,0,0-7.28,4.59,4.59,0,0,1,5.59,0,5.92,5.92,0,0,0,0,7.28,4.59,4.59,0,0,1-5.59,0Zm10.27.95a4.55,4.55,0,0,1-2.8-.95,5.92,5.92,0,0,0,0-7.28,4.55,4.55,0,0,1,2.8-.95,4.59,4.59,0,0,1,0,9.18Z"/></g></svg>