<svg id="Layer_16" data-name="Layer 16" xmlns="http://www.w3.org/2000/svg" xmlns:xlink="http://www.w3.org/1999/xlink" viewBox="0 0 125 80"><defs><style>.cls-1{fill:none;}.cls-2{clip-path:url(#clip-path);}.cls-3,.cls-4{fill:#231f20;}.cls-4{font-size:7.46px;font-family:DaimlerCS-Light, DaimlerCS Light;font-weight:300;}.cls-5{letter-spacing:-0.06em;}</style><clipPath id="clip-path"><rect class="cls-1" x="8" y="28.12" width="109" height="23.76"/></clipPath></defs><title>Mercedes-Benz</title><g class="cls-2"><path class="cls-3" d="M115.25,28.12H76.4a1.76,1.76,0,0,0-1.76,1.76V31h.55V29.88a1.21,1.21,0,0,1,1.21-1.21h38.85a1.21,1.21,0,0,1,1.21,1.21V31H117V29.88a1.76,1.76,0,0,0-1.75-1.76"/><path class="cls-3" d="M116.46,40.64a1.21,1.21,0,0,1-1.21,1.21H76.4a1.21,1.21,0,0,1-1.21-1.21V39.47h-.55v1.17A1.76,1.76,0,0,0,76.4,42.4h38.85A1.76,1.76,0,0,0,117,40.64V39.47h-.54v1.17"/><path class="cls-3" d="M80.3,31.29c.88,0,1.43.67,1.7,2.12h.28v-2.5h-.2l-.34.72a1.85,1.85,0,0,0-1.56-.74c-1.66,0-2.75,1.73-2.75,4.4s1.08,4.37,2.7,4.37c1.33,0,2.16-1.13,2.23-3H82c-.07,1.54-.69,2.44-1.69,2.44-1.16,0-1.85-1.39-1.85-3.77,0-2.62.66-4,1.87-4"/><path class="cls-3" d="M85.46,33.39c-1.18,0-2,1.26-2,3.1s.79,3.13,2.06,3.13c1,0,1.65-.76,1.78-2.08h-.39c-.12,1.07-.58,1.66-1.28,1.66a1,1,0,0,1-1-.76,5.61,5.61,0,0,1-.27-2.08h2.92c0-1.9-.71-3-1.86-3m-1,2.55c.06-1.42.44-2.22,1-2.22s1,.75,1,2.22Z"/><path class="cls-3" d="M88.14,39.28v.25a8.74,8.74,0,0,1,1.13-.07,8.84,8.84,0,0,1,1.13.07v-.25c-.59,0-.67-.13-.69-.68V36c0-1.28.31-2.05.81-2.05a.28.28,0,0,1,.27.28.89.89,0,0,1,0,.19.64.64,0,0,0,0,.21.41.41,0,0,0,.43.42c.3,0,.48-.25.48-.64a.89.89,0,0,0-.86-1c-.55,0-1,.42-1.17,1.15a11.37,11.37,0,0,0-.11-1.2,5.91,5.91,0,0,1-1.34.3v.23h.12c.48,0,.55.1.55.79v4c0,.54-.1.64-.69.68"/><path class="cls-3" d="M93.51,31.71c-.2,1.28-.58,1.87-1.24,1.89v.34h.62l0,3.66v.17a2.44,2.44,0,0,0,.23,1.33,1,1,0,0,0,1,.51,1.54,1.54,0,0,0,1-.37v-.38a1.11,1.11,0,0,1-.64.25c-.46,0-.58-.33-.58-1.4V33.94h1.13v-.42H93.78V31.71h-.28"/><path class="cls-3" d="M96.23,38.6c0,.54-.1.64-.68.68v.25a8.8,8.8,0,0,1,1.12-.07,8.94,8.94,0,0,1,1.13.07v-.25c-.58,0-.68-.14-.68-.68V33.3a7,7,0,0,1-1.56.33v.22c.58,0,.68.11.67.75v4"/><path class="cls-3" d="M97.26,31.75a.62.62,0,1,0-.61.62.62.62,0,0,0,.61-.62"/><path class="cls-3" d="M98.47,39.28v.25a8.74,8.74,0,0,1,1.13-.07,8.6,8.6,0,0,1,1.12.07v-.25c-.58,0-.68-.14-.68-.68V33.94h1.13v-.42H100v-1a2.16,2.16,0,0,1,.15-1.06.5.5,0,0,1,.41-.27.3.3,0,0,1,.29.3.71.71,0,0,1,0,.14,1.22,1.22,0,0,0,0,.31.36.36,0,0,0,.4.35c.27,0,.41-.16.41-.47a.94.94,0,0,0-1-.95,1.31,1.31,0,0,0-1.22.81,3.61,3.61,0,0,0-.17,1.12c0,.68-.1.77-.73.8v.34h.65V38.6c0,.54-.1.64-.68.68"/><path class="cls-3" d="M102.52,38.6c0,.54-.1.64-.68.68v.25a9.08,9.08,0,0,1,2.25,0v-.25c-.58,0-.68-.14-.68-.68V33.3a7,7,0,0,1-1.56.33v.22c.58,0,.68.11.67.75v4"/><path class="cls-3" d="M103.55,31.75a.62.62,0,1,0-.61.62.62.62,0,0,0,.61-.62"/><path class="cls-3" d="M106.86,33.39c-1.17,0-2,1.26-2,3.1s.78,3.13,2,3.13c1,0,1.66-.76,1.78-2.08h-.39c-.11,1.07-.58,1.66-1.28,1.66a1,1,0,0,1-1-.76,5.56,5.56,0,0,1-.28-2.08h2.92c0-1.9-.71-3-1.86-3m-1,2.55c.07-1.42.45-2.22,1-2.22s1,.75,1,2.22Z"/><path class="cls-3" d="M112.65,34.36c-.31-.66-.62-.92-1.15-.92-1.08,0-1.83,1.28-1.83,3.1s.76,3.11,1.85,3.11c.56,0,.94-.32,1.22-1a5.62,5.62,0,0,0,.14,1,5.9,5.9,0,0,1,1.39-.33v-.21c-.67,0-.72-.09-.74-.86V30.91a6.76,6.76,0,0,1-1.55.33v.23c.58,0,.68.11.67.75v2.14m0,2.44c0,1.57-.38,2.49-1,2.49s-1-1-1-2.77.33-2.72,1-2.72S112.66,34.81,112.66,36.8Z"/><path class="cls-3" d="M15,38.36l-.1-6.22c0-.68.1-.77.84-.84V31A7.12,7.12,0,0,1,15,31,10.29,10.29,0,0,1,13.93,31l-1.81,6.3L10.3,31A8.5,8.5,0,0,1,9.25,31,6.74,6.74,0,0,1,8.42,31v.32c.69.05.84.18.84.72v.11L9,38.36c0,.67-.11.76-.72.83l-.11,0v.3a9.11,9.11,0,0,1,1-.06,8.66,8.66,0,0,1,1,.06v-.3c-.74-.08-.85-.19-.84-.85l.22-6.42,2.09,7.3h.2L14,32l.1,6.41c0,.67-.11.78-.83.85v.3a7.9,7.9,0,0,1,1.27-.1,8.71,8.71,0,0,1,1.31.1v-.3c-.72-.08-.83-.17-.84-.85"/><path class="cls-3" d="M18.71,33.37c-1.17,0-2,1.25-2,3.1s.78,3.13,2.05,3.13c1,0,1.66-.76,1.78-2.08h-.39c-.11,1.07-.58,1.66-1.28,1.66a1,1,0,0,1-1-.76,5.81,5.81,0,0,1-.28-2.09h2.92c-.05-1.9-.71-3-1.86-3m-1,2.55c.06-1.42.44-2.22,1-2.22s.95.75,1,2.22Z"/><path class="cls-3" d="M24,33.35c-.55,0-1,.41-1.17,1.15a11.13,11.13,0,0,0-.11-1.2,5.77,5.77,0,0,1-1.34.3v.23a.37.37,0,0,1,.13,0c.48,0,.54.11.54.8v4c0,.55-.1.65-.68.69v.25a8.93,8.93,0,0,1,1.12-.08,9.07,9.07,0,0,1,1.13.08v-.25c-.58,0-.67-.13-.68-.69V35.93c0-1.28.3-2,.81-2a.26.26,0,0,1,.26.28c0,.05,0,.1,0,.19a.49.49,0,0,0,0,.21.41.41,0,0,0,.43.42c.3,0,.48-.25.48-.65a.88.88,0,0,0-.86-1"/><path class="cls-3" d="M27.57,39.19c-.74,0-1.14-.9-1.14-2.59,0-1.87.42-2.91,1.16-2.91.57,0,.95.55,1.1,1.63H29V33.24h-.2l-.24.64a1.18,1.18,0,0,0-1-.53c-1.19,0-2,1.29-2,3.17s.8,3.09,2,3.09c.9,0,1.47-.73,1.59-2.09h-.4c-.11,1.1-.48,1.67-1.08,1.67"/><path class="cls-3" d="M32,33.37c-1.18,0-2,1.25-2,3.1s.79,3.13,2,3.13c1,0,1.66-.76,1.79-2.08h-.39c-.12,1.07-.59,1.66-1.28,1.66a1,1,0,0,1-1-.76,5.81,5.81,0,0,1-.28-2.09h2.93c-.05-1.9-.71-3-1.86-3m-1,2.55c.06-1.42.44-2.22,1-2.22s.94.75,1,2.22Z"/><path class="cls-3" d="M38.65,38.19v-7.3a7,7,0,0,1-1.56.33v.23c.58,0,.69.11.67.74v2.14c-.3-.65-.62-.91-1.15-.91-1.08,0-1.82,1.28-1.82,3.1s.76,3.1,1.85,3.1c.55,0,.93-.31,1.21-1a6.74,6.74,0,0,0,.14,1,5.9,5.9,0,0,1,1.39-.33v-.22c-.67,0-.72-.08-.73-.86m-1.9,1.08c-.67,0-1-1-1-2.77s.33-2.72,1-2.72,1.07,1,1.07,3C37.78,38.35,37.4,39.27,36.75,39.27Z"/><path class="cls-3" d="M42.07,33.37c-1.18,0-2,1.25-2,3.1s.79,3.13,2,3.13c1,0,1.66-.76,1.79-2.08h-.4c-.11,1.07-.58,1.66-1.27,1.66a1,1,0,0,1-1-.76A5.81,5.81,0,0,1,41,36.33h2.93c0-1.9-.71-3-1.86-3m-1,2.55c.06-1.42.44-2.22,1-2.22s1,.75,1,2.22Z"/><path class="cls-3" d="M47.74,36.56a6.53,6.53,0,0,0-1-.67c-.72-.4-.9-.63-.9-1.14a.93.93,0,0,1,.9-1c.61,0,.92.48,1,1.49H48v-2h-.22l-.15.51a1.32,1.32,0,0,0-1-.4A1.54,1.54,0,0,0,45.08,35a1.63,1.63,0,0,0,.34,1.05,4.85,4.85,0,0,0,1.19.81c.71.41.92.69.92,1.21a1,1,0,0,1-1,1.1c-.68,0-1.11-.59-1.25-1.7H45v2.11h.21l.21-.57a1.56,1.56,0,0,0,1.2.54,1.67,1.67,0,0,0,1.66-1.81,1.54,1.54,0,0,0-.54-1.22"/><rect class="cls-3" x="48.9" y="35.81" width="2.59" height="0.54"/><path class="cls-3" d="M55.45,35a1.92,1.92,0,0,0,1.18-1.89,2.32,2.32,0,0,0-.5-1.48A2,2,0,0,0,54.57,31H52v.32c.7.06.79.16.8.83v6.14c0,.68-.1.77-.8.85v.3h2.52A2.24,2.24,0,0,0,57,37.05,1.93,1.93,0,0,0,55.45,35M53.7,31.42h.68a1.23,1.23,0,0,1,.85.26,2.08,2.08,0,0,1,.43,1.43,2.27,2.27,0,0,1-.27,1.2c-.22.4-.54.55-1.17.55H53.7Zm.82,7.66h-.23c-.53,0-.58-.09-.59-.66V35.26h.78a1.46,1.46,0,0,1,1,.29,2.25,2.25,0,0,1,.5,1.53C56,38.36,55.46,39.08,54.52,39.08Z"/><path class="cls-3" d="M59.93,33.37c-1.18,0-2,1.25-2,3.1s.79,3.13,2,3.13c1,0,1.66-.76,1.79-2.08h-.4c-.11,1.07-.58,1.66-1.27,1.66a1,1,0,0,1-1-.76,5.81,5.81,0,0,1-.28-2.09h2.93c0-1.9-.71-3-1.86-3m-1,2.55c.06-1.42.44-2.22,1-2.22s1,.75,1,2.22Z"/><path class="cls-3" d="M67,38.57v-3.1a3.05,3.05,0,0,0-.25-1.36,1.38,1.38,0,0,0-1.23-.73,1.52,1.52,0,0,0-1.38,1,6.59,6.59,0,0,0-.11-1.1,4.66,4.66,0,0,1-1.36.38v.23c.65,0,.66,0,.68.78v3.91c0,.55-.11.65-.69.69v.25a8.31,8.31,0,0,1,1.1-.08,8.18,8.18,0,0,1,1.09.08v-.25c-.5,0-.62-.17-.62-.66V35.47a2,2,0,0,1,.19-1,.93.93,0,0,1,.84-.51c.6,0,.86.43.86,1.47V38.6c0,.51-.13.63-.64.66v.25a7.67,7.67,0,0,1,2.21,0v-.25c-.59,0-.69-.14-.69-.69"/><path class="cls-3" d="M68.79,33.5l-.23,1.64h.25c.31-1.06.51-1.31,1.15-1.31H71l-2.7,5.64h3.48l.27-1.82h-.26c-.33,1.21-.59,1.52-1.24,1.49H69.44l2.71-5.64H68.79"/><text class="cls-4" transform="translate(8 49.88)">Pre-Owned <tspan class="cls-5" x="36.75" y="0">V</tspan><tspan x="40.48" y="0">ehicles</tspan></text></g></svg>